<svg width="24" height="24" viewBox="0 0 24 24" fill="none" xmlns="http://www.w3.org/2000/svg">
<g id="Frame 1132">
<g id="Group 47301">
<path id="Vector" fill-rule="evenodd" clip-rule="evenodd" d="M6.16181 5.08545L2.51499 12.7456C2.50112 12.7741 2.49672 12.8063 2.50244 12.8374C2.50817 12.8686 2.52372 12.8971 2.54681 12.9188L12.396 22.3567C12.424 22.3836 12.4612 22.3985 12.5 22.3985C12.5388 22.3985 12.576 22.3836 12.604 22.3567L22.4532 12.9194C22.4763 12.8977 22.4918 12.8692 22.4976 12.838C22.5033 12.8069 22.4989 12.7747 22.485 12.7462L18.8382 5.08604C18.8264 5.06031 18.8075 5.03852 18.7837 5.02327C18.7598 5.00801 18.7321 4.99994 18.7038 5.00001H6.29734C6.26891 4.99966 6.24099 5.00754 6.21695 5.0227C6.1929 5.03786 6.17375 5.05965 6.16181 5.08545Z" fill="#50AF95"/>
<path id="Vector_2" fill-rule="evenodd" clip-rule="evenodd" d="M13.7654 13.5323C13.6947 13.5376 13.3294 13.5594 12.5145 13.5594C11.8663 13.5594 11.4061 13.54 11.2447 13.5323C8.73979 13.4221 6.87012 12.9861 6.87012 12.464C6.87012 11.9419 8.73979 11.5065 11.2447 11.3945V13.098C11.4085 13.1098 11.8775 13.1375 12.5257 13.1375C13.3035 13.1375 13.693 13.1051 13.7631 13.0986V11.3957C16.2626 11.5071 18.1282 11.9431 18.1282 12.464C18.1282 12.9849 16.2632 13.4209 13.7631 13.5317L13.7654 13.5323ZM13.7654 11.2195V9.69517H17.2538V7.37061H7.75634V9.69517H11.2441V11.2189C8.40922 11.3492 6.27734 11.9107 6.27734 12.5836C6.27734 13.2565 8.40922 13.8175 11.2441 13.9483V18.8331H13.7648V13.9466C16.5932 13.8163 18.7216 13.2554 18.7216 12.583C18.7216 11.9107 16.595 11.3498 13.7648 11.2189L13.7654 11.2195Z" fill="white"/>
</g>
</g>
</svg>
