<svg width="24" height="24" viewBox="0 0 24 24" fill="none" xmlns="http://www.w3.org/2000/svg">
<g id="Frame 47486">
<g id="Bitcoin">
<path id="Shape" fill-rule="evenodd" clip-rule="evenodd" d="M20.577 9.84441C20.9228 7.53273 19.1627 6.29003 16.756 5.46102L17.5367 2.32957L15.6306 1.85453L14.8705 4.90346C14.3694 4.77859 13.8547 4.66078 13.3433 4.54406L14.1088 1.47504L12.2038 1L11.4226 4.13037C11.0078 4.03591 10.6006 3.94253 10.2054 3.84426L10.2075 3.83449L7.57881 3.17812L7.07174 5.214C7.07174 5.214 8.486 5.53811 8.45614 5.5582C9.22814 5.75093 9.36767 6.2618 9.34432 6.66681L8.45505 10.2342C8.50825 10.2478 8.5772 10.2673 8.65321 10.2977C8.58969 10.282 8.52183 10.2646 8.45179 10.2478L7.20529 15.2452C7.11083 15.4797 6.87141 15.8315 6.33176 15.698C6.35076 15.7257 4.94628 15.3521 4.94628 15.3521L4 17.5341L6.48052 18.1524C6.94198 18.2681 7.39422 18.3891 7.8394 18.5031L7.05056 21.6704L8.95452 22.1455L9.73575 19.0118C10.2559 19.153 10.7608 19.2833 11.2548 19.406L10.4763 22.525L12.3824 23L13.1712 19.8387C16.4216 20.4538 18.8657 20.2057 19.8945 17.2659C20.7235 14.8988 19.8533 13.5334 18.1431 12.6431C19.3885 12.3559 20.3267 11.5366 20.577 9.84441ZM16.2218 15.9516C15.6328 18.3186 11.6473 17.039 10.3552 16.7182L11.4019 12.5221C12.694 12.8446 16.8375 13.483 16.2218 15.9516ZM16.8114 9.81016C16.2739 11.9633 12.9568 10.8694 11.8808 10.6012L12.8298 6.79542C13.9058 7.06362 17.3711 7.56417 16.8114 9.81016Z" fill="#F7931A"/>
</g>
</g>
</svg>
