<svg width="24" height="24" viewBox="0 0 24 24" fill="none" xmlns="http://www.w3.org/2000/svg">
<g id="Frame 47483">
<g id="Mastercard">
<g id="g3110">
<path id="path2997" fill-rule="evenodd" clip-rule="evenodd" d="M23 11.8163C23 15.5809 19.954 18.6327 16.1965 18.6327C12.4391 18.6327 9.39307 15.5809 9.39307 11.8163C9.39307 8.05178 12.4391 5 16.1965 5C19.954 5 23 8.05178 23 11.8163Z" fill="#F79F1A"/>
<path id="path2995" fill-rule="evenodd" clip-rule="evenodd" d="M14.6069 11.8163C14.6069 15.5809 11.5609 18.6327 7.80345 18.6327C4.04601 18.6327 1 15.5809 1 11.8163C1 8.05178 4.04601 5 7.80345 5C11.5609 5 14.6069 8.05178 14.6069 11.8163Z" fill="#EA001B"/>
<path id="path2999" fill-rule="evenodd" clip-rule="evenodd" d="M12.0001 6.45044C10.4127 7.69829 9.39368 9.63737 9.39368 11.8157C9.39368 13.994 10.4127 15.9345 12.0001 17.1824C13.5875 15.9345 14.6065 13.994 14.6065 11.8157C14.6065 9.63737 13.5875 7.69829 12.0001 6.45044Z" fill="#FF5F01"/>
</g>
</g>
</g>
</svg>
