<svg width="24" height="24" viewBox="0 0 24 24" fill="none" xmlns="http://www.w3.org/2000/svg">
<g id="Frame 47484">
<g id="Visa">
<mask id="mask0_534_10659" style="mask-type:luminance" maskUnits="userSpaceOnUse" x="1" y="8" width="22" height="8">
<path id="path10273" fill-rule="evenodd" clip-rule="evenodd" d="M12.3779 10.2897C12.3653 11.2873 13.2598 11.8441 13.9336 12.175C14.626 12.5147 14.8585 12.7324 14.8559 13.0361C14.8506 13.501 14.3036 13.7061 13.7916 13.7141C12.8984 13.7281 12.3792 13.471 11.9663 13.2765L11.6446 14.7943C12.0588 14.9867 12.8258 15.1545 13.6212 15.1619C15.4881 15.1619 16.7096 14.2329 16.7162 12.7924C16.7234 10.9643 14.2078 10.8631 14.225 10.046C14.2309 9.79823 14.4654 9.53384 14.9794 9.46658C15.2337 9.43262 15.936 9.40664 16.732 9.77625L17.0445 8.30781C16.6164 8.15065 16.0661 8.00014 15.3811 8.00014C13.6238 8.00014 12.3878 8.9418 12.3779 10.2897ZM20.047 8.12662C19.7061 8.12662 19.4188 8.32707 19.2906 8.63475L16.6237 15.0539H18.4893L18.8605 14.0197H21.1404L21.3557 15.0539H23L21.5651 8.12662H20.047ZM20.308 9.99796L20.8464 12.5992H19.3719L20.308 9.99796ZM10.1159 8.12662L8.64537 15.0539H10.4231L11.893 8.12662H10.1159ZM7.48598 8.12662L5.63558 12.8416L4.88709 8.83254C4.79923 8.38501 4.45241 8.12662 4.06726 8.12662H1.04228L1 8.32774C1.62098 8.4636 2.32653 8.6827 2.75395 8.91711C3.01555 9.06029 3.0902 9.1855 3.17609 9.5258L4.59378 15.0539H6.47258L9.35289 8.12662H7.48598Z" fill="white"/>
</mask>
<g mask="url(#mask0_534_10659)">
<path id="path10273_2" fill-rule="evenodd" clip-rule="evenodd" d="M12.3779 10.2897C12.3653 11.2873 13.2598 11.8441 13.9336 12.175C14.626 12.5147 14.8585 12.7324 14.8559 13.0361C14.8506 13.501 14.3036 13.7061 13.7916 13.7141C12.8984 13.7281 12.3792 13.471 11.9663 13.2765L11.6446 14.7943C12.0588 14.9867 12.8258 15.1545 13.6212 15.1619C15.4881 15.1619 16.7096 14.2329 16.7162 12.7924C16.7234 10.9643 14.2078 10.8631 14.225 10.046C14.2309 9.79823 14.4654 9.53384 14.9794 9.46658C15.2337 9.43262 15.936 9.40664 16.732 9.77625L17.0445 8.30781C16.6164 8.15065 16.0661 8.00014 15.3811 8.00014C13.6238 8.00014 12.3878 8.9418 12.3779 10.2897ZM20.047 8.12662C19.7061 8.12662 19.4188 8.32707 19.2906 8.63475L16.6237 15.0539H18.4893L18.8605 14.0197H21.1404L21.3557 15.0539H23L21.5651 8.12662H20.047ZM20.308 9.99796L20.8464 12.5992H19.3719L20.308 9.99796ZM10.1159 8.12662L8.64537 15.0539H10.4231L11.893 8.12662H10.1159ZM7.48598 8.12662L5.63558 12.8416L4.88709 8.83254C4.79923 8.38501 4.45241 8.12662 4.06726 8.12662H1.04228L1 8.32774C1.62098 8.4636 2.32653 8.6827 2.75395 8.91711C3.01555 9.06029 3.0902 9.1855 3.17609 9.5258L4.59378 15.0539H6.47258L9.35289 8.12662H7.48598Z" fill="url(#paint0_linear_534_10659)"/>
</g>
</g>
</g>
<defs>
<linearGradient id="paint0_linear_534_10659" x1="1.03835" y1="10.2029" x2="7.25684" y2="1.44501" gradientUnits="userSpaceOnUse">
<stop stop-color="#222357"/>
<stop offset="1" stop-color="#254AA5"/>
</linearGradient>
</defs>
</svg>
