<svg width="200" height="201" viewBox="0 0 200 201" fill="none" xmlns="http://www.w3.org/2000/svg">
<g id="QR">
<g id="Group 6">
<g id="Group 4">
<g id="Group 3">
<g id="Group">
<path id="Vector" d="M6.89657 0.774414H0V7.67099H6.89657V0.774414Z" fill="white"/>
<path id="Vector_2" d="M6.89657 7.67188H0V14.5685H6.89657V7.67188Z" fill="white"/>
<path id="Vector_3" d="M6.89657 14.5674H0V21.464H6.89657V14.5674Z" fill="white"/>
<path id="Vector_4" d="M6.89657 21.4648H0V28.3614H6.89657V21.4648Z" fill="white"/>
<path id="Vector_5" d="M6.89657 28.3604H0V35.2569H6.89657V28.3604Z" fill="white"/>
<path id="Vector_6" d="M6.89657 35.2578H0V42.1544H6.89657V35.2578Z" fill="white"/>
<path id="Vector_7" d="M6.89657 42.1533H0V49.0499H6.89657V42.1533Z" fill="white"/>
<path id="Vector_8" d="M6.89657 55.9463H0V62.8429H6.89657V55.9463Z" fill="white"/>
<path id="Vector_9" d="M6.89657 69.7412H0V76.6378H6.89657V69.7412Z" fill="white"/>
<path id="Vector_10" d="M6.89657 76.6367H0V83.5333H6.89657V76.6367Z" fill="white"/>
<path id="Vector_11" d="M6.89657 83.5322H0V90.4288H6.89657V83.5322Z" fill="white"/>
<path id="Vector_12" d="M6.89657 90.4297H0V97.3263H6.89657V90.4297Z" fill="white"/>
<path id="Vector_13" d="M6.89657 97.3271H0V104.224H6.89657V97.3271Z" fill="white"/>
<path id="Vector_14" d="M6.89657 111.12H0V118.017H6.89657V111.12Z" fill="white"/>
<path id="Vector_15" d="M6.89657 118.016H0V124.912H6.89657V118.016Z" fill="white"/>
<path id="Vector_16" d="M6.89657 131.809H0V138.705H6.89657V131.809Z" fill="white"/>
<path id="Vector_17" d="M6.89657 152.499H0V159.396H6.89657V152.499Z" fill="white"/>
<path id="Vector_18" d="M6.89657 159.396H0V166.293H6.89657V159.396Z" fill="white"/>
<path id="Vector_19" d="M6.89657 166.292H0V173.189H6.89657V166.292Z" fill="white"/>
<path id="Vector_20" d="M6.89657 173.189H0V180.086H6.89657V173.189Z" fill="white"/>
<path id="Vector_21" d="M6.89657 180.085H0V186.982H6.89657V180.085Z" fill="white"/>
<path id="Vector_22" d="M6.89657 186.982H0V193.879H6.89657V186.982Z" fill="white"/>
<path id="Vector_23" d="M6.89657 193.878H0V200.774H6.89657V193.878Z" fill="white"/>
<path id="Vector_24" d="M13.7929 0.774414H6.8963V7.67099H13.7929V0.774414Z" fill="white"/>
<path id="Vector_25" d="M13.7929 42.1533H6.8963V49.0499H13.7929V42.1533Z" fill="white"/>
<path id="Vector_26" d="M13.7929 62.8438H6.8963V69.7403H13.7929V62.8438Z" fill="white"/>
<path id="Vector_27" d="M13.7929 76.6367H6.8963V83.5333H13.7929V76.6367Z" fill="white"/>
<path id="Vector_28" d="M13.7929 83.5322H6.8963V90.4288H13.7929V83.5322Z" fill="white"/>
<path id="Vector_29" d="M13.7929 111.12H6.8963V118.017H13.7929V111.12Z" fill="white"/>
<path id="Vector_30" d="M13.7929 118.016H6.8963V124.912H13.7929V118.016Z" fill="white"/>
<path id="Vector_31" d="M13.7929 124.913H6.8963V131.81H13.7929V124.913Z" fill="white"/>
<path id="Vector_32" d="M13.7929 138.706H6.8963V145.603H13.7929V138.706Z" fill="white"/>
<path id="Vector_33" d="M13.7929 152.499H6.8963V159.396H13.7929V152.499Z" fill="white"/>
<path id="Vector_34" d="M13.7929 193.878H6.8963V200.774H13.7929V193.878Z" fill="white"/>
<path id="Vector_35" d="M20.6899 0.774414H13.7934V7.67099H20.6899V0.774414Z" fill="white"/>
<path id="Vector_36" d="M20.6899 14.5674H13.7934V21.464H20.6899V14.5674Z" fill="white"/>
<path id="Vector_37" d="M20.6899 21.4648H13.7934V28.3614H20.6899V21.4648Z" fill="white"/>
<path id="Vector_38" d="M20.6899 28.3604H13.7934V35.2569H20.6899V28.3604Z" fill="white"/>
<path id="Vector_39" d="M20.6899 42.1533H13.7934V49.0499H20.6899V42.1533Z" fill="white"/>
<path id="Vector_40" d="M20.6899 55.9463H13.7934V62.8429H20.6899V55.9463Z" fill="white"/>
<path id="Vector_41" d="M20.6899 76.6367H13.7934V83.5333H20.6899V76.6367Z" fill="white"/>
<path id="Vector_42" d="M20.6899 83.5322H13.7934V90.4288H20.6899V83.5322Z" fill="white"/>
<path id="Vector_43" d="M20.6899 118.016H13.7934V124.912H20.6899V118.016Z" fill="white"/>
<path id="Vector_44" d="M20.6899 138.706H13.7934V145.603H20.6899V138.706Z" fill="white"/>
<path id="Vector_45" d="M20.6899 152.499H13.7934V159.396H20.6899V152.499Z" fill="white"/>
<path id="Vector_46" d="M20.6899 166.292H13.7934V173.189H20.6899V166.292Z" fill="white"/>
<path id="Vector_47" d="M20.6899 173.189H13.7934V180.086H20.6899V173.189Z" fill="white"/>
<path id="Vector_48" d="M20.6899 180.085H13.7934V186.982H20.6899V180.085Z" fill="white"/>
<path id="Vector_49" d="M20.6899 193.878H13.7934V200.774H20.6899V193.878Z" fill="white"/>
<path id="Vector_50" d="M27.5862 0.774414H20.6896V7.67099H27.5862V0.774414Z" fill="white"/>
<path id="Vector_51" d="M27.5862 14.5674H20.6896V21.464H27.5862V14.5674Z" fill="white"/>
<path id="Vector_52" d="M27.5862 21.4648H20.6896V28.3614H27.5862V21.4648Z" fill="white"/>
<path id="Vector_53" d="M27.5862 28.3604H20.6896V35.2569H27.5862V28.3604Z" fill="white"/>
<path id="Vector_54" d="M27.5862 42.1533H20.6896V49.0499H27.5862V42.1533Z" fill="white"/>
<path id="Vector_55" d="M27.5862 62.8438H20.6896V69.7403H27.5862V62.8438Z" fill="white"/>
<path id="Vector_56" d="M27.5862 76.6367H20.6896V83.5333H27.5862V76.6367Z" fill="white"/>
<path id="Vector_57" d="M27.5862 90.4297H20.6896V97.3263H27.5862V90.4297Z" fill="white"/>
<path id="Vector_58" d="M27.5862 104.223H20.6896V111.119H27.5862V104.223Z" fill="white"/>
<path id="Vector_59" d="M27.5862 124.913H20.6896V131.81H27.5862V124.913Z" fill="white"/>
<path id="Vector_60" d="M27.5862 131.809H20.6896V138.705H27.5862V131.809Z" fill="white"/>
<path id="Vector_61" d="M27.5862 152.499H20.6896V159.396H27.5862V152.499Z" fill="white"/>
<path id="Vector_62" d="M27.5862 166.292H20.6896V173.189H27.5862V166.292Z" fill="white"/>
<path id="Vector_63" d="M27.5862 173.189H20.6896V180.086H27.5862V173.189Z" fill="white"/>
<path id="Vector_64" d="M27.5862 180.085H20.6896V186.982H27.5862V180.085Z" fill="white"/>
<path id="Vector_65" d="M27.5862 193.878H20.6896V200.774H27.5862V193.878Z" fill="white"/>
<path id="Vector_66" d="M34.4827 0.774414H27.5861V7.67099H34.4827V0.774414Z" fill="white"/>
<path id="Vector_67" d="M34.4827 14.5674H27.5861V21.464H34.4827V14.5674Z" fill="white"/>
<path id="Vector_68" d="M34.4827 21.4648H27.5861V28.3614H34.4827V21.4648Z" fill="white"/>
<path id="Vector_69" d="M34.4827 28.3604H27.5861V35.2569H34.4827V28.3604Z" fill="white"/>
<path id="Vector_70" d="M34.4827 42.1533H27.5861V49.0499H34.4827V42.1533Z" fill="white"/>
<path id="Vector_71" d="M34.4827 55.9463H27.5861V62.8429H34.4827V55.9463Z" fill="white"/>
<path id="Vector_72" d="M34.4827 62.8438H27.5861V69.7403H34.4827V62.8438Z" fill="white"/>
<path id="Vector_73" d="M34.4827 69.7412H27.5861V76.6378H34.4827V69.7412Z" fill="white"/>
<path id="Vector_74" d="M34.4827 76.6367H27.5861V83.5333H34.4827V76.6367Z" fill="white"/>
<path id="Vector_75" d="M34.4827 97.3271H27.5861V104.224H34.4827V97.3271Z" fill="white"/>
<path id="Vector_76" d="M34.4827 104.223H27.5861V111.119H34.4827V104.223Z" fill="white"/>
<path id="Vector_77" d="M34.4827 111.12H27.5861V118.017H34.4827V111.12Z" fill="white"/>
<path id="Vector_78" d="M34.4827 118.016H27.5861V124.912H34.4827V118.016Z" fill="white"/>
<path id="Vector_79" d="M34.4827 124.913H27.5861V131.81H34.4827V124.913Z" fill="white"/>
<path id="Vector_80" d="M34.4827 131.809H27.5861V138.705H34.4827V131.809Z" fill="white"/>
<path id="Vector_81" d="M34.4827 152.499H27.5861V159.396H34.4827V152.499Z" fill="white"/>
<path id="Vector_82" d="M34.4827 166.292H27.5861V173.189H34.4827V166.292Z" fill="white"/>
<path id="Vector_83" d="M34.4827 173.189H27.5861V180.086H34.4827V173.189Z" fill="white"/>
<path id="Vector_84" d="M34.4827 180.085H27.5861V186.982H34.4827V180.085Z" fill="white"/>
<path id="Vector_85" d="M34.4827 193.878H27.5861V200.774H34.4827V193.878Z" fill="white"/>
<path id="Vector_86" d="M41.3796 0.774414H34.483V7.67099H41.3796V0.774414Z" fill="white"/>
<path id="Vector_87" d="M41.3796 42.1533H34.483V49.0499H41.3796V42.1533Z" fill="white"/>
<path id="Vector_88" d="M41.3796 62.8438H34.483V69.7403H41.3796V62.8438Z" fill="white"/>
<path id="Vector_89" d="M41.3796 76.6367H34.483V83.5333H41.3796V76.6367Z" fill="white"/>
<path id="Vector_90" d="M41.3796 83.5322H34.483V90.4288H41.3796V83.5322Z" fill="white"/>
<path id="Vector_91" d="M41.3796 90.4297H34.483V97.3263H41.3796V90.4297Z" fill="white"/>
<path id="Vector_92" d="M41.3796 104.223H34.483V111.119H41.3796V104.223Z" fill="white"/>
<path id="Vector_93" d="M41.3796 111.12H34.483V118.017H41.3796V111.12Z" fill="white"/>
<path id="Vector_94" d="M41.3796 118.016H34.483V124.912H41.3796V118.016Z" fill="white"/>
<path id="Vector_95" d="M41.3796 131.809H34.483V138.705H41.3796V131.809Z" fill="white"/>
<path id="Vector_96" d="M41.3796 138.706H34.483V145.603H41.3796V138.706Z" fill="white"/>
<path id="Vector_97" d="M41.3796 152.499H34.483V159.396H41.3796V152.499Z" fill="white"/>
<path id="Vector_98" d="M41.3796 193.878H34.483V200.774H41.3796V193.878Z" fill="white"/>
<path id="Vector_99" d="M48.2759 0.774414H41.3793V7.67099H48.2759V0.774414Z" fill="white"/>
<path id="Vector_100" d="M48.2759 7.67188H41.3793V14.5685H48.2759V7.67188Z" fill="white"/>
<path id="Vector_101" d="M48.2759 14.5674H41.3793V21.464H48.2759V14.5674Z" fill="white"/>
<path id="Vector_102" d="M48.2759 21.4648H41.3793V28.3614H48.2759V21.4648Z" fill="white"/>
<path id="Vector_103" d="M48.2759 28.3604H41.3793V35.2569H48.2759V28.3604Z" fill="white"/>
<path id="Vector_104" d="M48.2759 35.2578H41.3793V42.1544H48.2759V35.2578Z" fill="white"/>
<path id="Vector_105" d="M48.2759 42.1533H41.3793V49.0499H48.2759V42.1533Z" fill="white"/>
<path id="Vector_106" d="M48.2759 55.9463H41.3793V62.8429H48.2759V55.9463Z" fill="white"/>
<path id="Vector_107" d="M48.2759 69.7412H41.3793V76.6378H48.2759V69.7412Z" fill="white"/>
<path id="Vector_108" d="M48.2759 83.5322H41.3793V90.4288H48.2759V83.5322Z" fill="white"/>
<path id="Vector_109" d="M48.2759 97.3271H41.3793V104.224H48.2759V97.3271Z" fill="white"/>
<path id="Vector_110" d="M48.2759 111.12H41.3793V118.017H48.2759V111.12Z" fill="white"/>
<path id="Vector_111" d="M48.2759 124.913H41.3793V131.81H48.2759V124.913Z" fill="white"/>
<path id="Vector_112" d="M48.2759 138.706H41.3793V145.603H48.2759V138.706Z" fill="white"/>
<path id="Vector_113" d="M48.2759 152.499H41.3793V159.396H48.2759V152.499Z" fill="white"/>
<path id="Vector_114" d="M48.2759 159.396H41.3793V166.293H48.2759V159.396Z" fill="white"/>
<path id="Vector_115" d="M48.2759 166.292H41.3793V173.189H48.2759V166.292Z" fill="white"/>
<path id="Vector_116" d="M48.2759 173.189H41.3793V180.086H48.2759V173.189Z" fill="white"/>
<path id="Vector_117" d="M48.2759 180.085H41.3793V186.982H48.2759V180.085Z" fill="white"/>
<path id="Vector_118" d="M48.2759 186.982H41.3793V193.879H48.2759V186.982Z" fill="white"/>
<path id="Vector_119" d="M48.2759 193.878H41.3793V200.774H48.2759V193.878Z" fill="white"/>
<path id="Vector_120" d="M55.1724 62.8438H48.2758V69.7403H55.1724V62.8438Z" fill="white"/>
<path id="Vector_121" d="M55.1724 69.7412H48.2758V76.6378H55.1724V69.7412Z" fill="white"/>
<path id="Vector_122" d="M55.1724 118.016H48.2758V124.912H55.1724V118.016Z" fill="white"/>
<path id="Vector_123" d="M55.1724 124.913H48.2758V131.81H55.1724V124.913Z" fill="white"/>
<path id="Vector_124" d="M62.0696 7.67188H55.173V14.5685H62.0696V7.67188Z" fill="white"/>
<path id="Vector_125" d="M62.0696 28.3604H55.173V35.2569H62.0696V28.3604Z" fill="white"/>
<path id="Vector_126" d="M62.0696 42.1533H55.173V49.0499H62.0696V42.1533Z" fill="white"/>
<path id="Vector_127" d="M62.0696 76.6367H55.173V83.5333H62.0696V76.6367Z" fill="white"/>
<path id="Vector_128" d="M62.0696 83.5322H55.173V90.4288H62.0696V83.5322Z" fill="white"/>
<path id="Vector_129" d="M62.0696 97.3271H55.173V104.224H62.0696V97.3271Z" fill="white"/>
<path id="Vector_130" d="M62.0696 111.12H55.173V118.017H62.0696V111.12Z" fill="white"/>
<path id="Vector_131" d="M62.0696 124.913H55.173V131.81H62.0696V124.913Z" fill="white"/>
<path id="Vector_132" d="M62.0696 138.706H55.173V145.603H62.0696V138.706Z" fill="white"/>
<path id="Vector_133" d="M62.0696 145.604H55.173V152.5H62.0696V145.604Z" fill="white"/>
<path id="Vector_134" d="M62.0696 166.292H55.173V173.189H62.0696V166.292Z" fill="white"/>
<path id="Vector_135" d="M62.0696 180.085H55.173V186.982H62.0696V180.085Z" fill="white"/>
<path id="Vector_136" d="M62.0696 193.878H55.173V200.774H62.0696V193.878Z" fill="white"/>
<path id="Vector_137" d="M68.9659 0.774414H62.0693V7.67099H68.9659V0.774414Z" fill="white"/>
<path id="Vector_138" d="M68.9659 14.5674H62.0693V21.464H68.9659V14.5674Z" fill="white"/>
<path id="Vector_139" d="M68.9659 35.2578H62.0693V42.1544H68.9659V35.2578Z" fill="white"/>
<path id="Vector_140" d="M68.9659 55.9463H62.0693V62.8429H68.9659V55.9463Z" fill="white"/>
<path id="Vector_141" d="M68.9659 76.6367H62.0693V83.5333H68.9659V76.6367Z" fill="white"/>
<path id="Vector_142" d="M68.9659 97.3271H62.0693V104.224H68.9659V97.3271Z" fill="white"/>
<path id="Vector_143" d="M68.9659 104.223H62.0693V111.119H68.9659V104.223Z" fill="white"/>
<path id="Vector_144" d="M68.9659 111.12H62.0693V118.017H68.9659V111.12Z" fill="white"/>
<path id="Vector_145" d="M68.9659 118.016H62.0693V124.912H68.9659V118.016Z" fill="white"/>
<path id="Vector_146" d="M68.9659 145.604H62.0693V152.5H68.9659V145.604Z" fill="white"/>
<path id="Vector_147" d="M68.9659 152.499H62.0693V159.396H68.9659V152.499Z" fill="white"/>
<path id="Vector_148" d="M68.9659 166.292H62.0693V173.189H68.9659V166.292Z" fill="white"/>
<path id="Vector_149" d="M68.9659 180.085H62.0693V186.982H68.9659V180.085Z" fill="white"/>
<path id="Vector_150" d="M68.9659 186.982H62.0693V193.879H68.9659V186.982Z" fill="white"/>
<path id="Vector_151" d="M68.9659 193.878H62.0693V200.774H68.9659V193.878Z" fill="white"/>
<path id="Vector_152" d="M75.8622 0.774414H68.9656V7.67099H75.8622V0.774414Z" fill="white"/>
<path id="Vector_153" d="M75.8622 7.67188H68.9656V14.5685H75.8622V7.67188Z" fill="white"/>
<path id="Vector_154" d="M75.8622 28.3604H68.9656V35.2569H75.8622V28.3604Z" fill="white"/>
<path id="Vector_155" d="M75.8622 35.2578H68.9656V42.1544H75.8622V35.2578Z" fill="white"/>
<path id="Vector_156" d="M75.8622 42.1533H68.9656V49.0499H75.8622V42.1533Z" fill="white"/>
<path id="Vector_157" d="M75.8622 55.9463H68.9656V62.8429H75.8622V55.9463Z" fill="white"/>
<path id="Vector_158" d="M75.8622 69.7412H68.9656V76.6378H75.8622V69.7412Z" fill="white"/>
<path id="Vector_159" d="M75.8622 90.4297H68.9656V97.3263H75.8622V90.4297Z" fill="white"/>
<path id="Vector_160" d="M75.8622 97.3271H68.9656V104.224H75.8622V97.3271Z" fill="white"/>
<path id="Vector_161" d="M75.8622 124.913H68.9656V131.81H75.8622V124.913Z" fill="white"/>
<path id="Vector_162" d="M75.8622 159.396H68.9656V166.293H75.8622V159.396Z" fill="white"/>
<path id="Vector_163" d="M75.8622 166.292H68.9656V173.189H75.8622V166.292Z" fill="white"/>
<path id="Vector_164" d="M75.8622 173.189H68.9656V180.086H75.8622V173.189Z" fill="white"/>
<path id="Vector_165" d="M75.8622 180.085H68.9656V186.982H75.8622V180.085Z" fill="white"/>
<path id="Vector_166" d="M75.8622 186.982H68.9656V193.879H75.8622V186.982Z" fill="white"/>
<path id="Vector_167" d="M75.8622 193.878H68.9656V200.774H75.8622V193.878Z" fill="white"/>
<path id="Vector_168" d="M82.7589 7.67188H75.8623V14.5685H82.7589V7.67188Z" fill="white"/>
<path id="Vector_169" d="M82.7589 14.5674H75.8623V21.464H82.7589V14.5674Z" fill="white"/>
<path id="Vector_170" d="M82.7589 55.9463H75.8623V62.8429H82.7589V55.9463Z" fill="white"/>
<path id="Vector_171" d="M82.7589 62.8438H75.8623V69.7403H82.7589V62.8438Z" fill="white"/>
<path id="Vector_172" d="M82.7589 69.7412H75.8623V76.6378H82.7589V69.7412Z" fill="white"/>
<path id="Vector_173" d="M82.7589 76.6367H75.8623V83.5333H82.7589V76.6367Z" fill="white"/>
<path id="Vector_174" d="M82.7589 83.5322H75.8623V90.4288H82.7589V83.5322Z" fill="white"/>
<path id="Vector_175" d="M82.7589 90.4297H75.8623V97.3263H82.7589V90.4297Z" fill="white"/>
<path id="Vector_176" d="M82.7589 104.223H75.8623V111.119H82.7589V104.223Z" fill="white"/>
<path id="Vector_177" d="M82.7589 111.12H75.8623V118.017H82.7589V111.12Z" fill="white"/>
<path id="Vector_178" d="M82.7589 124.913H75.8623V131.81H82.7589V124.913Z" fill="white"/>
<path id="Vector_179" d="M82.7589 145.604H75.8623V152.5H82.7589V145.604Z" fill="white"/>
<path id="Vector_180" d="M82.7589 152.499H75.8623V159.396H82.7589V152.499Z" fill="white"/>
<path id="Vector_181" d="M82.7589 173.189H75.8623V180.086H82.7589V173.189Z" fill="white"/>
<path id="Vector_182" d="M82.7589 180.085H75.8623V186.982H82.7589V180.085Z" fill="white"/>
<path id="Vector_183" d="M82.7589 193.878H75.8623V200.774H82.7589V193.878Z" fill="white"/>
<path id="Vector_184" d="M89.6554 7.67188H82.7588V14.5685H89.6554V7.67188Z" fill="white"/>
<path id="Vector_185" d="M89.6554 14.5674H82.7588V21.464H89.6554V14.5674Z" fill="white"/>
<path id="Vector_186" d="M89.6554 42.1533H82.7588V49.0499H89.6554V42.1533Z" fill="white"/>
<path id="Vector_187" d="M89.6554 55.9463H82.7588V62.8429H89.6554V55.9463Z" fill="white"/>
<path id="Vector_188" d="M89.6554 69.7412H82.7588V76.6378H89.6554V69.7412Z" fill="white"/>
<path id="Vector_189" d="M89.6554 83.5322H82.7588V90.4288H89.6554V83.5322Z" fill="white"/>
<path id="Vector_190" d="M89.6554 97.3271H82.7588V104.224H89.6554V97.3271Z" fill="white"/>
<path id="Vector_191" d="M89.6554 104.223H82.7588V111.119H89.6554V104.223Z" fill="white"/>
<path id="Vector_192" d="M89.6554 118.016H82.7588V124.912H89.6554V118.016Z" fill="white"/>
<path id="Vector_193" d="M89.6554 131.809H82.7588V138.705H89.6554V131.809Z" fill="white"/>
<path id="Vector_194" d="M89.6554 152.499H82.7588V159.396H89.6554V152.499Z" fill="white"/>
<path id="Vector_195" d="M89.6554 193.878H82.7588V200.774H89.6554V193.878Z" fill="white"/>
<path id="Vector_196" d="M96.5521 0.774414H89.6555V7.67099H96.5521V0.774414Z" fill="white"/>
<path id="Vector_197" d="M96.5521 14.5674H89.6555V21.464H96.5521V14.5674Z" fill="white"/>
<path id="Vector_198" d="M96.5521 21.4648H89.6555V28.3614H96.5521V21.4648Z" fill="white"/>
<path id="Vector_199" d="M96.5521 35.2578H89.6555V42.1544H96.5521V35.2578Z" fill="white"/>
<path id="Vector_200" d="M96.5521 49.0508H89.6555V55.9474H96.5521V49.0508Z" fill="white"/>
<path id="Vector_201" d="M96.5521 69.7412H89.6555V76.6378H96.5521V69.7412Z" fill="white"/>
<path id="Vector_202" d="M96.5521 90.4297H89.6555V97.3263H96.5521V90.4297Z" fill="white"/>
<path id="Vector_203" d="M96.5521 104.223H89.6555V111.119H96.5521V104.223Z" fill="white"/>
<path id="Vector_204" d="M96.5521 124.913H89.6555V131.81H96.5521V124.913Z" fill="white"/>
<path id="Vector_205" d="M96.5521 145.604H89.6555V152.5H96.5521V145.604Z" fill="white"/>
<path id="Vector_206" d="M96.5521 159.396H89.6555V166.293H96.5521V159.396Z" fill="white"/>
<path id="Vector_207" d="M96.5521 186.982H89.6555V193.879H96.5521V186.982Z" fill="white"/>
<path id="Vector_208" d="M103.449 7.67188H96.5524V14.5685H103.449V7.67188Z" fill="white"/>
<path id="Vector_209" d="M103.449 14.5674H96.5524V21.464H103.449V14.5674Z" fill="white"/>
<path id="Vector_210" d="M103.449 21.4648H96.5524V28.3614H103.449V21.4648Z" fill="white"/>
<path id="Vector_211" d="M103.449 28.3604H96.5524V35.2569H103.449V28.3604Z" fill="white"/>
<path id="Vector_212" d="M103.449 42.1533H96.5524V49.0499H103.449V42.1533Z" fill="white"/>
<path id="Vector_213" d="M103.449 49.0508H96.5524V55.9474H103.449V49.0508Z" fill="white"/>
<path id="Vector_214" d="M103.449 55.9463H96.5524V62.8429H103.449V55.9463Z" fill="white"/>
<path id="Vector_215" d="M103.449 62.8438H96.5524V69.7403H103.449V62.8438Z" fill="white"/>
<path id="Vector_216" d="M103.449 97.3271H96.5524V104.224H103.449V97.3271Z" fill="white"/>
<path id="Vector_217" d="M103.449 104.223H96.5524V111.119H103.449V104.223Z" fill="white"/>
<path id="Vector_218" d="M103.449 111.12H96.5524V118.017H103.449V111.12Z" fill="white"/>
<path id="Vector_219" d="M103.449 118.016H96.5524V124.912H103.449V118.016Z" fill="white"/>
<path id="Vector_220" d="M103.449 152.499H96.5524V159.396H103.449V152.499Z" fill="white"/>
<path id="Vector_221" d="M103.449 159.396H96.5524V166.293H103.449V159.396Z" fill="white"/>
<path id="Vector_222" d="M103.449 166.292H96.5524V173.189H103.449V166.292Z" fill="white"/>
<path id="Vector_223" d="M103.449 173.189H96.5524V180.086H103.449V173.189Z" fill="white"/>
<path id="Vector_224" d="M103.449 186.982H96.5524V193.879H103.449V186.982Z" fill="white"/>
<path id="Vector_225" d="M103.449 193.878H96.5524V200.774H103.449V193.878Z" fill="white"/>
<path id="Vector_226" d="M110.345 7.67188H103.449V14.5685H110.345V7.67188Z" fill="white"/>
<path id="Vector_227" d="M110.345 21.4648H103.449V28.3614H110.345V21.4648Z" fill="white"/>
<path id="Vector_228" d="M110.345 55.9463H103.449V62.8429H110.345V55.9463Z" fill="white"/>
<path id="Vector_229" d="M110.345 62.8438H103.449V69.7403H110.345V62.8438Z" fill="white"/>
<path id="Vector_230" d="M110.345 76.6367H103.449V83.5333H110.345V76.6367Z" fill="white"/>
<path id="Vector_231" d="M110.345 90.4297H103.449V97.3263H110.345V90.4297Z" fill="white"/>
<path id="Vector_232" d="M110.345 97.3271H103.449V104.224H110.345V97.3271Z" fill="white"/>
<path id="Vector_233" d="M110.345 111.12H103.449V118.017H110.345V111.12Z" fill="white"/>
<path id="Vector_234" d="M110.345 118.016H103.449V124.912H110.345V118.016Z" fill="white"/>
<path id="Vector_235" d="M110.345 131.809H103.449V138.705H110.345V131.809Z" fill="white"/>
<path id="Vector_236" d="M110.345 145.604H103.449V152.5H110.345V145.604Z" fill="white"/>
<path id="Vector_237" d="M110.345 152.499H103.449V159.396H110.345V152.499Z" fill="white"/>
<path id="Vector_238" d="M110.345 166.292H103.449V173.189H110.345V166.292Z" fill="white"/>
<path id="Vector_239" d="M110.345 173.189H103.449V180.086H110.345V173.189Z" fill="white"/>
<path id="Vector_240" d="M110.345 186.982H103.449V193.879H110.345V186.982Z" fill="white"/>
<path id="Vector_241" d="M117.242 0.774414H110.345V7.67099H117.242V0.774414Z" fill="white"/>
<path id="Vector_242" d="M117.242 7.67188H110.345V14.5685H117.242V7.67188Z" fill="white"/>
<path id="Vector_243" d="M117.242 14.5674H110.345V21.464H117.242V14.5674Z" fill="white"/>
<path id="Vector_244" d="M117.242 42.1533H110.345V49.0499H117.242V42.1533Z" fill="white"/>
<path id="Vector_245" d="M117.242 49.0508H110.345V55.9474H117.242V49.0508Z" fill="white"/>
<path id="Vector_246" d="M117.242 83.5322H110.345V90.4288H117.242V83.5322Z" fill="white"/>
<path id="Vector_247" d="M117.242 90.4297H110.345V97.3263H117.242V90.4297Z" fill="white"/>
<path id="Vector_248" d="M117.242 97.3271H110.345V104.224H117.242V97.3271Z" fill="white"/>
<path id="Vector_249" d="M117.242 104.223H110.345V111.119H117.242V104.223Z" fill="white"/>
<path id="Vector_250" d="M117.242 138.706H110.345V145.603H117.242V138.706Z" fill="white"/>
<path id="Vector_251" d="M117.242 145.604H110.345V152.5H117.242V145.604Z" fill="white"/>
<path id="Vector_252" d="M117.242 152.499H110.345V159.396H117.242V152.499Z" fill="white"/>
<path id="Vector_253" d="M117.242 159.396H110.345V166.293H117.242V159.396Z" fill="white"/>
<path id="Vector_254" d="M117.242 193.878H110.345V200.774H117.242V193.878Z" fill="white"/>
<path id="Vector_255" d="M124.139 35.2578H117.242V42.1544H124.139V35.2578Z" fill="white"/>
<path id="Vector_256" d="M124.139 49.0508H117.242V55.9474H124.139V49.0508Z" fill="white"/>
<path id="Vector_257" d="M124.139 62.8438H117.242V69.7403H124.139V62.8438Z" fill="white"/>
<path id="Vector_258" d="M124.139 69.7412H117.242V76.6378H124.139V69.7412Z" fill="white"/>
<path id="Vector_259" d="M124.139 76.6367H117.242V83.5333H124.139V76.6367Z" fill="white"/>
<path id="Vector_260" d="M124.139 97.3271H117.242V104.224H124.139V97.3271Z" fill="white"/>
<path id="Vector_261" d="M124.139 104.223H117.242V111.119H124.139V104.223Z" fill="white"/>
<path id="Vector_262" d="M124.139 118.016H117.242V124.912H124.139V118.016Z" fill="white"/>
<path id="Vector_263" d="M124.139 131.809H117.242V138.705H124.139V131.809Z" fill="white"/>
<path id="Vector_264" d="M124.139 145.604H117.242V152.5H124.139V145.604Z" fill="white"/>
<path id="Vector_265" d="M124.139 159.396H117.242V166.293H124.139V159.396Z" fill="white"/>
<path id="Vector_266" d="M124.139 180.085H117.242V186.982H124.139V180.085Z" fill="white"/>
<path id="Vector_267" d="M131.035 14.5674H124.138V21.464H131.035V14.5674Z" fill="white"/>
<path id="Vector_268" d="M131.035 28.3604H124.138V35.2569H131.035V28.3604Z" fill="white"/>
<path id="Vector_269" d="M131.035 42.1533H124.138V49.0499H131.035V42.1533Z" fill="white"/>
<path id="Vector_270" d="M131.035 69.7412H124.138V76.6378H131.035V69.7412Z" fill="white"/>
<path id="Vector_271" d="M131.035 76.6367H124.138V83.5333H131.035V76.6367Z" fill="white"/>
<path id="Vector_272" d="M131.035 104.223H124.138V111.119H131.035V104.223Z" fill="white"/>
<path id="Vector_273" d="M131.035 159.396H124.138V166.293H131.035V159.396Z" fill="white"/>
<path id="Vector_274" d="M131.035 166.292H124.138V173.189H131.035V166.292Z" fill="white"/>
<path id="Vector_275" d="M137.932 7.67188H131.035V14.5685H137.932V7.67188Z" fill="white"/>
<path id="Vector_276" d="M137.932 21.4648H131.035V28.3614H137.932V21.4648Z" fill="white"/>
<path id="Vector_277" d="M137.932 35.2578H131.035V42.1544H137.932V35.2578Z" fill="white"/>
<path id="Vector_278" d="M137.932 49.0508H131.035V55.9474H137.932V49.0508Z" fill="white"/>
<path id="Vector_279" d="M137.932 90.4297H131.035V97.3263H137.932V90.4297Z" fill="white"/>
<path id="Vector_280" d="M137.932 97.3271H131.035V104.224H137.932V97.3271Z" fill="white"/>
<path id="Vector_281" d="M137.932 104.223H131.035V111.119H137.932V104.223Z" fill="white"/>
<path id="Vector_282" d="M137.932 118.016H131.035V124.912H137.932V118.016Z" fill="white"/>
<path id="Vector_283" d="M137.932 124.913H131.035V131.81H137.932V124.913Z" fill="white"/>
<path id="Vector_284" d="M137.932 138.706H131.035V145.603H137.932V138.706Z" fill="white"/>
<path id="Vector_285" d="M137.932 152.499H131.035V159.396H137.932V152.499Z" fill="white"/>
<path id="Vector_286" d="M137.932 159.396H131.035V166.293H137.932V159.396Z" fill="white"/>
<path id="Vector_287" d="M137.932 166.292H131.035V173.189H137.932V166.292Z" fill="white"/>
<path id="Vector_288" d="M137.932 173.189H131.035V180.086H137.932V173.189Z" fill="white"/>
<path id="Vector_289" d="M137.932 193.878H131.035V200.774H137.932V193.878Z" fill="white"/>
<path id="Vector_290" d="M144.828 7.67188H137.932V14.5685H144.828V7.67188Z" fill="white"/>
<path id="Vector_291" d="M144.828 14.5674H137.932V21.464H144.828V14.5674Z" fill="white"/>
<path id="Vector_292" d="M144.828 21.4648H137.932V28.3614H144.828V21.4648Z" fill="white"/>
<path id="Vector_293" d="M144.828 42.1533H137.932V49.0499H144.828V42.1533Z" fill="white"/>
<path id="Vector_294" d="M144.828 55.9463H137.932V62.8429H144.828V55.9463Z" fill="white"/>
<path id="Vector_295" d="M144.828 69.7412H137.932V76.6378H144.828V69.7412Z" fill="white"/>
<path id="Vector_296" d="M144.828 83.5322H137.932V90.4288H144.828V83.5322Z" fill="white"/>
<path id="Vector_297" d="M144.828 118.016H137.932V124.912H144.828V118.016Z" fill="white"/>
<path id="Vector_298" d="M144.828 124.913H137.932V131.81H144.828V124.913Z" fill="white"/>
<path id="Vector_299" d="M144.828 131.809H137.932V138.705H144.828V131.809Z" fill="white"/>
<path id="Vector_300" d="M144.828 138.706H137.932V145.603H144.828V138.706Z" fill="white"/>
<path id="Vector_301" d="M144.828 145.604H137.932V152.5H144.828V145.604Z" fill="white"/>
<path id="Vector_302" d="M144.828 152.499H137.932V159.396H144.828V152.499Z" fill="white"/>
<path id="Vector_303" d="M144.828 159.396H137.932V166.293H144.828V159.396Z" fill="white"/>
<path id="Vector_304" d="M144.828 166.292H137.932V173.189H144.828V166.292Z" fill="white"/>
<path id="Vector_305" d="M144.828 180.085H137.932V186.982H144.828V180.085Z" fill="white"/>
<path id="Vector_306" d="M151.725 76.6367H144.828V83.5333H151.725V76.6367Z" fill="white"/>
<path id="Vector_307" d="M151.725 90.4297H144.828V97.3263H151.725V90.4297Z" fill="white"/>
<path id="Vector_308" d="M151.725 104.223H144.828V111.119H151.725V104.223Z" fill="white"/>
<path id="Vector_309" d="M151.725 111.12H144.828V118.017H151.725V111.12Z" fill="white"/>
<path id="Vector_310" d="M151.725 131.809H144.828V138.705H151.725V131.809Z" fill="white"/>
<path id="Vector_311" d="M151.725 138.706H144.828V145.603H151.725V138.706Z" fill="white"/>
<path id="Vector_312" d="M151.725 166.292H144.828V173.189H151.725V166.292Z" fill="white"/>
<path id="Vector_313" d="M151.725 173.189H144.828V180.086H151.725V173.189Z" fill="white"/>
<path id="Vector_314" d="M151.725 186.982H144.828V193.879H151.725V186.982Z" fill="white"/>
<path id="Vector_315" d="M158.621 0.774414H151.725V7.67099H158.621V0.774414Z" fill="white"/>
<path id="Vector_316" d="M158.621 7.67188H151.725V14.5685H158.621V7.67188Z" fill="white"/>
<path id="Vector_317" d="M158.621 14.5674H151.725V21.464H158.621V14.5674Z" fill="white"/>
<path id="Vector_318" d="M158.621 21.4648H151.725V28.3614H158.621V21.4648Z" fill="white"/>
<path id="Vector_319" d="M158.621 28.3604H151.725V35.2569H158.621V28.3604Z" fill="white"/>
<path id="Vector_320" d="M158.621 35.2578H151.725V42.1544H158.621V35.2578Z" fill="white"/>
<path id="Vector_321" d="M158.621 42.1533H151.725V49.0499H158.621V42.1533Z" fill="white"/>
<path id="Vector_322" d="M158.621 62.8438H151.725V69.7403H158.621V62.8438Z" fill="white"/>
<path id="Vector_323" d="M158.621 69.7412H151.725V76.6378H158.621V69.7412Z" fill="white"/>
<path id="Vector_324" d="M158.621 83.5322H151.725V90.4288H158.621V83.5322Z" fill="white"/>
<path id="Vector_325" d="M158.621 90.4297H151.725V97.3263H158.621V90.4297Z" fill="white"/>
<path id="Vector_326" d="M158.621 97.3271H151.725V104.224H158.621V97.3271Z" fill="white"/>
<path id="Vector_327" d="M158.621 124.913H151.725V131.81H158.621V124.913Z" fill="white"/>
<path id="Vector_328" d="M158.621 138.706H151.725V145.603H158.621V138.706Z" fill="white"/>
<path id="Vector_329" d="M158.621 152.499H151.725V159.396H158.621V152.499Z" fill="white"/>
<path id="Vector_330" d="M158.621 166.292H151.725V173.189H158.621V166.292Z" fill="white"/>
<path id="Vector_331" d="M158.621 173.189H151.725V180.086H158.621V173.189Z" fill="white"/>
<path id="Vector_332" d="M158.621 193.878H151.725V200.774H158.621V193.878Z" fill="white"/>
<path id="Vector_333" d="M165.518 0.774414H158.622V7.67099H165.518V0.774414Z" fill="white"/>
<path id="Vector_334" d="M165.518 42.1533H158.622V49.0499H165.518V42.1533Z" fill="white"/>
<path id="Vector_335" d="M165.518 62.8438H158.622V69.7403H165.518V62.8438Z" fill="white"/>
<path id="Vector_336" d="M165.518 76.6367H158.622V83.5333H165.518V76.6367Z" fill="white"/>
<path id="Vector_337" d="M165.518 83.5322H158.622V90.4288H165.518V83.5322Z" fill="white"/>
<path id="Vector_338" d="M165.518 97.3271H158.622V104.224H165.518V97.3271Z" fill="white"/>
<path id="Vector_339" d="M165.518 111.12H158.622V118.017H165.518V111.12Z" fill="white"/>
<path id="Vector_340" d="M165.518 118.016H158.622V124.912H165.518V118.016Z" fill="white"/>
<path id="Vector_341" d="M165.518 131.809H158.622V138.705H165.518V131.809Z" fill="white"/>
<path id="Vector_342" d="M165.518 138.706H158.622V145.603H165.518V138.706Z" fill="white"/>
<path id="Vector_343" d="M165.518 166.292H158.622V173.189H165.518V166.292Z" fill="white"/>
<path id="Vector_344" d="M165.518 180.085H158.622V186.982H165.518V180.085Z" fill="white"/>
<path id="Vector_345" d="M165.518 186.982H158.622V193.879H165.518V186.982Z" fill="white"/>
<path id="Vector_346" d="M172.414 0.774414H165.518V7.67099H172.414V0.774414Z" fill="white"/>
<path id="Vector_347" d="M172.414 14.5674H165.518V21.464H172.414V14.5674Z" fill="white"/>
<path id="Vector_348" d="M172.414 21.4648H165.518V28.3614H172.414V21.4648Z" fill="white"/>
<path id="Vector_349" d="M172.414 28.3604H165.518V35.2569H172.414V28.3604Z" fill="white"/>
<path id="Vector_350" d="M172.414 42.1533H165.518V49.0499H172.414V42.1533Z" fill="white"/>
<path id="Vector_351" d="M172.414 55.9463H165.518V62.8429H172.414V55.9463Z" fill="white"/>
<path id="Vector_352" d="M172.414 62.8438H165.518V69.7403H172.414V62.8438Z" fill="white"/>
<path id="Vector_353" d="M172.414 69.7412H165.518V76.6378H172.414V69.7412Z" fill="white"/>
<path id="Vector_354" d="M172.414 83.5322H165.518V90.4288H172.414V83.5322Z" fill="white"/>
<path id="Vector_355" d="M172.414 90.4297H165.518V97.3263H172.414V90.4297Z" fill="white"/>
<path id="Vector_356" d="M172.414 97.3271H165.518V104.224H172.414V97.3271Z" fill="white"/>
<path id="Vector_357" d="M172.414 104.223H165.518V111.119H172.414V104.223Z" fill="white"/>
<path id="Vector_358" d="M172.414 118.016H165.518V124.912H172.414V118.016Z" fill="white"/>
<path id="Vector_359" d="M172.414 124.913H165.518V131.81H172.414V124.913Z" fill="white"/>
<path id="Vector_360" d="M172.414 138.706H165.518V145.603H172.414V138.706Z" fill="white"/>
<path id="Vector_361" d="M172.414 145.604H165.518V152.5H172.414V145.604Z" fill="white"/>
<path id="Vector_362" d="M172.414 152.499H165.518V159.396H172.414V152.499Z" fill="white"/>
<path id="Vector_363" d="M172.414 159.396H165.518V166.293H172.414V159.396Z" fill="white"/>
<path id="Vector_364" d="M172.414 166.292H165.518V173.189H172.414V166.292Z" fill="white"/>
<path id="Vector_365" d="M172.414 193.878H165.518V200.774H172.414V193.878Z" fill="white"/>
<path id="Vector_366" d="M179.311 0.774414H172.415V7.67099H179.311V0.774414Z" fill="white"/>
<path id="Vector_367" d="M179.311 14.5674H172.415V21.464H179.311V14.5674Z" fill="white"/>
<path id="Vector_368" d="M179.311 21.4648H172.415V28.3614H179.311V21.4648Z" fill="white"/>
<path id="Vector_369" d="M179.311 28.3604H172.415V35.2569H179.311V28.3604Z" fill="white"/>
<path id="Vector_370" d="M179.311 42.1533H172.415V49.0499H179.311V42.1533Z" fill="white"/>
<path id="Vector_371" d="M179.311 62.8438H172.415V69.7403H179.311V62.8438Z" fill="white"/>
<path id="Vector_372" d="M179.311 76.6367H172.415V83.5333H179.311V76.6367Z" fill="white"/>
<path id="Vector_373" d="M179.311 83.5322H172.415V90.4288H179.311V83.5322Z" fill="white"/>
<path id="Vector_374" d="M179.311 97.3271H172.415V104.224H179.311V97.3271Z" fill="white"/>
<path id="Vector_375" d="M179.311 111.12H172.415V118.017H179.311V111.12Z" fill="white"/>
<path id="Vector_376" d="M179.311 118.016H172.415V124.912H179.311V118.016Z" fill="white"/>
<path id="Vector_377" d="M179.311 131.809H172.415V138.705H179.311V131.809Z" fill="white"/>
<path id="Vector_378" d="M179.311 138.706H172.415V145.603H179.311V138.706Z" fill="white"/>
<path id="Vector_379" d="M179.311 145.604H172.415V152.5H179.311V145.604Z" fill="white"/>
<path id="Vector_380" d="M179.311 152.499H172.415V159.396H179.311V152.499Z" fill="white"/>
<path id="Vector_381" d="M179.311 166.292H172.415V173.189H179.311V166.292Z" fill="white"/>
<path id="Vector_382" d="M179.311 173.189H172.415V180.086H179.311V173.189Z" fill="white"/>
<path id="Vector_383" d="M179.311 186.982H172.415V193.879H179.311V186.982Z" fill="white"/>
<path id="Vector_384" d="M179.311 193.878H172.415V200.774H179.311V193.878Z" fill="white"/>
<path id="Vector_385" d="M186.208 0.774414H179.311V7.67099H186.208V0.774414Z" fill="white"/>
<path id="Vector_386" d="M186.208 14.5674H179.311V21.464H186.208V14.5674Z" fill="white"/>
<path id="Vector_387" d="M186.208 21.4648H179.311V28.3614H186.208V21.4648Z" fill="white"/>
<path id="Vector_388" d="M186.208 28.3604H179.311V35.2569H186.208V28.3604Z" fill="white"/>
<path id="Vector_389" d="M186.208 42.1533H179.311V49.0499H186.208V42.1533Z" fill="white"/>
<path id="Vector_390" d="M186.208 69.7412H179.311V76.6378H186.208V69.7412Z" fill="white"/>
<path id="Vector_391" d="M186.208 76.6367H179.311V83.5333H186.208V76.6367Z" fill="white"/>
<path id="Vector_392" d="M186.208 83.5322H179.311V90.4288H186.208V83.5322Z" fill="white"/>
<path id="Vector_393" d="M186.208 97.3271H179.311V104.224H186.208V97.3271Z" fill="white"/>
<path id="Vector_394" d="M186.208 104.223H179.311V111.119H186.208V104.223Z" fill="white"/>
<path id="Vector_395" d="M186.208 111.12H179.311V118.017H186.208V111.12Z" fill="white"/>
<path id="Vector_396" d="M186.208 124.913H179.311V131.81H186.208V124.913Z" fill="white"/>
<path id="Vector_397" d="M186.208 131.809H179.311V138.705H186.208V131.809Z" fill="white"/>
<path id="Vector_398" d="M186.208 152.499H179.311V159.396H186.208V152.499Z" fill="white"/>
<path id="Vector_399" d="M186.208 159.396H179.311V166.293H186.208V159.396Z" fill="white"/>
<path id="Vector_400" d="M186.208 166.292H179.311V173.189H186.208V166.292Z" fill="white"/>
<path id="Vector_401" d="M186.208 180.085H179.311V186.982H186.208V180.085Z" fill="white"/>
<path id="Vector_402" d="M186.208 186.982H179.311V193.879H186.208V186.982Z" fill="white"/>
<path id="Vector_403" d="M193.104 0.774414H186.207V7.67099H193.104V0.774414Z" fill="white"/>
<path id="Vector_404" d="M193.104 42.1533H186.207V49.0499H193.104V42.1533Z" fill="white"/>
<path id="Vector_405" d="M193.104 55.9463H186.207V62.8429H193.104V55.9463Z" fill="white"/>
<path id="Vector_406" d="M193.104 69.7412H186.207V76.6378H193.104V69.7412Z" fill="white"/>
<path id="Vector_407" d="M193.104 83.5322H186.207V90.4288H193.104V83.5322Z" fill="white"/>
<path id="Vector_408" d="M193.104 138.706H186.207V145.603H193.104V138.706Z" fill="white"/>
<path id="Vector_409" d="M193.104 145.604H186.207V152.5H193.104V145.604Z" fill="white"/>
<path id="Vector_410" d="M193.104 152.499H186.207V159.396H193.104V152.499Z" fill="white"/>
<path id="Vector_411" d="M193.104 159.396H186.207V166.293H193.104V159.396Z" fill="white"/>
<path id="Vector_412" d="M193.104 166.292H186.207V173.189H193.104V166.292Z" fill="white"/>
<path id="Vector_413" d="M193.104 186.982H186.207V193.879H193.104V186.982Z" fill="white"/>
<path id="Vector_414" d="M193.104 193.878H186.207V200.774H193.104V193.878Z" fill="white"/>
<path id="Vector_415" d="M200.001 0.774414H193.104V7.67099H200.001V0.774414Z" fill="white"/>
<path id="Vector_416" d="M200.001 7.67188H193.104V14.5685H200.001V7.67188Z" fill="white"/>
<path id="Vector_417" d="M200.001 14.5674H193.104V21.464H200.001V14.5674Z" fill="white"/>
<path id="Vector_418" d="M200.001 21.4648H193.104V28.3614H200.001V21.4648Z" fill="white"/>
<path id="Vector_419" d="M200.001 28.3604H193.104V35.2569H200.001V28.3604Z" fill="white"/>
<path id="Vector_420" d="M200.001 35.2578H193.104V42.1544H200.001V35.2578Z" fill="white"/>
<path id="Vector_421" d="M200.001 42.1533H193.104V49.0499H200.001V42.1533Z" fill="white"/>
<path id="Vector_422" d="M200.001 76.6367H193.104V83.5333H200.001V76.6367Z" fill="white"/>
<path id="Vector_423" d="M200.001 90.4297H193.104V97.3263H200.001V90.4297Z" fill="white"/>
<path id="Vector_424" d="M200.001 104.223H193.104V111.119H200.001V104.223Z" fill="white"/>
<path id="Vector_425" d="M200.001 118.016H193.104V124.912H200.001V118.016Z" fill="white"/>
<path id="Vector_426" d="M200.001 131.809H193.104V138.705H200.001V131.809Z" fill="white"/>
<path id="Vector_427" d="M200.001 145.604H193.104V152.5H200.001V145.604Z" fill="white"/>
<path id="Vector_428" d="M200.001 180.085H193.104V186.982H200.001V180.085Z" fill="white"/>
<path id="Vector_429" d="M200.001 193.878H193.104V200.774H200.001V193.878Z" fill="white"/>
</g>
</g>
</g>
</g>
</g>
</svg>
