<svg width="24" height="25" viewBox="0 0 24 25" fill="none" xmlns="http://www.w3.org/2000/svg">
<path fill-rule="evenodd" clip-rule="evenodd" d="M1.25 5.77417C1.25 3.7031 2.92893 2.02417 5 2.02417H19C21.0711 2.02417 22.75 3.7031 22.75 5.77417C22.75 7.00087 22.161 8.09 21.2504 8.77417C22.161 9.45834 22.75 10.5475 22.75 11.7742C22.75 13.8452 21.0711 15.5242 19 15.5242H12.75V17.1277C13.6658 17.3867 14.3875 18.1083 14.6465 19.0242H22C22.4142 19.0242 22.75 19.36 22.75 19.7742C22.75 20.1884 22.4142 20.5242 22 20.5242H14.6465C14.32 21.6784 13.2588 22.5242 12 22.5242C10.7412 22.5242 9.67998 21.6784 9.35352 20.5242H2C1.58579 20.5242 1.25 20.1884 1.25 19.7742C1.25 19.36 1.58579 19.0242 2 19.0242H9.35352C9.61255 18.1083 10.3342 17.3867 11.25 17.1277V15.5242H5C2.92893 15.5242 1.25 13.8452 1.25 11.7742C1.25 10.5475 1.83901 9.45834 2.74963 8.77417C1.83901 8.09 1.25 7.00087 1.25 5.77417ZM5 8.02417C3.75736 8.02417 2.75 7.01681 2.75 5.77417C2.75 4.53153 3.75736 3.52417 5 3.52417H19C20.2426 3.52417 21.25 4.53153 21.25 5.77417C21.25 7.01681 20.2426 8.02417 19 8.02417H5ZM19 9.52417H5C3.75736 9.52417 2.75 10.5315 2.75 11.7742C2.75 13.0168 3.75736 14.0242 5 14.0242H19C20.2426 14.0242 21.25 13.0168 21.25 11.7742C21.25 10.5315 20.2426 9.52417 19 9.52417ZM12.25 5.77417C12.25 5.35996 12.5858 5.02417 13 5.02417H19C19.4142 5.02417 19.75 5.35996 19.75 5.77417C19.75 6.18838 19.4142 6.52417 19 6.52417H13C12.5858 6.52417 12.25 6.18838 12.25 5.77417ZM12.25 11.7742C12.25 11.36 12.5858 11.0242 13 11.0242H19C19.4142 11.0242 19.75 11.36 19.75 11.7742C19.75 12.1884 19.4142 12.5242 19 12.5242H13C12.5858 12.5242 12.25 12.1884 12.25 11.7742ZM12 18.5242C11.3096 18.5242 10.75 19.0838 10.75 19.7742C10.75 20.4645 11.3096 21.0242 12 21.0242C12.6904 21.0242 13.25 20.4645 13.25 19.7742C13.25 19.0838 12.6904 18.5242 12 18.5242Z" fill="currentColor"/>
<path d="M7 5.77417C7 6.32645 6.55228 6.77417 6 6.77417C5.44772 6.77417 5 6.32645 5 5.77417C5 5.22189 5.44772 4.77417 6 4.77417C6.55228 4.77417 7 5.22189 7 5.77417Z" fill="currentColor"/>
<path d="M7 11.7742C7 12.3265 6.55228 12.7742 6 12.7742C5.44772 12.7742 5 12.3265 5 11.7742C5 11.2219 5.44772 10.7742 6 10.7742C6.55228 10.7742 7 11.2219 7 11.7742Z" fill="currentColor"/>
</svg>
