<svg width="24" height="25" viewBox="0 0 24 25" fill="none" xmlns="http://www.w3.org/2000/svg">
<path fill-rule="evenodd" clip-rule="evenodd" d="M19.9226 4.51238C19.4876 4.35201 19.0104 4.2474 18.4891 4.17731C17.3498 4.02414 15.8942 4.02415 14.0565 4.02417H14.0564H9.94361H9.9436C8.10585 4.02415 6.65022 4.02414 5.51101 4.17731C4.33859 4.33493 3.38964 4.66705 2.64127 5.41541C1.89291 6.16378 1.56079 7.11273 1.40317 8.28515C1.3127 8.95802 1.27567 9.74128 1.26052 10.6485C1.25362 10.6893 1.25003 10.7313 1.25003 10.7742C1.25003 10.8094 1.25246 10.8441 1.25717 10.878C1.25002 11.4438 1.25003 12.056 1.25003 12.7177V12.7178V12.8306V12.8306C1.25002 14.6684 1.25 16.124 1.40317 17.2632C1.56079 18.4356 1.89291 19.3846 2.64127 20.1329C2.93335 20.425 3.25597 20.6537 3.61051 20.8333L4.75906 19.6841C4.29893 19.5392 3.96923 19.3396 3.70193 19.0723C3.27872 18.6491 3.02506 18.0694 2.88979 17.0633C2.75162 16.0357 2.75003 14.681 2.75003 12.7742C2.75003 12.3283 2.75012 11.9126 2.75202 11.5242H12.9146L14.4138 10.0242H2.77611C2.79567 9.43744 2.8299 8.93051 2.88979 8.48502C3.02506 7.47893 3.27872 6.89928 3.70193 6.47607C4.12514 6.05286 4.70479 5.79919 5.71088 5.66393C6.73854 5.52576 8.09321 5.52417 10 5.52417H14C15.9069 5.52417 17.2615 5.52576 18.2892 5.66393C18.4365 5.68373 18.5747 5.70608 18.7045 5.73112L19.9226 4.51238ZM20.2109 6.39328L21.2724 5.33173C21.3015 5.35903 21.3303 5.38692 21.3588 5.41541C22.1072 6.16378 22.4393 7.11273 22.5969 8.28515C22.6874 8.95802 22.7244 9.74127 22.7395 10.6484C22.7464 10.6893 22.75 10.7313 22.75 10.7742C22.75 10.8094 22.7476 10.8441 22.7429 10.8781C22.75 11.4438 22.75 12.0559 22.75 12.7176V12.7178V12.8306V12.8306C22.75 14.6684 22.7501 16.124 22.5969 17.2632C22.4393 18.4356 22.1072 19.3846 21.3588 20.1329C20.6104 20.8813 19.6615 21.2134 18.4891 21.371C17.3498 21.5242 15.8942 21.5242 14.0565 21.5242H14.0564H9.94362H9.94357C8.10583 21.5242 6.65021 21.5242 5.51101 21.371C5.42918 21.36 5.34843 21.3482 5.26877 21.3354L6.63415 19.97C7.52256 20.0233 8.61581 20.0242 10 20.0242H14C15.9069 20.0242 17.2615 20.0226 18.2892 19.8844C19.2953 19.7491 19.8749 19.4955 20.2981 19.0723C20.7213 18.6491 20.975 18.0694 21.1103 17.0633C21.2484 16.0357 21.25 14.681 21.25 12.7742C21.25 12.3283 21.2499 11.9126 21.248 11.5242H15.08L16.58 10.0242H21.224C21.2044 9.43744 21.1702 8.93051 21.1103 8.48502C20.975 7.47893 20.7213 6.89928 20.2981 6.47607C20.2698 6.44772 20.2407 6.42013 20.2109 6.39328ZM8.41705 16.0242H6.00003C5.58582 16.0242 5.25003 16.36 5.25003 16.7742C5.25003 17.1884 5.58582 17.5242 6.00003 17.5242H6.91786L8.41705 16.0242ZM9.07999 17.5242L10.4385 16.1656C10.6272 16.3019 10.75 16.5237 10.75 16.7742C10.75 17.1884 10.4142 17.5242 10 17.5242H9.07999ZM12.5 16.0242C12.0858 16.0242 11.75 16.36 11.75 16.7742C11.75 17.1884 12.0858 17.5242 12.5 17.5242H14C14.4142 17.5242 14.75 17.1884 14.75 16.7742C14.75 16.36 14.4142 16.0242 14 16.0242H12.5Z" fill="currentColor"/>
<path d="M21.77 4.08423L20.61 5.24423L16.33 9.52423L3.31 22.5442C3.16 22.6942 2.97 22.7742 2.77 22.7742C2.57 22.7742 2.38 22.6942 2.23 22.5442C1.92 22.2442 1.92 21.7642 2.23 21.4642L3.38 20.3142L5.73 17.9642L19.27 4.42423L20.69 3.00423C20.99 2.69423 21.47 2.69423 21.77 3.00423C22.08 3.30423 22.08 3.78423 21.77 4.08423Z" fill="currentColor"/>
</svg>
