<svg width="24" height="25" viewBox="0 0 24 25" fill="none" xmlns="http://www.w3.org/2000/svg">
<path d="M12 23.5242C11.3 23.5242 10.59 23.2541 10.06 22.7241L8.35001 21.0342C7.92001 20.6142 7.35999 20.3842 6.75999 20.3842H6C3.93 20.3842 2.25 18.7142 2.25 16.6642V5.75415C2.25 3.70415 3.93 2.03418 6 2.03418H18C20.07 2.03418 21.75 3.70415 21.75 5.75415V16.6642C21.75 18.7142 20.07 20.3842 18 20.3842H17.24C16.64 20.3842 16.07 20.6142 15.65 21.0342L13.94 22.7241C13.41 23.2541 12.7 23.5242 12 23.5242ZM6 3.52417C4.76 3.52417 3.75 4.52414 3.75 5.74414V16.6542C3.75 17.8842 4.76 18.8741 6 18.8741H6.75999C7.75999 18.8741 8.7 19.2641 9.41 19.9641L11.12 21.6542C11.61 22.1342 12.4 22.1342 12.89 21.6542L14.6 19.9641C15.31 19.2641 16.25 18.8741 17.25 18.8741H18C19.24 18.8741 20.25 17.8742 20.25 16.6542V5.74414C20.25 4.51414 19.24 3.52417 18 3.52417H6Z" fill="currentColor"/>
<path d="M10.3802 15.2842H7.70023C7.26023 15.2842 6.85023 15.0741 6.59023 14.7141C6.34023 14.3741 6.28022 13.9542 6.40022 13.5542C6.75022 12.4842 7.61022 11.9042 8.37022 11.3842C9.17022 10.8442 9.62022 10.5042 9.62022 9.92419C9.62022 9.40419 9.20022 8.98413 8.68022 8.98413C8.16022 8.98413 7.74023 9.40419 7.74023 9.92419C7.74023 10.3342 7.40023 10.6742 6.99023 10.6742C6.58023 10.6742 6.24023 10.3342 6.24023 9.92419C6.24023 8.58419 7.33022 7.48413 8.68022 7.48413C10.0302 7.48413 11.1202 8.57419 11.1202 9.92419C11.1202 11.3342 10.0602 12.0542 9.21024 12.6342C8.68024 12.9942 8.18022 13.3342 7.93022 13.7842H10.3702C10.7802 13.7842 11.1202 14.1242 11.1202 14.5342C11.1202 14.9442 10.7902 15.2842 10.3802 15.2842Z" fill="currentColor"/>
<path d="M16.0399 15.2844C15.6299 15.2844 15.2899 14.9444 15.2899 14.5344V13.8443H13.3299C13.3299 13.8443 13.3299 13.8443 13.3199 13.8443C12.8299 13.8443 12.3799 13.5844 12.1299 13.1644C11.8799 12.7344 11.8799 12.2044 12.1299 11.7844C12.8099 10.6144 13.5999 9.28433 14.3199 8.12433C14.6399 7.61433 15.2499 7.38437 15.8199 7.54437C16.3899 7.71437 16.7899 8.23441 16.7799 8.83441V12.3543H16.9999C17.4099 12.3543 17.7499 12.6943 17.7499 13.1043C17.7499 13.5143 17.4099 13.8543 16.9999 13.8543H16.7899V14.5444C16.7899 14.9544 16.4599 15.2844 16.0399 15.2844ZM15.2899 9.41436C14.6999 10.3744 14.0899 11.4043 13.5399 12.3443H15.2899V9.41436Z" fill="currentColor"/>
</svg>
