<svg width="24" height="25" viewBox="0 0 24 25" fill="none" xmlns="http://www.w3.org/2000/svg">
<path fill-rule="evenodd" clip-rule="evenodd" d="M9.94358 3.35474H14.0564C15.8942 3.35472 17.3498 3.35471 18.489 3.51281C19.6614 3.67552 20.6104 4.01835 21.3588 4.79086C22.1071 5.56336 22.4392 6.54292 22.5969 7.75316C22.75 8.92913 22.75 10.4317 22.75 12.3288V12.4452C22.75 14.3423 22.75 15.8449 22.5969 17.0208C22.4392 18.2311 22.1071 19.2106 21.3588 19.9831C20.6104 20.7556 19.6614 21.0985 18.489 21.2612C17.3498 21.4193 15.8942 21.4193 14.0564 21.4193H9.94359C8.10583 21.4193 6.65019 21.4193 5.51098 21.2612C4.33856 21.0985 3.38961 20.7556 2.64124 19.9831C1.89288 19.2106 1.56076 18.2311 1.40314 17.0208C1.24997 15.8449 1.24998 14.3423 1.25 12.4452V12.3288C1.24998 10.4317 1.24997 8.92913 1.40314 7.75316C1.56076 6.54292 1.89288 5.56336 2.64124 4.79086C3.38961 4.01835 4.33856 3.67552 5.51098 3.51281C6.65019 3.35471 8.10582 3.35472 9.94358 3.35474ZM5.71085 5.04739C4.70476 5.18702 4.12511 5.44887 3.7019 5.88573C3.27869 6.3226 3.02502 6.92094 2.88976 7.95948C2.75159 9.0203 2.75 10.4187 2.75 12.387C2.75 14.3553 2.75159 15.7537 2.88976 16.8145C3.02502 17.8531 3.27869 18.4514 3.7019 18.8883C4.12511 19.3251 4.70476 19.587 5.71085 19.7266C6.73851 19.8692 8.09318 19.8709 10 19.8709H14C15.9068 19.8709 17.2615 19.8692 18.2892 19.7266C19.2952 19.587 19.8749 19.3251 20.2981 18.8883C20.7213 18.4514 20.975 17.853 21.1102 16.8145C21.2484 15.7537 21.25 14.3553 21.25 12.387C21.25 10.4187 21.2484 9.0203 21.1102 7.95948C20.975 6.92094 20.7213 6.3226 20.2981 5.88573C19.8749 5.44887 19.2952 5.18702 18.2892 5.04739C17.2615 4.90477 15.9068 4.90312 14 4.90312H10C8.09318 4.90312 6.73851 4.90477 5.71085 5.04739ZM5.42383 7.76234C5.68901 7.43386 6.16193 7.38948 6.48014 7.66321L8.63903 9.52033C9.57199 10.3229 10.2197 10.8783 10.7666 11.2413C11.2959 11.5928 11.6549 11.7107 12 11.7107C12.3451 11.7107 12.7041 11.5928 13.2334 11.2413C13.7803 10.8783 14.428 10.3229 15.361 9.52032L17.5199 7.66321C17.8381 7.38948 18.311 7.43386 18.5762 7.76234C18.8413 8.09081 18.7983 8.57899 18.4801 8.85271L16.2836 10.7422C15.3973 11.5047 14.6789 12.1227 14.0448 12.5436C13.3843 12.9821 12.7411 13.2591 12 13.2591C11.2589 13.2591 10.6157 12.9821 9.95518 12.5436C9.32112 12.1227 8.60272 11.5047 7.71636 10.7422L5.51986 8.85271C5.20165 8.57899 5.15866 8.09081 5.42383 7.76234Z" fill="currentColor"/>
</svg>
