<svg width="32" height="32" viewBox="0 0 32 32" fill="none" xmlns="http://www.w3.org/2000/svg">
<path fill-rule="evenodd" clip-rule="evenodd" d="M7.11111 9.25237C7.11111 10.4891 8.0472 11.3928 9.2019 11.3928C10.3568 11.3928 11.2929 10.4891 11.2929 9.25237C11.2929 8.01586 10.3568 7.11108 9.2019 7.11108C8.0472 7.11108 7.11111 8.01586 7.11111 9.25237ZM11.0151 13.0341V24.8797H7.38869V13.0341H11.0151Z" fill="currentColor"/>
<path d="M24.3852 24.8889H20.7586V18.419C20.7586 16.5101 19.9693 15.9213 18.9514 15.9213C17.8753 15.9213 16.8204 16.7541 16.8204 18.4665V24.8889H13.1939V13.0432H16.6816V14.6845C17.0325 13.9552 18.3036 12.7103 20.1748 12.7103C22.1984 12.7103 24.3852 13.9444 24.3852 17.5626V24.8889Z" fill="currentColor"/>
</svg>
