<svg width="24" height="24" viewBox="0 0 24 24" fill="none" xmlns="http://www.w3.org/2000/svg">
<path d="M13.2596 1.88008C13.3258 1.47119 13.7124 1.19381 14.1213 1.26001C14.1466 1.26485 14.228 1.28007 14.2707 1.28958C14.356 1.30858 14.475 1.33784 14.6234 1.38106C14.9202 1.46751 15.3348 1.60991 15.8324 1.83805C16.8287 2.2948 18.1545 3.09381 19.5303 4.46961C20.9061 5.84541 21.7051 7.17122 22.1619 8.1675C22.39 8.66511 22.5324 9.07972 22.6189 9.3765C22.6621 9.5249 22.6914 9.64393 22.7104 9.72926C22.7199 9.77193 22.7268 9.80619 22.7317 9.8315L22.7374 9.86269C22.8036 10.2716 22.5288 10.6741 22.1199 10.7403C21.7121 10.8063 21.328 10.5303 21.2602 10.1233C21.2581 10.1124 21.2524 10.083 21.2462 10.0553C21.2339 9.99994 21.2126 9.91212 21.1787 9.79597C21.1111 9.56363 20.9935 9.2183 20.7984 8.79262C20.4085 7.94232 19.7075 6.76813 18.4697 5.53027C17.2318 4.2924 16.0576 3.59141 15.2073 3.20158C14.7816 3.00642 14.4363 2.88889 14.204 2.82122C14.0878 2.78739 13.9418 2.75387 13.8864 2.74154C13.4795 2.67372 13.1936 2.2878 13.2596 1.88008Z" fill="currentColor"/>
<path fill-rule="evenodd" clip-rule="evenodd" d="M13.4859 5.32954C13.5997 4.93126 14.0148 4.70065 14.4131 4.81444L14.207 5.53558C14.4131 4.81444 14.4131 4.81444 14.4131 4.81444L14.4145 4.81485L14.416 4.81529L14.4194 4.81627L14.4271 4.81858L14.4469 4.82475C14.462 4.82957 14.4808 4.83585 14.5033 4.84381C14.5482 4.85975 14.6076 4.88242 14.6804 4.91362C14.826 4.97605 15.0251 5.07248 15.2696 5.21719C15.7591 5.50687 16.4273 5.98805 17.2122 6.77302C17.9972 7.55799 18.4784 8.22618 18.7681 8.71564C18.9128 8.96015 19.0092 9.15922 19.0716 9.3049C19.1028 9.37771 19.1255 9.43707 19.1414 9.48198C19.1494 9.50443 19.1557 9.52326 19.1605 9.53834L19.1667 9.55812L19.169 9.56587L19.17 9.56921L19.1704 9.57074C19.1704 9.57074 19.1708 9.57218 18.4497 9.77822L19.1708 9.57218C19.2846 9.97046 19.054 10.3856 18.6557 10.4994C18.2608 10.6122 17.8494 10.3864 17.7315 9.99437L17.7278 9.98359C17.7225 9.96856 17.7114 9.93898 17.6929 9.89578C17.6559 9.80944 17.5888 9.66821 17.4772 9.47962C17.2542 9.10288 16.8515 8.53363 16.1516 7.83368C15.4516 7.13373 14.8824 6.73102 14.5056 6.50805C14.317 6.39644 14.1758 6.32934 14.0895 6.29234C14.0463 6.27382 14.0167 6.26279 14.0017 6.25746L13.9909 6.25376C13.5988 6.13588 13.3731 5.72443 13.4859 5.32954Z" fill="currentColor"/>
<path fill-rule="evenodd" clip-rule="evenodd" d="M5.00748 4.40684C6.68755 2.72677 9.52269 2.85449 10.6925 4.95061L11.3415 6.11354C12.1054 7.48236 11.7799 9.20944 10.6616 10.3414C10.6467 10.3618 10.5678 10.4767 10.5579 10.6776C10.5454 10.9339 10.6364 11.5267 11.5548 12.4451C12.473 13.3632 13.0657 13.4545 13.3221 13.442C13.5231 13.4322 13.6381 13.3532 13.6585 13.3383C14.7905 12.22 16.5176 11.8945 17.8864 12.6584L19.0493 13.3074C21.1455 14.4772 21.2732 17.3124 19.5931 18.9925C18.6944 19.8911 17.4995 20.6896 16.0953 20.7428C14.0144 20.8217 10.5592 20.2843 7.13738 16.8626C3.71559 13.4408 3.17821 9.98554 3.2571 7.90461C3.31033 6.50041 4.10882 5.3055 5.00748 4.40684ZM9.38268 5.68161C8.78366 4.60826 7.17397 4.36167 6.06814 5.4675C5.29279 6.24285 4.78873 7.09866 4.75602 7.96144C4.69023 9.69678 5.11867 12.7225 8.19804 15.8019C11.2774 18.8813 14.3032 19.3097 16.0385 19.2439C16.9013 19.2112 17.7571 18.7071 18.5324 17.9318C19.6383 16.826 19.3917 15.2163 18.3183 14.6173L17.1554 13.9682C16.432 13.5645 15.4159 13.7022 14.7026 14.4155C14.6325 14.4856 14.1865 14.9017 13.395 14.9402C12.5848 14.9796 11.604 14.6156 10.4942 13.5058C9.38398 12.3955 9.02006 11.4145 9.05973 10.6042C9.09849 9.81269 9.51471 9.36709 9.58435 9.29744C10.2977 8.58412 10.4354 7.56795 10.0317 6.84453L9.38268 5.68161Z" fill="currentColor"/>
</svg>
