<svg width="32" height="32" viewBox="0 0 32 32" fill="none" xmlns="http://www.w3.org/2000/svg">
<path d="M12.0039 13.5514C10.4453 14.2319 8.84404 14.9311 7.37975 15.7377C6.61515 16.2975 7.63135 16.6935 8.58474 17.0649L8.58709 17.0659C8.73785 17.1246 8.88697 17.1827 9.02724 17.2407C9.14457 17.2769 9.26385 17.3148 9.38475 17.3533C10.4451 17.6912 11.6274 18.0678 12.6568 17.5012C14.3478 16.5298 15.9436 15.4068 17.5382 14.2846C18.0606 13.9169 18.5829 13.5494 19.1084 13.1872C19.133 13.1715 19.1608 13.1535 19.1912 13.1338C19.6388 12.8436 20.6456 12.191 20.2732 13.0903C19.3934 14.0524 18.4511 14.9041 17.5037 15.7605L17.501 15.7629C16.8618 16.3406 16.2203 16.9204 15.5941 17.5375C15.0488 17.9807 14.4824 18.8718 15.0931 19.4924C16.498 20.4758 17.9248 21.4355 19.3508 22.3947L19.3561 22.3982C19.8207 22.7107 20.2853 23.0231 20.7489 23.3364C21.5347 23.9637 22.7628 23.4562 22.9356 22.4759C23.0099 22.0397 23.0845 21.6037 23.1591 21.1675L23.1667 21.123C23.593 18.6307 24.0194 16.1374 24.3961 13.637C24.4473 13.2447 24.5053 12.8526 24.5634 12.4602L24.5635 12.4594C24.7042 11.5086 24.8451 10.5567 24.8891 9.60075C24.7757 8.64653 23.6187 8.85636 22.9748 9.07093C19.6654 10.3302 16.389 11.6829 13.1256 13.0593C12.7559 13.2231 12.3811 13.3867 12.0039 13.5514Z" fill="currentColor"/>
</svg>
