<svg width="24" height="25" viewBox="0 0 24 25" fill="none" xmlns="http://www.w3.org/2000/svg">
<path fill-rule="evenodd" clip-rule="evenodd" d="M9.20646 3.95608C8.95433 4.03596 8.70533 4.12674 8.46018 4.22828C7.33792 4.69314 6.3182 5.37449 5.45926 6.23343C4.60032 7.09237 3.91897 8.11209 3.45411 9.23435C3.0852 10.125 2.85837 11.0664 2.78045 12.0242H7.26094C7.29294 10.9283 7.39498 9.84827 7.56457 8.82474C7.7725 7.56975 8.07972 6.41331 8.47522 5.42456C8.69114 4.88474 8.9351 4.39058 9.20646 3.95608ZM12 2.02417C10.5883 2.02417 9.1904 2.30223 7.88615 2.84246C6.5819 3.3827 5.39683 4.17454 4.3986 5.17277C3.40037 6.171 2.60853 7.35607 2.0683 8.66032C1.52806 9.96457 1.25 11.3625 1.25 12.7742C1.25 14.1859 1.52806 15.5838 2.06829 16.888C2.60853 18.1923 3.40037 19.3773 4.3986 20.3756C5.39683 21.3738 6.5819 22.1656 7.88615 22.7059C9.1904 23.2461 10.5883 23.5242 12 23.5242C13.4117 23.5242 14.8096 23.2461 16.1138 22.7059C17.4181 22.1656 18.6032 21.3738 19.6014 20.3756C20.5996 19.3773 21.3915 18.1923 21.9317 16.888C22.4719 15.5838 22.75 14.1859 22.75 12.7742C22.75 11.3625 22.4719 9.96457 21.9317 8.66032C21.3915 7.35607 20.5996 6.171 19.6014 5.17277C18.6032 4.17454 17.4181 3.3827 16.1138 2.84247C14.8096 2.30223 13.4117 2.02417 12 2.02417ZM12 3.52417C11.7387 3.52417 11.4012 3.64996 11.0088 4.05637C10.6134 4.46578 10.2176 5.10743 9.86793 5.98164C9.52056 6.85006 9.2385 7.89841 9.04439 9.06993C8.88866 10.0099 8.79316 11.0073 8.76162 12.0242L15.2384 12.0242C15.2068 11.0073 15.1113 10.0099 14.9556 9.06993C14.7615 7.89841 14.4794 6.85007 14.1321 5.98165C13.7824 5.10743 13.3866 4.46578 12.9912 4.05637C12.5988 3.64996 12.2613 3.52417 12 3.52417ZM16.7391 12.0242C16.7071 10.9283 16.605 9.84828 16.4354 8.82474C16.2275 7.56975 15.9203 6.41331 15.5248 5.42456C15.3089 4.88474 15.0649 4.39058 14.7935 3.95608C15.0457 4.03596 15.2947 4.12674 15.5398 4.22828C16.6621 4.69314 17.6818 5.37449 18.5407 6.23343C19.3997 7.09238 20.081 8.11209 20.5459 9.23435C20.9148 10.125 21.1416 11.0664 21.2195 12.0242H16.7391ZM15.2384 13.5242L8.76162 13.5242C8.79316 14.541 8.88866 15.5385 9.04439 16.4784C9.2385 17.6499 9.52056 18.6983 9.86793 19.5667C10.2176 20.4409 10.6134 21.0826 11.0088 21.492C11.4012 21.8984 11.7387 22.0242 12 22.0242C12.2613 22.0242 12.5988 21.8984 12.9912 21.492C13.3866 21.0826 13.7824 20.4409 14.1321 19.5667C14.4794 18.6983 14.7615 17.6499 14.9556 16.4784C15.1113 15.5385 15.2068 14.541 15.2384 13.5242ZM14.7935 21.5923C15.0649 21.1578 15.3089 20.6636 15.5248 20.1238C15.9203 19.135 16.2275 17.9786 16.4354 16.7236C16.605 15.7001 16.7071 14.6201 16.7391 13.5242H21.2195C21.1416 14.482 20.9148 15.4234 20.5459 16.314C20.081 17.4363 19.3997 18.456 18.5407 19.3149C17.6818 20.1738 16.6621 20.8552 15.5398 21.3201C15.2947 21.4216 15.0457 21.5124 14.7935 21.5923ZM9.20646 21.5923C8.9351 21.1578 8.69114 20.6636 8.47521 20.1238C8.07971 19.135 7.7725 17.9786 7.56457 16.7236C7.39498 15.7001 7.29294 14.6201 7.26094 13.5242H2.78045C2.85837 14.482 3.0852 15.4234 3.45411 16.314C3.91897 17.4363 4.60032 18.456 5.45926 19.3149C6.3182 20.1738 7.33792 20.8552 8.46018 21.3201C8.70533 21.4216 8.95433 21.5124 9.20646 21.5923Z" fill="currentColor"/>
</svg>
