<svg width="144" height="49" viewBox="0 0 144 49" fill="none" xmlns="http://www.w3.org/2000/svg">
<g id="Group 23">
<path id="Vector" d="M132.162 0.27457H11.4421C11.0021 0.27457 10.5673 0.27457 10.1285 0.27697C9.76109 0.27937 9.39664 0.286342 9.02573 0.29221C8.21995 0.301692 7.41606 0.372581 6.62106 0.504262C5.82717 0.638809 5.05815 0.892468 4.34001 1.25666C3.62274 1.62393 2.96736 2.10117 2.39763 2.67105C1.82491 3.23933 1.3475 3.89618 0.983768 4.61635C0.619029 5.33509 0.366117 6.10529 0.233769 6.90033C0.100162 7.69438 0.0282673 8.49758 0.0187293 9.30273C0.0075933 9.67065 0.00641731 10.0398 0.000549316 10.4078V38.1448C0.00641731 38.5174 0.0075933 38.8784 0.0187293 39.2511C0.0282703 40.0562 0.100165 40.8594 0.233769 41.6534C0.365752 42.4489 0.618678 43.2195 0.983768 43.9385C1.34734 44.6564 1.82481 45.3106 2.39763 45.8757C2.9652 46.4481 3.62101 46.9257 4.34001 47.2901C5.05814 47.6553 5.82708 47.9105 6.62106 48.0471C7.4162 48.1777 8.22 48.2486 9.02573 48.2592C9.39664 48.2674 9.76109 48.2721 10.1285 48.2721C10.5673 48.2745 11.0021 48.2745 11.4421 48.2745H132.162C132.593 48.2745 133.032 48.2745 133.463 48.2721C133.828 48.2721 134.203 48.2674 134.569 48.2592C135.373 48.2492 136.176 48.1783 136.969 48.0471C137.766 47.9095 138.537 47.6544 139.259 47.2901C139.977 46.9255 140.633 46.4479 141.2 45.8757C141.771 45.3084 142.249 44.6546 142.618 43.9385C142.98 43.219 143.23 42.4484 143.36 41.6534C143.494 40.8593 143.569 40.0563 143.583 39.2511C143.588 38.8784 143.588 38.5174 143.588 38.1448C143.597 37.7089 143.597 37.2753 143.597 36.8323V11.7179C143.597 11.2785 143.597 10.8425 143.588 10.4078C143.588 10.0398 143.588 9.67065 143.583 9.30268C143.569 8.49746 143.494 7.69444 143.36 6.90029C143.23 6.1057 142.98 5.33557 142.618 4.61631C141.877 3.1728 140.702 1.9978 139.259 1.25655C138.537 0.89325 137.766 0.639658 136.969 0.504154C136.176 0.371893 135.373 0.300979 134.569 0.292042C134.203 0.286186 133.828 0.279154 133.463 0.276814C133.032 0.274414 132.593 0.274414 132.162 0.274414V0.27457Z" fill="white"/>
<g id="&#60;Group&#62;">
<path id="&#60;Path&#62;" d="M29.7231 24.6352C29.736 23.6336 30.0021 22.6515 30.4965 21.7804C30.9909 20.9093 31.6977 20.1773 32.551 19.6527C32.0089 18.8785 31.2938 18.2414 30.4624 17.7919C29.631 17.3425 28.7062 17.0931 27.7616 17.0635C25.7465 16.852 23.793 18.2693 22.7661 18.2693C21.7194 18.2693 20.1384 17.0845 18.4359 17.1195C17.3347 17.1551 16.2615 17.4753 15.3209 18.049C14.3802 18.6227 13.6042 19.4302 13.0684 20.393C10.7476 24.4111 12.4787 30.3163 14.7019 33.5642C15.8142 35.1547 17.1141 36.9312 18.815 36.8682C20.4795 36.7992 21.1011 35.8068 23.1103 35.8068C25.1008 35.8068 25.684 36.8682 27.4195 36.8281C29.2055 36.7992 30.3308 35.2307 31.4041 33.6252C32.2033 32.492 32.8182 31.2395 33.2262 29.9142C32.1885 29.4753 31.303 28.7407 30.6801 27.8019C30.0572 26.8632 29.7243 25.7618 29.7231 24.6352Z" fill="black"/>
<path id="&#60;Path&#62;_2" d="M26.4451 14.928C27.4189 13.7589 27.8987 12.2563 27.7825 10.7393C26.2947 10.8955 24.9204 11.6066 23.9334 12.7308C23.4509 13.28 23.0813 13.9189 22.8458 14.611C22.6103 15.3032 22.5135 16.0349 22.561 16.7644C23.3052 16.7721 24.0414 16.6108 24.7142 16.2927C25.387 15.9746 25.9788 15.508 26.4451 14.928Z" fill="black"/>
</g>
<path id="Vector_2" d="M50.7632 32.8416H45.0831L43.719 36.8693H41.3132L46.6932 21.9678H49.1928L54.5729 36.8693H52.126L50.7632 32.8416ZM45.6714 30.983H50.1738L47.9542 24.4463H47.8921L45.6714 30.983Z" fill="black"/>
<path id="Vector_3" d="M66.1921 31.4381C66.1921 34.8143 64.385 36.9834 61.6581 36.9834C60.9673 37.0196 60.2803 36.8604 59.6758 36.5243C59.0712 36.1881 58.5735 35.6885 58.2397 35.0826H58.1881V40.4639H55.9581V26.0053H58.1167V27.8124H58.1577C58.5069 27.2094 59.0129 26.7124 59.6221 26.3742C60.2312 26.0359 60.9207 25.8692 61.6171 25.8917C64.3744 25.8917 66.1921 28.0713 66.1921 31.4381ZM63.8999 31.4381C63.8999 29.2385 62.7632 27.7924 61.0288 27.7924C59.3249 27.7924 58.1788 29.269 58.1788 31.4381C58.1788 33.6272 59.3249 35.0932 61.0288 35.0932C62.7632 35.0932 63.8999 33.6577 63.8999 31.4381Z" fill="black"/>
<path id="Vector_4" d="M78.1499 31.4381C78.1499 34.8143 76.3429 36.9834 73.6159 36.9834C72.9251 37.0196 72.2381 36.8604 71.6336 36.5243C71.029 36.1881 70.5314 35.6885 70.1976 35.0826H70.146V40.4639H67.9159V26.0053H70.0745V27.8123H70.1155C70.4646 27.2094 70.9707 26.7124 71.5799 26.3742C72.189 26.0359 72.8785 25.8692 73.5749 25.8917C76.3323 25.8917 78.1499 28.0713 78.1499 31.4381ZM75.8577 31.4381C75.8577 29.2385 74.721 27.7924 72.9866 27.7924C71.2827 27.7924 70.1366 29.269 70.1366 31.4381C70.1366 33.6272 71.2827 35.0932 72.9866 35.0932C74.721 35.0932 75.8577 33.6577 75.8577 31.4381H75.8577Z" fill="black"/>
<path id="Vector_5" d="M86.053 32.7188C86.2182 34.1965 87.6538 35.1668 89.6155 35.1668C91.4952 35.1668 92.8475 34.1965 92.8475 32.8641C92.8475 31.7074 92.0319 31.0149 90.1006 30.5402L88.1694 30.075C85.4331 29.4141 84.1628 28.1344 84.1628 26.0578C84.1628 23.4867 86.4034 21.7207 89.585 21.7207C92.7338 21.7207 94.8924 23.4867 94.9651 26.0578H92.7139C92.5791 24.5707 91.3498 23.6731 89.5533 23.6731C87.7569 23.6731 86.5276 24.5813 86.5276 25.9031C86.5276 26.9566 87.3127 27.5766 89.2334 28.0511L90.8752 28.4543C93.9326 29.1773 95.2029 30.4054 95.2029 32.5851C95.2029 35.373 92.9822 37.1191 89.4502 37.1191C86.1455 37.1191 83.9143 35.414 83.7701 32.7187L86.053 32.7188Z" fill="black"/>
<path id="Vector_6" d="M100.016 23.4346V26.0057H102.082V27.7717H100.016V33.7611C100.016 34.6916 100.429 35.1252 101.338 35.1252C101.583 35.1209 101.828 35.1037 102.071 35.0736V36.829C101.663 36.9053 101.248 36.9399 100.833 36.9322C98.633 36.9322 97.7752 36.106 97.7752 33.999V27.7717H96.1955V26.0057H97.7751V23.4346H100.016Z" fill="black"/>
<path id="Vector_7" d="M103.278 31.4385C103.278 28.0201 105.292 25.8721 108.431 25.8721C111.581 25.8721 113.585 28.0201 113.585 31.4385C113.585 34.8662 111.592 37.0049 108.431 37.0049C105.272 37.0049 103.278 34.8662 103.278 31.4385ZM111.313 31.4385C111.313 29.0935 110.238 27.7096 108.431 27.7096C106.624 27.7096 105.551 29.1041 105.551 31.4385C105.551 33.7928 106.624 35.1662 108.431 35.1662C110.238 35.1662 111.313 33.7928 111.313 31.4385H111.313Z" fill="black"/>
<path id="Vector_8" d="M115.424 26.0052H117.551V27.8544H117.602C117.746 27.2769 118.084 26.7665 118.56 26.409C119.036 26.0516 119.621 25.8688 120.215 25.8915C120.472 25.8906 120.729 25.9186 120.979 25.9747V28.0607C120.655 27.9615 120.317 27.916 119.977 27.9259C119.654 27.9128 119.331 27.9699 119.031 28.0934C118.731 28.2168 118.461 28.4037 118.241 28.6412C118.02 28.8786 117.853 29.1611 117.752 29.4691C117.65 29.7771 117.617 30.1034 117.654 30.4255V36.8696H115.424L115.424 26.0052Z" fill="black"/>
<path id="Vector_9" d="M131.261 33.6791C130.961 35.6513 129.041 37.0049 126.583 37.0049C123.423 37.0049 121.461 34.8873 121.461 31.49C121.461 28.0822 123.433 25.8721 126.49 25.8721C129.495 25.8721 131.386 27.9369 131.386 31.231V31.9951H123.712V32.1299C123.677 32.5297 123.727 32.9325 123.859 33.3115C123.991 33.6905 124.203 34.0371 124.479 34.3281C124.755 34.6192 125.091 34.8481 125.462 34.9997C125.834 35.1512 126.234 35.222 126.635 35.2072C127.162 35.2566 127.691 35.1345 128.143 34.8592C128.595 34.5839 128.946 34.17 129.144 33.6791L131.261 33.6791ZM123.723 30.4365H129.154C129.174 30.077 129.12 29.7172 128.994 29.3798C128.869 29.0423 128.675 28.7345 128.424 28.4756C128.174 28.2166 127.873 28.0122 127.54 27.8752C127.207 27.7381 126.85 27.6714 126.49 27.6791C126.126 27.6769 125.766 27.7467 125.43 27.8844C125.094 28.0221 124.789 28.225 124.532 28.4813C124.274 28.7377 124.07 29.0424 123.932 29.378C123.793 29.7136 123.722 30.0734 123.723 30.4365V30.4365Z" fill="black"/>
<path id="Vector_10" d="M45.3919 10.7523C45.8594 10.7187 46.3285 10.7893 46.7655 10.9591C47.2024 11.1288 47.5962 11.3934 47.9185 11.7337C48.2408 12.0741 48.4836 12.4817 48.6293 12.9272C48.775 13.3727 48.8199 13.8451 48.761 14.3101C48.761 16.5976 47.5247 17.9125 45.3919 17.9125H42.8055V10.7523H45.3919ZM43.9176 16.8999H45.2676C45.6017 16.9198 45.9361 16.865 46.2463 16.7395C46.5565 16.614 46.8349 16.4208 47.0611 16.1742C47.2873 15.9275 47.4556 15.6335 47.5539 15.3135C47.6521 14.9936 47.6777 14.6558 47.629 14.3247C47.6742 13.9949 47.6459 13.6591 47.5462 13.3415C47.4465 13.0239 47.2777 12.7323 47.052 12.4876C46.8264 12.2429 46.5493 12.0511 46.2409 11.9261C45.9324 11.801 45.6 11.7457 45.2676 11.7641H43.9176V16.8999Z" fill="black"/>
<path id="Vector_11" d="M50.0173 15.2079C49.9833 14.8528 50.024 14.4946 50.1366 14.1561C50.2492 13.8176 50.4313 13.5064 50.6712 13.2424C50.9111 12.9784 51.2036 12.7675 51.5298 12.6232C51.856 12.4789 52.2088 12.4043 52.5655 12.4043C52.9223 12.4043 53.2751 12.4789 53.6013 12.6232C53.9275 12.7675 54.2199 12.9784 54.4599 13.2424C54.6998 13.5064 54.8819 13.8176 54.9945 14.1561C55.1071 14.4946 55.1477 14.8528 55.1138 15.2079C55.1484 15.5634 55.1083 15.9222 54.9959 16.2612C54.8836 16.6002 54.7016 16.912 54.4616 17.1765C54.2217 17.441 53.929 17.6524 53.6024 17.797C53.2759 17.9417 52.9227 18.0164 52.5655 18.0164C52.2084 18.0164 51.8552 17.9417 51.5286 17.797C51.2021 17.6524 50.9094 17.441 50.6694 17.1765C50.4294 16.912 50.2474 16.6002 50.1351 16.2612C50.0228 15.9222 49.9827 15.5634 50.0173 15.2079ZM54.0169 15.2079C54.0169 14.0367 53.4907 13.3517 52.5673 13.3517C51.6403 13.3517 51.1189 14.0367 51.1189 15.208C51.1189 16.3886 51.6404 17.0683 52.5673 17.0683C53.4907 17.0683 54.0169 16.3839 54.0169 15.2079H54.0169Z" fill="black"/>
<path id="Vector_12" d="M61.8883 17.9113H60.7821L59.6653 13.9316H59.5809L58.4688 17.9113H57.3731L55.8837 12.5078H56.9653L57.9333 16.631H58.013L59.1239 12.5078H60.1469L61.2579 16.631H61.3423L62.3055 12.5078H63.3719L61.8883 17.9113Z" fill="black"/>
<path id="Vector_13" d="M64.6246 12.509H65.6512V13.3674H65.7309C65.8661 13.0591 66.0941 12.8007 66.3831 12.6281C66.6722 12.4555 67.0079 12.3775 67.3434 12.4047C67.6063 12.385 67.8703 12.4246 68.1158 12.5207C68.3613 12.6168 68.5821 12.767 68.7617 12.96C68.9413 13.153 69.0752 13.3839 69.1535 13.6357C69.2317 13.8875 69.2523 14.1537 69.2137 14.4145V17.9125H68.1473V14.6823C68.1473 13.8139 67.7699 13.3821 66.9813 13.3821C66.8028 13.3738 66.6246 13.4042 66.4589 13.4711C66.2932 13.5381 66.144 13.6402 66.0215 13.7702C65.8989 13.9003 65.8059 14.0553 65.7489 14.2247C65.6919 14.394 65.6721 14.5737 65.691 14.7514V17.9125H64.6246L64.6246 12.509Z" fill="black"/>
<path id="Vector_14" d="M70.913 10.3984H71.9794V17.9113H70.913V10.3984Z" fill="black"/>
<path id="Vector_15" d="M73.4617 15.208C73.4278 14.8529 73.4684 14.4946 73.5811 14.1561C73.6937 13.8176 73.8758 13.5064 74.1158 13.2424C74.3558 12.9784 74.6482 12.7675 74.9745 12.6232C75.3007 12.4789 75.6535 12.4043 76.0103 12.4043C76.367 12.4043 76.7198 12.4789 77.0461 12.6232C77.3723 12.7675 77.6648 12.9784 77.9047 13.2424C78.1447 13.5064 78.3268 13.8176 78.4395 14.1561C78.5521 14.4946 78.5927 14.8529 78.5588 15.208C78.5934 15.5635 78.5532 15.9223 78.4408 16.2613C78.3285 16.6004 78.1465 16.9121 77.9065 17.1766C77.6664 17.4411 77.3737 17.6525 77.0472 17.7971C76.7206 17.9417 76.3674 18.0165 76.0103 18.0165C75.6531 18.0165 75.2999 17.9417 74.9733 17.7971C74.6468 17.6525 74.3541 17.4411 74.1141 17.1766C73.8741 16.9121 73.692 16.6004 73.5797 16.2613C73.4673 15.9223 73.4272 15.5635 73.4617 15.208ZM77.4613 15.208C77.4613 14.0368 76.9351 13.3518 76.0117 13.3518C75.0848 13.3518 74.5633 14.0368 74.5633 15.2081C74.5633 16.3887 75.0848 17.0684 76.0117 17.0684C76.9352 17.0684 77.4613 16.384 77.4613 15.208H77.4613Z" fill="black"/>
<path id="Vector_16" d="M79.6815 16.384C79.6815 15.4113 80.4057 14.8506 81.6912 14.7709L83.1549 14.6865V14.2201C83.1549 13.6494 82.7775 13.3271 82.0486 13.3271C81.4533 13.3271 81.0408 13.5457 80.9225 13.9277H79.8901C79.999 12.9996 80.8721 12.4043 82.0979 12.4043C83.4525 12.4043 84.2166 13.0787 84.2166 14.2201V17.9121H83.19V17.1527H83.1057C82.9344 17.4251 82.6939 17.6472 82.4088 17.7962C82.1236 17.9453 81.804 18.016 81.4826 18.0011C81.2558 18.0247 81.0265 18.0005 80.8096 17.9301C80.5927 17.8596 80.3929 17.7445 80.2232 17.5922C80.0535 17.4398 79.9177 17.2536 79.8243 17.0455C79.731 16.8374 79.6824 16.612 79.6815 16.384ZM83.1549 15.9222V15.4705L81.8354 15.5549C81.0912 15.6047 80.7537 15.8578 80.7537 16.3342C80.7537 16.8205 81.1756 17.1035 81.7557 17.1035C81.9257 17.1207 82.0974 17.1035 82.2606 17.053C82.4238 17.0025 82.5752 16.9197 82.7057 16.8095C82.8363 16.6993 82.9433 16.5639 83.0205 16.4115C83.0976 16.2591 83.1433 16.0927 83.1549 15.9222Z" fill="black"/>
<path id="Vector_17" d="M85.6182 15.2072C85.6182 13.4998 86.4959 12.4182 87.8611 12.4182C88.1988 12.4026 88.534 12.4835 88.8274 12.6514C89.1208 12.8192 89.3604 13.0672 89.5182 13.3662H89.5979V10.3984H90.6642V17.9113H89.6424V17.0576H89.558C89.3881 17.3546 89.1401 17.5994 88.841 17.7656C88.5419 17.9318 88.2031 18.013 87.8611 18.0004C86.4865 18.0004 85.6182 16.9188 85.6182 15.2072ZM86.7198 15.2072C86.7198 16.3533 87.26 17.043 88.1635 17.043C89.0623 17.043 89.6178 16.3434 89.6178 15.2119C89.6178 14.0858 89.0565 13.3762 88.1635 13.3762C87.2658 13.3762 86.7197 14.0705 86.7197 15.2072H86.7198Z" fill="black"/>
<path id="Vector_18" d="M95.0764 15.2079C95.0424 14.8528 95.083 14.4946 95.1956 14.1561C95.3083 13.8176 95.4904 13.5064 95.7303 13.2424C95.9702 12.9784 96.2627 12.7675 96.5889 12.6232C96.9151 12.4789 97.2679 12.4043 97.6246 12.4043C97.9813 12.4043 98.3341 12.4789 98.6603 12.6232C98.9866 12.7675 99.279 12.9784 99.5189 13.2424C99.7589 13.5064 99.941 13.8176 100.054 14.1561C100.166 14.4946 100.207 14.8528 100.173 15.2079C100.207 15.5634 100.167 15.9222 100.055 16.2612C99.9427 16.6002 99.7607 16.912 99.5207 17.1765C99.2807 17.441 98.9881 17.6524 98.6615 17.797C98.335 17.9417 97.9818 18.0164 97.6246 18.0164C97.2675 18.0164 96.9143 17.9417 96.5877 17.797C96.2612 17.6524 95.9685 17.441 95.7285 17.1765C95.4885 16.912 95.3065 16.6002 95.1942 16.2612C95.0819 15.9222 95.0418 15.5634 95.0764 15.2079ZM99.076 15.2079C99.076 14.0367 98.5498 13.3517 97.6264 13.3517C96.6994 13.3517 96.178 14.0367 96.178 15.208C96.178 16.3886 96.6995 17.0683 97.6264 17.0683C98.5498 17.0683 99.076 16.3839 99.076 15.2079Z" fill="black"/>
<path id="Vector_19" d="M101.604 12.509H102.63V13.3674H102.71C102.845 13.0591 103.073 12.8007 103.362 12.6281C103.651 12.4555 103.987 12.3775 104.322 12.4047C104.585 12.385 104.849 12.4246 105.095 12.5207C105.34 12.6168 105.561 12.767 105.741 12.96C105.92 13.153 106.054 13.3839 106.133 13.6357C106.211 13.8875 106.231 14.1537 106.193 14.4145V17.9125H105.126V14.6823C105.126 13.8139 104.749 13.3821 103.96 13.3821C103.782 13.3738 103.604 13.4042 103.438 13.4711C103.272 13.5381 103.123 13.6402 103.001 13.7702C102.878 13.9003 102.785 14.0553 102.728 14.2247C102.671 14.394 102.651 14.5737 102.67 14.7514V17.9125H101.604V12.509Z" fill="black"/>
<path id="Vector_20" d="M112.218 11.1631V12.533H113.389V13.4312H112.218V16.2098C112.218 16.7758 112.452 17.0236 112.983 17.0236C113.118 17.0232 113.254 17.015 113.389 16.999V17.8873C113.198 17.9215 113.004 17.9398 112.809 17.9418C111.623 17.9418 111.151 17.5246 111.151 16.4828V13.4312H110.293V12.533H111.151V11.1631H112.218Z" fill="black"/>
<path id="Vector_21" d="M114.846 10.3984H115.903V13.3762H115.987C116.129 13.065 116.363 12.8051 116.658 12.6319C116.953 12.4586 117.294 12.3805 117.635 12.4082C117.896 12.394 118.158 12.4376 118.401 12.5361C118.643 12.6345 118.861 12.7853 119.039 12.9778C119.217 13.1702 119.35 13.3994 119.429 13.6492C119.508 13.8989 119.531 14.163 119.496 14.4227V17.9113H118.428V14.6857C118.428 13.8226 118.026 13.3855 117.273 13.3855C117.09 13.3705 116.905 13.3957 116.733 13.4594C116.56 13.523 116.404 13.6236 116.274 13.7541C116.144 13.8846 116.045 14.0418 115.982 14.2148C115.92 14.3877 115.896 14.5723 115.912 14.7554V17.9113H114.846L114.846 10.3984Z" fill="black"/>
<path id="Vector_22" d="M125.714 16.4532C125.569 16.9471 125.255 17.3742 124.827 17.66C124.399 17.9458 123.884 18.072 123.372 18.0165C123.016 18.0259 122.663 17.9577 122.336 17.8167C122.009 17.6756 121.716 17.4651 121.479 17.1998C121.241 16.9344 121.064 16.6205 120.96 16.2799C120.856 15.9393 120.828 15.5802 120.876 15.2274C120.829 14.8736 120.858 14.5137 120.962 14.172C121.066 13.8304 121.242 13.5151 121.478 13.2474C121.714 12.9797 122.005 12.7659 122.331 12.6205C122.657 12.475 123.011 12.4013 123.368 12.4044C124.871 12.4044 125.778 13.4316 125.778 15.1284V15.5005H121.963V15.5602C121.946 15.7585 121.971 15.9581 122.036 16.1462C122.101 16.3343 122.204 16.5068 122.34 16.6525C122.475 16.7983 122.64 16.9141 122.823 16.9926C123.006 17.0711 123.203 17.1105 123.402 17.1082C123.657 17.1389 123.915 17.0929 124.144 16.9763C124.373 16.8596 124.562 16.6775 124.687 16.4532L125.714 16.4532ZM121.963 14.7118H124.692C124.705 14.5305 124.681 14.3483 124.62 14.177C124.558 14.0058 124.462 13.8492 124.337 13.7174C124.212 13.5855 124.06 13.4814 123.892 13.4116C123.724 13.3417 123.544 13.3078 123.362 13.312C123.177 13.3097 122.994 13.3443 122.824 13.4139C122.653 13.4834 122.498 13.5864 122.367 13.7169C122.237 13.8473 122.134 14.0026 122.064 14.1734C121.995 14.3443 121.96 14.5274 121.963 14.7118H121.963Z" fill="black"/>
</g>
</svg>
