<svg width="144" height="49" viewBox="0 0 144 49" fill="none" xmlns="http://www.w3.org/2000/svg">
<g id="Group 23">
<path id="Vector" d="M132.162 0.274326H11.4421C11.0021 0.274326 10.5673 0.274326 10.1285 0.276726C9.76109 0.279126 9.39664 0.286098 9.02573 0.291966C8.21995 0.301448 7.41606 0.372337 6.62106 0.504018C5.82717 0.638564 5.05815 0.892224 4.34001 1.25642C3.62274 1.62369 2.96736 2.10092 2.39763 2.67081C1.82491 3.23909 1.3475 3.89594 0.983768 4.61611C0.619029 5.33485 0.366117 6.10504 0.233769 6.90009C0.100162 7.69414 0.0282673 8.49734 0.0187293 9.30249C0.0075933 9.67041 0.00641731 10.0395 0.000549316 10.4075V38.1446C0.00641731 38.5172 0.0075933 38.8781 0.0187293 39.2509C0.0282703 40.056 0.100165 40.8591 0.233769 41.6531C0.365752 42.4486 0.618678 43.2193 0.983768 43.9383C1.34734 44.6561 1.82481 45.3103 2.39763 45.8754C2.9652 46.4479 3.62101 46.9254 4.34001 47.2899C5.05814 47.655 5.82708 47.9102 6.62106 48.0468C7.4162 48.1775 8.22 48.2484 9.02573 48.259C9.39664 48.2672 9.76109 48.2718 10.1285 48.2718C10.5673 48.2742 11.0021 48.2742 11.4421 48.2742H132.162C132.593 48.2742 133.032 48.2742 133.463 48.2718C133.828 48.2718 134.203 48.2672 134.569 48.259C135.373 48.249 136.176 48.178 136.969 48.0468C137.766 47.9093 138.537 47.6542 139.259 47.2899C139.977 46.9252 140.633 46.4477 141.2 45.8754C141.771 45.3081 142.249 44.6544 142.618 43.9383C142.98 43.2188 143.23 42.4482 143.36 41.6531C143.494 40.859 143.569 40.056 143.583 39.2509C143.588 38.8781 143.588 38.5172 143.588 38.1446C143.597 37.7086 143.597 37.2751 143.597 36.832V11.7177C143.597 11.2782 143.597 10.8423 143.588 10.4075C143.588 10.0395 143.588 9.67041 143.583 9.30244C143.569 8.49722 143.494 7.6942 143.36 6.90004C143.23 6.10545 142.98 5.33532 142.618 4.61606C141.877 3.17256 140.702 1.99755 139.259 1.25631C138.537 0.893006 137.766 0.639414 136.969 0.50391C136.176 0.371649 135.373 0.300735 134.569 0.291798C134.203 0.285942 133.828 0.27891 133.463 0.27657C133.032 0.27417 132.593 0.27417 132.162 0.27417V0.274326Z" fill="black"/>
<g id="&#60;Group&#62;">
<path id="&#60;Path&#62;" d="M29.7231 24.6352C29.736 23.6336 30.0021 22.6515 30.4965 21.7804C30.9909 20.9093 31.6977 20.1773 32.551 19.6527C32.0089 18.8785 31.2938 18.2414 30.4624 17.7919C29.631 17.3425 28.7062 17.0931 27.7616 17.0635C25.7465 16.852 23.793 18.2693 22.7661 18.2693C21.7194 18.2693 20.1384 17.0845 18.4359 17.1195C17.3347 17.1551 16.2615 17.4753 15.3209 18.049C14.3802 18.6227 13.6042 19.4302 13.0684 20.393C10.7476 24.4111 12.4787 30.3163 14.7019 33.5642C15.8142 35.1547 17.1141 36.9312 18.815 36.8682C20.4795 36.7992 21.1011 35.8068 23.1103 35.8068C25.1008 35.8068 25.684 36.8682 27.4195 36.8281C29.2055 36.7992 30.3308 35.2307 31.4041 33.6252C32.2033 32.492 32.8182 31.2395 33.2262 29.9142C32.1885 29.4753 31.303 28.7407 30.6801 27.8019C30.0572 26.8632 29.7243 25.7618 29.7231 24.6352Z" fill="white"/>
<path id="&#60;Path&#62;_2" d="M26.4451 14.9277C27.4189 13.7587 27.8987 12.2561 27.7825 10.739C26.2947 10.8953 24.9204 11.6063 23.9334 12.7305C23.4509 13.2797 23.0813 13.9187 22.8458 14.6108C22.6103 15.3029 22.5135 16.0347 22.561 16.7642C23.3052 16.7719 24.0414 16.6106 24.7142 16.2925C25.387 15.9744 25.9788 15.5077 26.4451 14.9277Z" fill="white"/>
</g>
<path id="Vector_2" d="M50.7632 32.8419H45.0831L43.719 36.8696H41.3132L46.6932 21.968H49.1928L54.5729 36.8696H52.126L50.7632 32.8419ZM45.6714 30.9833H50.1738L47.9542 24.4466H47.8921L45.6714 30.9833Z" fill="white"/>
<path id="Vector_3" d="M66.1921 31.4381C66.1921 34.8143 64.385 36.9834 61.6581 36.9834C60.9673 37.0196 60.2803 36.8604 59.6758 36.5243C59.0712 36.1881 58.5735 35.6885 58.2397 35.0826H58.1881V40.4639H55.9581V26.0053H58.1167V27.8124H58.1577C58.5069 27.2094 59.0129 26.7124 59.6221 26.3742C60.2312 26.0359 60.9207 25.8692 61.6171 25.8917C64.3744 25.8917 66.1921 28.0713 66.1921 31.4381ZM63.8999 31.4381C63.8999 29.2385 62.7632 27.7924 61.0288 27.7924C59.3249 27.7924 58.1788 29.269 58.1788 31.4381C58.1788 33.6272 59.3249 35.0932 61.0288 35.0932C62.7632 35.0932 63.8999 33.6577 63.8999 31.4381Z" fill="white"/>
<path id="Vector_4" d="M78.1499 31.4381C78.1499 34.8143 76.3429 36.9834 73.6159 36.9834C72.9251 37.0196 72.2381 36.8604 71.6336 36.5243C71.029 36.1881 70.5314 35.6885 70.1976 35.0826H70.146V40.4639H67.9159V26.0053H70.0745V27.8123H70.1155C70.4646 27.2094 70.9707 26.7124 71.5799 26.3742C72.189 26.0359 72.8785 25.8692 73.5749 25.8917C76.3323 25.8917 78.1499 28.0713 78.1499 31.4381ZM75.8577 31.4381C75.8577 29.2385 74.721 27.7924 72.9866 27.7924C71.2827 27.7924 70.1366 29.269 70.1366 31.4381C70.1366 33.6272 71.2827 35.0932 72.9866 35.0932C74.721 35.0932 75.8577 33.6577 75.8577 31.4381H75.8577Z" fill="white"/>
<path id="Vector_5" d="M86.053 32.7181C86.2182 34.1958 87.6538 35.1661 89.6155 35.1661C91.4952 35.1661 92.8475 34.1958 92.8475 32.8633C92.8475 31.7067 92.0319 31.0141 90.1006 30.5395L88.1694 30.0743C85.4331 29.4133 84.1628 28.1336 84.1628 26.0571C84.1628 23.486 86.4034 21.72 89.585 21.72C92.7338 21.72 94.8924 23.486 94.9651 26.0571H92.7139C92.5791 24.57 91.3498 23.6723 89.5533 23.6723C87.7569 23.6723 86.5276 24.5805 86.5276 25.9024C86.5276 26.9559 87.3127 27.5758 89.2334 28.0504L90.8752 28.4535C93.9326 29.1766 95.2029 30.4047 95.2029 32.5844C95.2029 35.3723 92.9822 37.1183 89.4502 37.1183C86.1455 37.1183 83.9143 35.4133 83.7701 32.718L86.053 32.7181Z" fill="white"/>
<path id="Vector_6" d="M100.016 23.4338V26.0049H102.082V27.7709H100.016V33.7604C100.016 34.6908 100.429 35.1244 101.338 35.1244C101.583 35.1202 101.828 35.1029 102.071 35.0728V36.8283C101.663 36.9046 101.248 36.9392 100.833 36.9314C98.633 36.9314 97.7752 36.1053 97.7752 33.9982V27.7709H96.1955V26.0049H97.7751V23.4338H100.016Z" fill="white"/>
<path id="Vector_7" d="M103.278 31.4385C103.278 28.0201 105.292 25.8721 108.431 25.8721C111.581 25.8721 113.585 28.0201 113.585 31.4385C113.585 34.8662 111.592 37.0049 108.431 37.0049C105.272 37.0049 103.278 34.8662 103.278 31.4385ZM111.313 31.4385C111.313 29.0935 110.238 27.7096 108.431 27.7096C106.624 27.7096 105.551 29.1041 105.551 31.4385C105.551 33.7928 106.624 35.1662 108.431 35.1662C110.238 35.1662 111.313 33.7928 111.313 31.4385H111.313Z" fill="white"/>
<path id="Vector_8" d="M115.424 26.0052H117.551V27.8544H117.602C117.746 27.2769 118.084 26.7665 118.56 26.409C119.036 26.0516 119.621 25.8688 120.215 25.8915C120.472 25.8906 120.729 25.9186 120.979 25.9747V28.0607C120.655 27.9615 120.317 27.916 119.977 27.9259C119.654 27.9128 119.331 27.9699 119.031 28.0934C118.731 28.2168 118.461 28.4037 118.241 28.6412C118.02 28.8786 117.853 29.1611 117.752 29.4691C117.65 29.7771 117.617 30.1034 117.654 30.4255V36.8696H115.424L115.424 26.0052Z" fill="white"/>
<path id="Vector_9" d="M131.261 33.6791C130.961 35.6513 129.041 37.0049 126.583 37.0049C123.423 37.0049 121.461 34.8873 121.461 31.49C121.461 28.0822 123.433 25.8721 126.49 25.8721C129.495 25.8721 131.386 27.9369 131.386 31.231V31.9951H123.712V32.1299C123.677 32.5297 123.727 32.9325 123.859 33.3115C123.991 33.6905 124.203 34.0371 124.479 34.3281C124.755 34.6192 125.091 34.8481 125.462 34.9997C125.834 35.1512 126.234 35.222 126.635 35.2072C127.162 35.2566 127.691 35.1345 128.143 34.8592C128.595 34.5839 128.946 34.17 129.144 33.6791L131.261 33.6791ZM123.723 30.4365H129.154C129.174 30.077 129.12 29.7172 128.994 29.3798C128.869 29.0423 128.675 28.7345 128.424 28.4756C128.174 28.2166 127.873 28.0122 127.54 27.8752C127.207 27.7381 126.85 27.6714 126.49 27.6791C126.126 27.6769 125.766 27.7467 125.43 27.8844C125.094 28.0221 124.789 28.225 124.532 28.4813C124.274 28.7377 124.07 29.0424 123.932 29.378C123.793 29.7136 123.722 30.0734 123.723 30.4365V30.4365Z" fill="white"/>
<path id="Vector_10" d="M45.3919 10.7518C45.8594 10.7182 46.3285 10.7889 46.7655 10.9586C47.2024 11.1283 47.5962 11.3929 47.9185 11.7332C48.2408 12.0736 48.4836 12.4812 48.6293 12.9267C48.775 13.3723 48.8199 13.8446 48.761 14.3096C48.761 16.5971 47.5247 17.912 45.3919 17.912H42.8055V10.7518H45.3919ZM43.9176 16.8994H45.2676C45.6017 16.9193 45.9361 16.8646 46.2463 16.739C46.5565 16.6135 46.8349 16.4203 47.0611 16.1737C47.2873 15.927 47.4556 15.633 47.5539 15.313C47.6521 14.9931 47.6777 14.6553 47.629 14.3242C47.6742 13.9944 47.6459 13.6586 47.5462 13.3411C47.4465 13.0235 47.2777 12.7319 47.052 12.4871C46.8264 12.2424 46.5493 12.0506 46.2409 11.9256C45.9324 11.8005 45.6 11.7452 45.2676 11.7636H43.9176V16.8994Z" fill="white"/>
<path id="Vector_11" d="M50.0173 15.2072C49.9833 14.8521 50.024 14.4938 50.1366 14.1553C50.2492 13.8169 50.4313 13.5057 50.6712 13.2417C50.9111 12.9777 51.2036 12.7668 51.5298 12.6225C51.856 12.4781 52.2088 12.4036 52.5655 12.4036C52.9223 12.4036 53.2751 12.4781 53.6013 12.6225C53.9275 12.7668 54.2199 12.9777 54.4599 13.2417C54.6998 13.5057 54.8819 13.8169 54.9945 14.1553C55.1071 14.4938 55.1477 14.8521 55.1138 15.2072C55.1484 15.5627 55.1083 15.9215 54.9959 16.2605C54.8836 16.5995 54.7016 16.9113 54.4616 17.1758C54.2217 17.4403 53.929 17.6517 53.6024 17.7963C53.2759 17.9409 52.9227 18.0157 52.5655 18.0157C52.2084 18.0157 51.8552 17.9409 51.5286 17.7963C51.2021 17.6517 50.9094 17.4403 50.6694 17.1758C50.4294 16.9113 50.2474 16.5995 50.1351 16.2605C50.0228 15.9215 49.9827 15.5627 50.0173 15.2072ZM54.0169 15.2072C54.0169 14.0359 53.4907 13.351 52.5673 13.351C51.6403 13.351 51.1189 14.0359 51.1189 15.2072C51.1189 16.3879 51.6404 17.0676 52.5673 17.0676C53.4907 17.0676 54.0169 16.3832 54.0169 15.2072H54.0169Z" fill="white"/>
<path id="Vector_12" d="M61.8883 17.9116H60.7821L59.6653 13.9319H59.5809L58.4688 17.9116H57.3731L55.8837 12.5081H56.9653L57.9333 16.6312H58.013L59.1239 12.5081H60.1469L61.2579 16.6312H61.3423L62.3055 12.5081H63.3719L61.8883 17.9116Z" fill="white"/>
<path id="Vector_13" d="M64.6246 12.5085H65.6512V13.3669H65.7309C65.8661 13.0586 66.0941 12.8002 66.3831 12.6276C66.6722 12.4551 67.0079 12.377 67.3434 12.4042C67.6063 12.3845 67.8703 12.4241 68.1158 12.5202C68.3613 12.6164 68.5821 12.7665 68.7617 12.9595C68.9413 13.1525 69.0752 13.3835 69.1535 13.6352C69.2317 13.887 69.2523 14.1532 69.2137 14.414V17.912H68.1473V14.6818C68.1473 13.8134 67.7699 13.3816 66.9813 13.3816C66.8028 13.3733 66.6246 13.4037 66.4589 13.4707C66.2932 13.5377 66.144 13.6397 66.0215 13.7697C65.8989 13.8998 65.8059 14.0548 65.7489 14.2242C65.6919 14.3935 65.6721 14.5732 65.691 14.7509V17.9121H64.6246L64.6246 12.5085Z" fill="white"/>
<path id="Vector_14" d="M70.913 10.3987H71.9794V17.9116H70.913V10.3987Z" fill="white"/>
<path id="Vector_15" d="M73.4617 15.2073C73.4278 14.8522 73.4684 14.4939 73.5811 14.1554C73.6937 13.8169 73.8758 13.5057 74.1158 13.2417C74.3558 12.9777 74.6482 12.7668 74.9745 12.6225C75.3007 12.4781 75.6535 12.4036 76.0103 12.4036C76.367 12.4036 76.7198 12.4781 77.0461 12.6225C77.3723 12.7668 77.6648 12.9777 77.9047 13.2417C78.1447 13.5057 78.3268 13.8169 78.4395 14.1554C78.5521 14.4939 78.5927 14.8522 78.5588 15.2073C78.5934 15.5628 78.5532 15.9216 78.4408 16.2606C78.3285 16.5996 78.1465 16.9114 77.9065 17.1759C77.6664 17.4404 77.3737 17.6517 77.0472 17.7964C76.7206 17.941 76.3674 18.0157 76.0103 18.0157C75.6531 18.0157 75.2999 17.941 74.9733 17.7964C74.6468 17.6517 74.3541 17.4404 74.1141 17.1759C73.8741 16.9114 73.692 16.5996 73.5797 16.2606C73.4673 15.9216 73.4272 15.5628 73.4617 15.2073ZM77.4613 15.2073C77.4613 14.036 76.9351 13.3511 76.0117 13.3511C75.0848 13.3511 74.5633 14.036 74.5633 15.2073C74.5633 16.388 75.0848 17.0677 76.0117 17.0677C76.9352 17.0677 77.4613 16.3833 77.4613 15.2073H77.4613Z" fill="white"/>
<path id="Vector_16" d="M79.6815 16.3832C79.6815 15.4106 80.4057 14.8498 81.6912 14.7702L83.1549 14.6858V14.2194C83.1549 13.6487 82.7775 13.3264 82.0486 13.3264C81.4533 13.3264 81.0408 13.545 80.9225 13.927H79.8901C79.999 12.9989 80.8721 12.4036 82.0979 12.4036C83.4525 12.4036 84.2166 13.078 84.2166 14.2194V17.9114H83.19V17.152H83.1057C82.9344 17.4244 82.6939 17.6464 82.4088 17.7955C82.1236 17.9445 81.804 18.0153 81.4826 18.0004C81.2558 18.024 81.0265 17.9998 80.8096 17.9293C80.5927 17.8589 80.3929 17.7438 80.2232 17.5914C80.0535 17.4391 79.9177 17.2528 79.8243 17.0447C79.731 16.8366 79.6824 16.6113 79.6815 16.3832ZM83.1549 15.9215V15.4698L81.8354 15.5541C81.0912 15.6039 80.7537 15.8571 80.7537 16.3334C80.7537 16.8197 81.1756 17.1028 81.7557 17.1028C81.9257 17.12 82.0974 17.1028 82.2606 17.0523C82.4238 17.0018 82.5752 16.919 82.7057 16.8088C82.8363 16.6985 82.9433 16.5632 83.0205 16.4108C83.0976 16.2584 83.1433 16.092 83.1549 15.9215Z" fill="white"/>
<path id="Vector_17" d="M85.6182 15.2075C85.6182 13.5001 86.4959 12.4184 87.8611 12.4184C88.1988 12.4029 88.534 12.4837 88.8274 12.6516C89.1208 12.8195 89.3604 13.0674 89.5182 13.3664H89.5979V10.3987H90.6642V17.9116H89.6424V17.0578H89.558C89.3881 17.3548 89.1401 17.5997 88.841 17.7658C88.5419 17.932 88.2031 18.0132 87.8611 18.0006C86.4865 18.0007 85.6182 16.919 85.6182 15.2075ZM86.7198 15.2075C86.7198 16.3536 87.26 17.0432 88.1635 17.0432C89.0623 17.0432 89.6178 16.3436 89.6178 15.2122C89.6178 14.086 89.0565 13.3764 88.1635 13.3764C87.2658 13.3764 86.7197 14.0708 86.7197 15.2075H86.7198Z" fill="white"/>
<path id="Vector_18" d="M95.0764 15.2072C95.0424 14.8521 95.083 14.4938 95.1956 14.1553C95.3083 13.8169 95.4904 13.5057 95.7303 13.2417C95.9702 12.9777 96.2627 12.7668 96.5889 12.6225C96.9151 12.4781 97.2679 12.4036 97.6246 12.4036C97.9813 12.4036 98.3341 12.4781 98.6603 12.6225C98.9866 12.7668 99.279 12.9777 99.5189 13.2417C99.7589 13.5057 99.941 13.8169 100.054 14.1553C100.166 14.4938 100.207 14.8521 100.173 15.2072C100.207 15.5627 100.167 15.9215 100.055 16.2605C99.9427 16.5995 99.7607 16.9113 99.5207 17.1758C99.2807 17.4403 98.9881 17.6517 98.6615 17.7963C98.335 17.9409 97.9818 18.0157 97.6246 18.0157C97.2675 18.0157 96.9143 17.9409 96.5877 17.7963C96.2612 17.6517 95.9685 17.4403 95.7285 17.1758C95.4885 16.9113 95.3065 16.5995 95.1942 16.2605C95.0819 15.9215 95.0418 15.5627 95.0764 15.2072ZM99.076 15.2072C99.076 14.0359 98.5498 13.351 97.6264 13.351C96.6994 13.351 96.178 14.0359 96.178 15.2072C96.178 16.3879 96.6995 17.0676 97.6264 17.0676C98.5498 17.0676 99.076 16.3832 99.076 15.2072Z" fill="white"/>
<path id="Vector_19" d="M101.604 12.5085H102.63V13.3669H102.71C102.845 13.0586 103.073 12.8002 103.362 12.6276C103.651 12.4551 103.987 12.377 104.322 12.4042C104.585 12.3845 104.849 12.4241 105.095 12.5202C105.34 12.6164 105.561 12.7665 105.741 12.9595C105.92 13.1525 106.054 13.3835 106.133 13.6352C106.211 13.887 106.231 14.1532 106.193 14.414V17.912H105.126V14.6818C105.126 13.8134 104.749 13.3816 103.96 13.3816C103.782 13.3733 103.604 13.4037 103.438 13.4707C103.272 13.5377 103.123 13.6397 103.001 13.7697C102.878 13.8998 102.785 14.0548 102.728 14.2242C102.671 14.3935 102.651 14.5732 102.67 14.7509V17.9121H101.604V12.5085Z" fill="white"/>
<path id="Vector_20" d="M112.218 11.1633V12.5332H113.389V13.4315H112.218V16.21C112.218 16.776 112.452 17.0239 112.983 17.0239C113.118 17.0234 113.254 17.0152 113.389 16.9993V17.8875C113.198 17.9218 113.004 17.94 112.809 17.942C111.623 17.942 111.151 17.5248 111.151 16.483V13.4314H110.293V12.5332H111.151V11.1633H112.218Z" fill="white"/>
<path id="Vector_21" d="M114.846 10.3987H115.903V13.3764H115.987C116.129 13.0652 116.363 12.8053 116.658 12.6321C116.953 12.4589 117.294 12.3808 117.635 12.4084C117.896 12.3942 118.158 12.4379 118.401 12.5363C118.643 12.6348 118.861 12.7856 119.039 12.978C119.217 13.1704 119.35 13.3997 119.429 13.6494C119.508 13.8992 119.531 14.1633 119.496 14.4229V17.9116H118.428V14.686C118.428 13.8229 118.026 13.3858 117.273 13.3858C117.09 13.3707 116.905 13.3959 116.733 13.4596C116.56 13.5233 116.404 13.6239 116.274 13.7543C116.144 13.8848 116.045 14.0421 115.982 14.215C115.92 14.388 115.896 14.5725 115.912 14.7557V17.9115H114.846L114.846 10.3987Z" fill="white"/>
<path id="Vector_22" d="M125.714 16.4525C125.569 16.9463 125.255 17.3735 124.827 17.6593C124.399 17.9451 123.884 18.0712 123.372 18.0157C123.016 18.0251 122.663 17.957 122.336 17.8159C122.009 17.6749 121.716 17.4644 121.479 17.199C121.241 16.9337 121.064 16.6198 120.96 16.2792C120.856 15.9386 120.828 15.5795 120.876 15.2267C120.829 14.8728 120.858 14.5129 120.962 14.1713C121.066 13.8297 121.242 13.5144 121.478 13.2467C121.714 12.979 122.005 12.7652 122.331 12.6198C122.657 12.4743 123.011 12.4006 123.368 12.4037C124.871 12.4037 125.778 13.4309 125.778 15.1276V15.4998H121.963V15.5595C121.946 15.7578 121.971 15.9574 122.036 16.1455C122.101 16.3336 122.204 16.5061 122.34 16.6518C122.475 16.7976 122.64 16.9134 122.823 16.9919C123.006 17.0703 123.203 17.1097 123.402 17.1075C123.657 17.1381 123.915 17.0922 124.144 16.9756C124.373 16.8589 124.562 16.6768 124.687 16.4524L125.714 16.4525ZM121.963 14.7111H124.692C124.705 14.5297 124.681 14.3476 124.62 14.1763C124.558 14.005 124.462 13.8485 124.337 13.7166C124.212 13.5848 124.06 13.4806 123.892 13.4108C123.724 13.341 123.544 13.3071 123.362 13.3113C123.177 13.309 122.994 13.3436 122.824 13.4131C122.653 13.4827 122.498 13.5857 122.367 13.7161C122.237 13.8466 122.134 14.0018 122.064 14.1727C121.995 14.3436 121.96 14.5266 121.963 14.7111H121.963Z" fill="white"/>
</g>
</svg>
