<svg width="162" height="49" viewBox="0 0 162 49" fill="none" xmlns="http://www.w3.org/2000/svg">
<g id="Group 22">
<path id="Vector" d="M156.001 48.2743H6.00084C2.64085 48.2743 0.000854492 45.6343 0.000854492 42.2743V6.2744C0.000854492 2.91441 2.64085 0.274414 6.00084 0.274414H156.001C159.361 0.274414 162.001 2.91441 162.001 6.2744V42.2743C162.001 45.5143 159.361 48.2743 156.001 48.2743Z" fill="white"/>
<path id="Vector_2" d="M56.8808 12.5147C56.8808 13.4747 56.6408 14.3147 56.0408 14.9147C55.3208 15.6347 54.4808 15.9947 53.4008 15.9947C52.3208 15.9947 51.4808 15.6347 50.7608 14.9147C50.0408 14.1947 49.6808 13.3547 49.6808 12.2747C49.6808 11.1947 50.0408 10.3547 50.7608 9.63469C51.4808 8.91469 52.3208 8.55469 53.4008 8.55469C53.8808 8.55469 54.3608 8.67469 54.8408 8.91469C55.3208 9.15469 55.6808 9.39469 55.9208 9.75469L55.3208 10.3547C54.8408 9.75469 54.2408 9.51469 53.4008 9.51469C52.6808 9.51469 51.9608 9.75469 51.4808 10.3547C50.8808 10.8347 50.6408 11.5547 50.6408 12.3947C50.6408 13.2347 50.8808 13.9547 51.4808 14.4347C52.0808 14.9147 52.6808 15.2747 53.4008 15.2747C54.2408 15.2747 54.8408 15.0347 55.4408 14.4347C55.8008 14.0747 56.0408 13.5947 56.0408 12.9947H53.4008V12.1547H56.8808C56.8808 12.1547 56.8808 12.3947 56.8808 12.5147Z" fill="black" stroke="black" stroke-width="0.24" stroke-miterlimit="10"/>
<path id="Vector_3" d="M62.4007 9.5148H59.1607V11.7948H62.1607V12.6348H59.1607V14.9148H62.4007V15.8748H58.2007V8.6748H62.4007V9.5148Z" fill="black" stroke="black" stroke-width="0.24" stroke-miterlimit="10"/>
<path id="Vector_4" d="M66.3607 15.8748H65.4007V9.5148H63.3607V8.6748H68.4007V9.5148H66.3607V15.8748Z" fill="black" stroke="black" stroke-width="0.24" stroke-miterlimit="10"/>
<path id="Vector_5" d="M71.8807 15.8748V8.6748H72.8407V15.8748H71.8807Z" fill="black" stroke="black" stroke-width="0.24" stroke-miterlimit="10"/>
<path id="Vector_6" d="M76.9206 15.8748H75.9607V9.5148H73.9207V8.6748H78.8406V9.5148H76.8007V15.8748H76.9206Z" fill="black" stroke="black" stroke-width="0.24" stroke-miterlimit="10"/>
<path id="Vector_7" d="M88.3207 14.9147C87.6007 15.6347 86.7607 15.9947 85.6807 15.9947C84.6007 15.9947 83.7607 15.6347 83.0407 14.9147C82.3207 14.1947 81.9607 13.3547 81.9607 12.2747C81.9607 11.1947 82.3207 10.3547 83.0407 9.63469C83.7607 8.91469 84.6007 8.55469 85.6807 8.55469C86.7607 8.55469 87.6007 8.91469 88.3207 9.63469C89.0407 10.3547 89.4007 11.1947 89.4007 12.2747C89.4007 13.3547 89.0407 14.1947 88.3207 14.9147ZM83.7607 14.3147C84.2407 14.7947 84.9607 15.1547 85.6807 15.1547C86.4007 15.1547 87.1207 14.9147 87.6007 14.3147C88.0807 13.8347 88.4407 13.1147 88.4407 12.2747C88.4407 11.4347 88.2007 10.7147 87.6007 10.2347C87.1207 9.75468 86.4007 9.39469 85.6807 9.39469C84.9607 9.39469 84.2407 9.63469 83.7607 10.2347C83.2807 10.7147 82.9207 11.4347 82.9207 12.2747C82.9207 13.1147 83.1607 13.8347 83.7607 14.3147Z" fill="black" stroke="black" stroke-width="0.24" stroke-miterlimit="10"/>
<path id="Vector_8" d="M90.7206 15.8748V8.6748H91.8006L95.2806 14.3148V12.8748V8.6748H96.2406V15.8748H95.2806L91.5606 9.9948V11.4348V15.8748H90.7206Z" fill="black" stroke="black" stroke-width="0.24" stroke-miterlimit="10"/>
<path id="Vector_9" d="M81.7206 26.4339C78.8406 26.4339 76.5606 28.5939 76.5606 31.5939C76.5606 34.4739 78.8406 36.7539 81.7206 36.7539C84.6006 36.7539 86.8806 34.5939 86.8806 31.5939C86.8806 28.4739 84.6006 26.4339 81.7206 26.4339ZM81.7206 34.5939C80.1606 34.5939 78.8406 33.2739 78.8406 31.4739C78.8406 29.6739 80.1606 28.3539 81.7206 28.3539C83.2806 28.3539 84.6006 29.5539 84.6006 31.4739C84.6006 33.2739 83.2806 34.5939 81.7206 34.5939ZM70.5606 26.4339C67.6807 26.4339 65.4007 28.5939 65.4007 31.5939C65.4007 34.4739 67.6807 36.7539 70.5606 36.7539C73.4406 36.7539 75.7206 34.5939 75.7206 31.5939C75.7206 28.4739 73.4406 26.4339 70.5606 26.4339ZM70.5606 34.5939C69.0007 34.5939 67.6807 33.2739 67.6807 31.4739C67.6807 29.6739 69.0007 28.3539 70.5606 28.3539C72.1206 28.3539 73.4406 29.5539 73.4406 31.4739C73.4406 33.2739 72.1206 34.5939 70.5606 34.5939ZM57.2407 27.9939V30.1539H62.4007C62.2807 31.3539 61.8007 32.3139 61.2007 32.9139C60.4807 33.6339 59.2807 34.4739 57.2407 34.4739C54.0007 34.4739 51.6007 31.9539 51.6007 28.7139C51.6007 25.4739 54.1207 22.9539 57.2407 22.9539C58.9207 22.9539 60.2407 23.6739 61.2007 24.5139L62.7607 22.9539C61.4407 21.7539 59.7607 20.7939 57.3607 20.7939C53.0407 20.7939 49.3207 24.3939 49.3207 28.7139C49.3207 33.0339 53.0407 36.6339 57.3607 36.6339C59.7607 36.6339 61.4407 35.9139 62.8807 34.3539C64.3207 32.9139 64.8007 30.8739 64.8007 29.3139C64.8007 28.8339 64.8007 28.3539 64.6807 27.9939H57.2407ZM111.721 29.6739C111.241 28.4739 110.041 26.4339 107.401 26.4339C104.761 26.4339 102.601 28.4739 102.601 31.5939C102.601 34.4739 104.761 36.7539 107.641 36.7539C109.921 36.7539 111.361 35.3139 111.841 34.4739L110.161 33.2739C109.561 34.1139 108.841 34.7139 107.641 34.7139C106.441 34.7139 105.721 34.2339 105.121 33.1539L111.961 30.2739L111.721 29.6739ZM104.761 31.3539C104.761 29.4339 106.321 28.3539 107.401 28.3539C108.241 28.3539 109.081 28.8339 109.321 29.4339L104.761 31.3539ZM99.1206 36.2739H101.401V21.2739H99.1206V36.2739ZM95.5206 27.5139C94.9206 26.9139 93.9606 26.3139 92.7606 26.3139C90.2406 26.3139 87.8406 28.5939 87.8406 31.4739C87.8406 34.3539 90.1206 36.5139 92.7606 36.5139C93.9606 36.5139 94.9206 35.9139 95.4006 35.3139H95.5206V36.0339C95.5206 37.9539 94.4406 39.0339 92.7606 39.0339C91.4406 39.0339 90.4806 38.0739 90.2406 37.2339L88.3206 38.0739C88.9206 39.3939 90.3606 41.0739 92.8806 41.0739C95.5206 41.0739 97.6806 39.5139 97.6806 35.7939V26.6739H95.5206V27.5139ZM92.8806 34.5939C91.3206 34.5939 90.0006 33.2739 90.0006 31.4739C90.0006 29.6739 91.3206 28.3539 92.8806 28.3539C94.4406 28.3539 95.6406 29.6739 95.6406 31.4739C95.6406 33.2739 94.4406 34.5939 92.8806 34.5939ZM122.161 21.2739H116.761V36.2739H119.041V30.6339H122.161C124.681 30.6339 127.081 28.8339 127.081 25.9539C127.081 23.0739 124.681 21.2739 122.161 21.2739ZM122.281 28.4739H119.041V23.3139H122.281C123.961 23.3139 124.921 24.7539 124.921 25.8339C124.801 27.1539 123.841 28.4739 122.281 28.4739ZM136.081 26.3139C134.401 26.3139 132.721 27.0339 132.121 28.5939L134.161 29.4339C134.641 28.5939 135.361 28.3539 136.201 28.3539C137.401 28.3539 138.481 29.0739 138.601 30.2739V30.3939C138.241 30.1539 137.281 29.7939 136.321 29.7939C134.161 29.7939 132.001 30.9939 132.001 33.1539C132.001 35.1939 133.801 36.5139 135.721 36.5139C137.281 36.5139 138.001 35.7939 138.601 35.0739H138.721V36.2739H140.881V30.5139C140.641 27.8739 138.601 26.3139 136.081 26.3139ZM135.841 34.5939C135.121 34.5939 134.041 34.2339 134.041 33.2739C134.041 32.0739 135.361 31.7139 136.441 31.7139C137.401 31.7139 137.881 31.9539 138.481 32.1939C138.241 33.6339 137.041 34.5939 135.841 34.5939ZM148.441 26.6739L145.921 33.1539H145.801L143.161 26.6739H140.761L144.721 35.7939L142.441 40.8339H144.721L150.84 26.6739H148.441ZM128.281 36.2739H130.561V21.2739H128.281V36.2739Z" fill="black"/>
<path id="Vector_10" d="M12.4809 9.27441C12.1209 9.63441 11.8809 10.2344 11.8809 10.9544V37.4744C11.8809 38.1944 12.1209 38.7944 12.4809 39.1544L12.6009 39.2744L27.4808 24.3944V24.2744V24.1544L12.4809 9.27441Z" fill="url(#paint0_linear_517_88556)"/>
<path id="Vector_11" d="M32.4008 29.4344L27.4808 24.5144V24.2744V24.1544L32.4008 19.2344L32.5208 19.3544L38.4008 22.7144C40.0808 23.6744 40.0808 25.2344 38.4008 26.1944L32.4008 29.4344Z" fill="url(#paint1_linear_517_88556)"/>
<path id="Vector_12" d="M32.5208 29.3144L27.4808 24.2744L12.4808 39.2744C13.0808 39.8744 13.9208 39.8744 15.0008 39.3944L32.5208 29.3144Z" fill="url(#paint2_linear_517_88556)"/>
<path id="Vector_13" d="M32.5208 19.2343L15.0008 9.27435C13.9208 8.67435 13.0808 8.79435 12.4808 9.39435L27.4808 24.2743L32.5208 19.2343Z" fill="url(#paint3_linear_517_88556)"/>
<path id="Vector_14" opacity="0.2" d="M32.4008 29.1943L15.0008 39.0343C14.0408 39.6343 13.2008 39.5143 12.6008 39.0343L12.4808 39.1543L12.6008 39.2743C13.2008 39.7543 14.0408 39.8743 15.0008 39.2743L32.4008 29.1943Z" fill="black"/>
<path id="Vector_15" opacity="0.12" d="M12.4809 39.0345C12.1209 38.6745 12.0009 38.0745 12.0009 37.3545V37.4745C12.0009 38.1945 12.2409 38.7945 12.6009 39.1545V39.0345H12.4809Z" fill="black"/>
<path id="Vector_16" opacity="0.12" d="M38.4007 25.8344L32.4008 29.1944L32.5208 29.3144L38.4007 25.9544C39.2407 25.4744 39.6007 24.8744 39.6007 24.2744C39.6007 24.8744 39.1207 25.3544 38.4007 25.8344Z" fill="black"/>
<path id="Vector_17" opacity="0.25" d="M15.0008 9.39486L38.4008 22.7148C39.1208 23.1948 39.6008 23.6748 39.6008 24.2748C39.6008 23.6748 39.2408 23.0748 38.4008 22.5948L15.0008 9.27485C13.3209 8.31486 12.0009 9.15485 12.0009 11.0749V11.1949C12.0009 9.27486 13.3209 8.43486 15.0008 9.39486Z" fill="black"/>
</g>
<defs>
<linearGradient id="paint0_linear_517_88556" x1="26.1605" y1="10.7261" x2="6.02163" y2="30.8649" gradientUnits="userSpaceOnUse">
<stop stop-color="#00A0FF"/>
<stop offset="0.00657445" stop-color="#00A1FF"/>
<stop offset="0.2601" stop-color="#00BEFF"/>
<stop offset="0.5122" stop-color="#00D2FF"/>
<stop offset="0.7604" stop-color="#00DFFF"/>
<stop offset="1" stop-color="#00E3FF"/>
</linearGradient>
<linearGradient id="paint1_linear_517_88556" x1="40.6021" y1="24.276" x2="11.5659" y2="24.276" gradientUnits="userSpaceOnUse">
<stop stop-color="#FFE000"/>
<stop offset="0.4087" stop-color="#FFBD00"/>
<stop offset="0.7754" stop-color="#FFA500"/>
<stop offset="1" stop-color="#FF9C00"/>
</linearGradient>
<linearGradient id="paint2_linear_517_88556" x1="29.7932" y1="27.0297" x2="2.48329" y2="54.3396" gradientUnits="userSpaceOnUse">
<stop stop-color="#FF3A44"/>
<stop offset="1" stop-color="#C31162"/>
</linearGradient>
<linearGradient id="paint3_linear_517_88556" x1="8.7576" y1="0.485808" x2="20.9527" y2="12.6808" gradientUnits="userSpaceOnUse">
<stop stop-color="#32A071"/>
<stop offset="0.0685" stop-color="#2DA771"/>
<stop offset="0.4762" stop-color="#15CF74"/>
<stop offset="0.8009" stop-color="#06E775"/>
<stop offset="1" stop-color="#00F076"/>
</linearGradient>
</defs>
</svg>
