<svg width="162" height="49" viewBox="0 0 162 49" fill="none" xmlns="http://www.w3.org/2000/svg">
<g id="Group 22">
<path id="Vector" d="M156.001 48.2741H6.00084C2.64085 48.2741 0.000854492 45.6341 0.000854492 42.2741V6.27416C0.000854492 2.91417 2.64085 0.27417 6.00084 0.27417H156.001C159.361 0.27417 162.001 2.91417 162.001 6.27416V42.2741C162.001 45.5141 159.361 48.2741 156.001 48.2741Z" fill="black"/>
<path id="Vector_2" d="M56.8808 12.5147C56.8808 13.4747 56.6408 14.3147 56.0408 14.9147C55.3208 15.6347 54.4808 15.9947 53.4008 15.9947C52.3208 15.9947 51.4808 15.6347 50.7608 14.9147C50.0408 14.1947 49.6808 13.3547 49.6808 12.2747C49.6808 11.1947 50.0408 10.3547 50.7608 9.63469C51.4808 8.91469 52.3208 8.55469 53.4008 8.55469C53.8808 8.55469 54.3608 8.67469 54.8408 8.91469C55.3208 9.15469 55.6808 9.39469 55.9208 9.75469L55.3208 10.3547C54.8408 9.75469 54.2408 9.51469 53.4008 9.51469C52.6808 9.51469 51.9608 9.75469 51.4808 10.3547C50.8808 10.8347 50.6408 11.5547 50.6408 12.3947C50.6408 13.2347 50.8808 13.9547 51.4808 14.4347C52.0808 14.9147 52.6808 15.2747 53.4008 15.2747C54.2408 15.2747 54.8408 15.0347 55.4408 14.4347C55.8008 14.0747 56.0408 13.5947 56.0408 12.9947H53.4008V12.1547H56.8808C56.8808 12.1547 56.8808 12.3947 56.8808 12.5147Z" fill="white" stroke="white" stroke-width="0.24" stroke-miterlimit="10"/>
<path id="Vector_3" d="M62.4007 9.51407H59.1607V11.7941H62.1607V12.6341H59.1607V14.9141H62.4007V15.8741H58.2007V8.67407H62.4007V9.51407Z" fill="white" stroke="white" stroke-width="0.24" stroke-miterlimit="10"/>
<path id="Vector_4" d="M66.3607 15.8741H65.4007V9.51407H63.3607V8.67407H68.4007V9.51407H66.3607V15.8741Z" fill="white" stroke="white" stroke-width="0.24" stroke-miterlimit="10"/>
<path id="Vector_5" d="M71.8807 15.8741V8.67407H72.8407V15.8741H71.8807Z" fill="white" stroke="white" stroke-width="0.24" stroke-miterlimit="10"/>
<path id="Vector_6" d="M76.9206 15.8741H75.9607V9.51407H73.9207V8.67407H78.8406V9.51407H76.8007V15.8741H76.9206Z" fill="white" stroke="white" stroke-width="0.24" stroke-miterlimit="10"/>
<path id="Vector_7" d="M88.3207 14.9147C87.6007 15.6347 86.7607 15.9947 85.6807 15.9947C84.6007 15.9947 83.7607 15.6347 83.0407 14.9147C82.3207 14.1947 81.9607 13.3547 81.9607 12.2747C81.9607 11.1947 82.3207 10.3547 83.0407 9.63469C83.7607 8.91469 84.6007 8.55469 85.6807 8.55469C86.7607 8.55469 87.6007 8.91469 88.3207 9.63469C89.0407 10.3547 89.4007 11.1947 89.4007 12.2747C89.4007 13.3547 89.0407 14.1947 88.3207 14.9147ZM83.7607 14.3147C84.2407 14.7947 84.9607 15.1547 85.6807 15.1547C86.4007 15.1547 87.1207 14.9147 87.6007 14.3147C88.0807 13.8347 88.4407 13.1147 88.4407 12.2747C88.4407 11.4347 88.2007 10.7147 87.6007 10.2347C87.1207 9.75468 86.4007 9.39469 85.6807 9.39469C84.9607 9.39469 84.2407 9.63469 83.7607 10.2347C83.2807 10.7147 82.9207 11.4347 82.9207 12.2747C82.9207 13.1147 83.1607 13.8347 83.7607 14.3147Z" fill="white" stroke="white" stroke-width="0.24" stroke-miterlimit="10"/>
<path id="Vector_8" d="M90.7206 15.8741V8.67407H91.8006L95.2806 14.3141V12.8741V8.67407H96.2406V15.8741H95.2806L91.5606 9.99407V11.4341V15.8741H90.7206Z" fill="white" stroke="white" stroke-width="0.24" stroke-miterlimit="10"/>
<path id="Vector_9" d="M81.7206 26.4337C78.8406 26.4337 76.5606 28.5937 76.5606 31.5937C76.5606 34.4737 78.8406 36.7537 81.7206 36.7537C84.6006 36.7537 86.8806 34.5937 86.8806 31.5937C86.8806 28.4737 84.6006 26.4337 81.7206 26.4337ZM81.7206 34.5937C80.1606 34.5937 78.8406 33.2737 78.8406 31.4737C78.8406 29.6737 80.1606 28.3537 81.7206 28.3537C83.2806 28.3537 84.6006 29.5537 84.6006 31.4737C84.6006 33.2737 83.2806 34.5937 81.7206 34.5937ZM70.5606 26.4337C67.6807 26.4337 65.4007 28.5937 65.4007 31.5937C65.4007 34.4737 67.6807 36.7537 70.5606 36.7537C73.4406 36.7537 75.7206 34.5937 75.7206 31.5937C75.7206 28.4737 73.4406 26.4337 70.5606 26.4337ZM70.5606 34.5937C69.0007 34.5937 67.6807 33.2737 67.6807 31.4737C67.6807 29.6737 69.0007 28.3537 70.5606 28.3537C72.1206 28.3537 73.4406 29.5537 73.4406 31.4737C73.4406 33.2737 72.1206 34.5937 70.5606 34.5937ZM57.2407 27.9937V30.1537H62.4007C62.2807 31.3537 61.8007 32.3137 61.2007 32.9137C60.4807 33.6337 59.2807 34.4737 57.2407 34.4737C54.0007 34.4737 51.6007 31.9537 51.6007 28.7137C51.6007 25.4737 54.1207 22.9537 57.2407 22.9537C58.9207 22.9537 60.2407 23.6737 61.2007 24.5137L62.7607 22.9537C61.4407 21.7537 59.7607 20.7937 57.3607 20.7937C53.0407 20.7937 49.3207 24.3937 49.3207 28.7137C49.3207 33.0337 53.0407 36.6337 57.3607 36.6337C59.7607 36.6337 61.4407 35.9137 62.8807 34.3537C64.3207 32.9137 64.8007 30.8737 64.8007 29.3137C64.8007 28.8337 64.8007 28.3537 64.6807 27.9937H57.2407ZM111.721 29.6737C111.241 28.4737 110.041 26.4337 107.401 26.4337C104.761 26.4337 102.601 28.4737 102.601 31.5937C102.601 34.4737 104.761 36.7537 107.641 36.7537C109.921 36.7537 111.361 35.3137 111.841 34.4737L110.161 33.2737C109.561 34.1137 108.841 34.7137 107.641 34.7137C106.441 34.7137 105.721 34.2337 105.121 33.1537L111.961 30.2737L111.721 29.6737ZM104.761 31.3537C104.761 29.4337 106.321 28.3537 107.401 28.3537C108.241 28.3537 109.081 28.8337 109.321 29.4337L104.761 31.3537ZM99.1206 36.2737H101.401V21.2737H99.1206V36.2737ZM95.5206 27.5137C94.9206 26.9137 93.9606 26.3137 92.7606 26.3137C90.2406 26.3137 87.8406 28.5937 87.8406 31.4737C87.8406 34.3537 90.1206 36.5137 92.7606 36.5137C93.9606 36.5137 94.9206 35.9137 95.4006 35.3137H95.5206V36.0337C95.5206 37.9537 94.4406 39.0337 92.7606 39.0337C91.4406 39.0337 90.4806 38.0737 90.2406 37.2337L88.3206 38.0737C88.9206 39.3937 90.3606 41.0737 92.8806 41.0737C95.5206 41.0737 97.6806 39.5137 97.6806 35.7937V26.6737H95.5206V27.5137ZM92.8806 34.5937C91.3206 34.5937 90.0006 33.2737 90.0006 31.4737C90.0006 29.6737 91.3206 28.3537 92.8806 28.3537C94.4406 28.3537 95.6406 29.6737 95.6406 31.4737C95.6406 33.2737 94.4406 34.5937 92.8806 34.5937ZM122.161 21.2737H116.761V36.2737H119.041V30.6337H122.161C124.681 30.6337 127.081 28.8337 127.081 25.9537C127.081 23.0737 124.681 21.2737 122.161 21.2737ZM122.281 28.4737H119.041V23.3137H122.281C123.961 23.3137 124.921 24.7537 124.921 25.8337C124.801 27.1537 123.841 28.4737 122.281 28.4737ZM136.081 26.3137C134.401 26.3137 132.721 27.0337 132.121 28.5937L134.161 29.4337C134.641 28.5937 135.361 28.3537 136.201 28.3537C137.401 28.3537 138.481 29.0737 138.601 30.2737V30.3937C138.241 30.1537 137.281 29.7937 136.321 29.7937C134.161 29.7937 132.001 30.9937 132.001 33.1537C132.001 35.1937 133.801 36.5137 135.721 36.5137C137.281 36.5137 138.001 35.7937 138.601 35.0737H138.721V36.2737H140.881V30.5137C140.641 27.8737 138.601 26.3137 136.081 26.3137ZM135.841 34.5937C135.121 34.5937 134.041 34.2337 134.041 33.2737C134.041 32.0737 135.361 31.7137 136.441 31.7137C137.401 31.7137 137.881 31.9537 138.481 32.1937C138.241 33.6337 137.041 34.5937 135.841 34.5937ZM148.441 26.6737L145.921 33.1537H145.801L143.161 26.6737H140.761L144.721 35.7937L142.441 40.8337H144.721L150.84 26.6737H148.441ZM128.281 36.2737H130.561V21.2737H128.281V36.2737Z" fill="white"/>
<path id="Vector_10" d="M12.4809 9.27417C12.1209 9.63417 11.8809 10.2342 11.8809 10.9542V37.4741C11.8809 38.1941 12.1209 38.7941 12.4809 39.1541L12.6009 39.2741L27.4808 24.3941V24.2741V24.1541L12.4809 9.27417Z" fill="url(#paint0_linear_517_43805)"/>
<path id="Vector_11" d="M32.4008 29.4339L27.4808 24.5139V24.2739V24.1539L32.4008 19.2339L32.5208 19.3539L38.4008 22.7139C40.0808 23.6739 40.0808 25.2339 38.4008 26.1939L32.4008 29.4339Z" fill="url(#paint1_linear_517_43805)"/>
<path id="Vector_12" d="M32.5208 29.3142L27.4808 24.2742L12.4808 39.2741C13.0808 39.8741 13.9208 39.8741 15.0008 39.3941L32.5208 29.3142Z" fill="url(#paint2_linear_517_43805)"/>
<path id="Vector_13" d="M32.5208 19.2336L15.0008 9.27362C13.9208 8.67362 13.0808 8.79362 12.4808 9.39362L27.4808 24.2736L32.5208 19.2336Z" fill="url(#paint3_linear_517_43805)"/>
<path id="Vector_14" opacity="0.2" d="M32.4008 29.1943L15.0008 39.0343C14.0408 39.6343 13.2008 39.5143 12.6008 39.0343L12.4808 39.1543L12.6008 39.2743C13.2008 39.7543 14.0408 39.8743 15.0008 39.2743L32.4008 29.1943Z" fill="white"/>
<path id="Vector_15" opacity="0.12" d="M12.4809 39.034C12.1209 38.674 12.0009 38.074 12.0009 37.354V37.474C12.0009 38.194 12.2409 38.794 12.6009 39.154V39.034H12.4809Z" fill="white"/>
<path id="Vector_16" opacity="0.12" d="M38.4007 25.8342L32.4008 29.1942L32.5208 29.3142L38.4007 25.9542C39.2407 25.4742 39.6007 24.8742 39.6007 24.2742C39.6007 24.8742 39.1207 25.3542 38.4007 25.8342Z" fill="white"/>
<path id="Vector_17" opacity="0.25" d="M15.0008 9.39461L38.4008 22.7146C39.1208 23.1946 39.6008 23.6746 39.6008 24.2746C39.6008 23.6746 39.2408 23.0746 38.4008 22.5946L15.0008 9.27461C13.3209 8.31461 12.0009 9.15461 12.0009 11.0746V11.1946C12.0009 9.27461 13.3209 8.43461 15.0008 9.39461Z" fill="white"/>
</g>
<defs>
<linearGradient id="paint0_linear_517_43805" x1="26.1605" y1="10.7258" x2="6.02163" y2="30.8647" gradientUnits="userSpaceOnUse">
<stop stop-color="#00A0FF"/>
<stop offset="0.00657445" stop-color="#00A1FF"/>
<stop offset="0.2601" stop-color="#00BEFF"/>
<stop offset="0.5122" stop-color="#00D2FF"/>
<stop offset="0.7604" stop-color="#00DFFF"/>
<stop offset="1" stop-color="#00E3FF"/>
</linearGradient>
<linearGradient id="paint1_linear_517_43805" x1="40.6021" y1="24.2756" x2="11.5659" y2="24.2756" gradientUnits="userSpaceOnUse">
<stop stop-color="#FFE000"/>
<stop offset="0.4087" stop-color="#FFBD00"/>
<stop offset="0.7754" stop-color="#FFA500"/>
<stop offset="1" stop-color="#FF9C00"/>
</linearGradient>
<linearGradient id="paint2_linear_517_43805" x1="29.7932" y1="27.0295" x2="2.48329" y2="54.3394" gradientUnits="userSpaceOnUse">
<stop stop-color="#FF3A44"/>
<stop offset="1" stop-color="#C31162"/>
</linearGradient>
<linearGradient id="paint3_linear_517_43805" x1="8.7576" y1="0.485075" x2="20.9527" y2="12.6801" gradientUnits="userSpaceOnUse">
<stop stop-color="#32A071"/>
<stop offset="0.0685" stop-color="#2DA771"/>
<stop offset="0.4762" stop-color="#15CF74"/>
<stop offset="0.8009" stop-color="#06E775"/>
<stop offset="1" stop-color="#00F076"/>
</linearGradient>
</defs>
</svg>
