<svg width="24" height="24" viewBox="0 0 24 24" fill="none" xmlns="http://www.w3.org/2000/svg">
<g id="Frame 47860">
<path id="Vector" d="M21.301 4C21.712 4 22 4.313 22 4.663C22 4.911 21.855 5.178 21.503 5.365C19.715 6.313 17.645 9.591 17.645 11.613C20.661 11.521 21.971 14.195 21.971 15.871C21.971 17.878 20.233 20 17.663 20C14.423 20 12.833 17.453 12.833 14.693C12.833 8.713 19.667 4 21.301 4ZM10.468 4C10.878 4 11.167 4.313 11.167 4.663C11.167 4.911 11.022 5.178 10.67 5.365C8.882 6.313 6.812 9.591 6.812 11.613C9.828 11.521 11.138 14.195 11.138 15.871C11.138 17.878 9.399 20 6.83 20C3.589 20 2 17.453 2 14.693C2 8.713 8.833 4 10.468 4Z" fill="#2253F5"/>
</g>
</svg>
