<svg width="169" height="47" viewBox="0 0 169 47" fill="none" xmlns="http://www.w3.org/2000/svg">
<g filter="url(#filter0_b_517_77878)">
<ellipse cx="28.0301" cy="22.8909" rx="22.1696" ry="9.97634" transform="rotate(-90 28.0301 22.8909)" fill="url(#paint0_linear_517_77878)"/>
<path d="M28.0301 0.832122C30.7142 0.832122 33.1811 3.25512 34.9834 7.2601C36.7809 11.2547 37.8956 16.7809 37.8956 22.8909C37.8956 29.0009 36.7809 34.5272 34.9834 38.5217C33.1811 42.5267 30.7142 44.9497 28.0301 44.9497C25.346 44.9497 22.8791 42.5267 21.0769 38.5217C19.2793 34.5272 18.1646 29.0009 18.1646 22.8909C18.1646 16.7809 19.2793 11.2547 21.0769 7.2601C22.8791 3.25512 25.346 0.832122 28.0301 0.832122Z" stroke="url(#paint1_linear_517_77878)" stroke-opacity="0.25" stroke-width="0.221696"/>
</g>
<g filter="url(#filter1_bd_517_77878)">
<ellipse cx="27.9166" cy="23.0514" rx="22.1696" ry="9.97634" transform="rotate(-41.893 27.9166 23.0514)" fill="url(#paint2_linear_517_77878)" shape-rendering="crispEdges"/>
<path d="M44.337 8.32188C46.1293 10.3199 45.9729 13.7742 44.1951 17.7901C42.4218 21.7955 39.0525 26.3153 34.5042 30.3952C29.956 34.4752 25.098 37.3355 20.9241 38.6647C16.7394 39.9975 13.2885 39.779 11.4962 37.781C9.70392 35.783 9.86032 32.3287 11.6382 28.3128C13.4114 24.3074 16.7808 19.7876 21.329 15.7076C25.8773 11.6277 30.7353 8.7674 34.9091 7.43815C39.0938 6.10544 42.5447 6.32385 44.337 8.32188Z" stroke="url(#paint3_linear_517_77878)" stroke-opacity="0.25" stroke-width="0.221696" shape-rendering="crispEdges"/>
</g>
<g filter="url(#filter2_bd_517_77878)">
<ellipse cx="28.0302" cy="22.8914" rx="22.1696" ry="9.97634" fill="url(#paint4_linear_517_77878)" shape-rendering="crispEdges"/>
<path d="M50.089 22.8914C50.089 25.5755 47.666 28.0424 43.661 29.8446C39.6664 31.6422 34.1402 32.7569 28.0302 32.7569C21.9202 32.7569 16.394 31.6422 12.3994 29.8446C8.39441 28.0424 5.97141 25.5755 5.97141 22.8914C5.97141 20.2073 8.39441 17.7404 12.3994 15.9381C16.394 14.1406 21.9202 13.0259 28.0302 13.0259C34.1402 13.0259 39.6664 14.1406 43.661 15.9381C47.666 17.7404 50.089 20.2073 50.089 22.8914Z" stroke="url(#paint5_linear_517_77878)" stroke-opacity="0.25" stroke-width="0.221696" shape-rendering="crispEdges"/>
</g>
<g filter="url(#filter3_bd_517_77878)">
<ellipse cx="27.926" cy="23" rx="22.1696" ry="9.97634" transform="rotate(43.5178 27.926 23)" fill="url(#paint6_linear_517_77878)" shape-rendering="crispEdges"/>
<path d="M43.9222 38.1892C42.074 40.1356 38.6183 40.2561 34.473 38.8053C30.3385 37.3582 25.5636 34.3613 21.1329 30.1541C16.7021 25.9468 13.4622 21.3333 11.8033 17.2792C10.14 13.2145 10.0816 9.75718 11.9298 7.81078C13.7781 5.86437 17.2338 5.74389 21.379 7.19472C25.5135 8.64178 30.2884 11.6387 34.7192 15.8459C39.1499 20.0532 42.3898 24.6667 44.0487 28.7208C45.712 32.7855 45.7704 36.2428 43.9222 38.1892Z" stroke="url(#paint7_linear_517_77878)" stroke-opacity="0.25" stroke-width="0.221696" shape-rendering="crispEdges"/>
</g>
<path d="M20.6419 23.5195L19.4778 23.5218C19.4811 23.4714 19.4911 23.4143 19.5077 23.3504C19.5278 23.2865 19.5596 23.226 19.6031 23.1688C19.65 23.1116 19.7104 23.0644 19.7843 23.0273C19.8614 22.9869 19.9572 22.9665 20.0714 22.9663C20.2461 22.9659 20.3755 23.0127 20.4597 23.1066C20.5472 23.2005 20.608 23.3381 20.6419 23.5195ZM19.4787 23.9754L21.3585 23.9716C21.3715 23.77 21.3543 23.5768 21.3069 23.3922C21.2595 23.2075 21.1819 23.043 21.0741 22.8988C20.9697 22.7545 20.835 22.6405 20.6703 22.5569C20.5055 22.4699 20.3122 22.4266 20.0905 22.427C19.8922 22.4274 19.7109 22.4631 19.5464 22.5339C19.3853 22.6048 19.2461 22.7025 19.1287 22.8271C19.0114 22.9483 18.921 23.0929 18.8575 23.261C18.794 23.4291 18.7624 23.6106 18.7628 23.8055C18.7632 24.007 18.7938 24.1918 18.8546 24.3596C18.9188 24.5275 19.0081 24.6718 19.1226 24.7925C19.2371 24.9132 19.3767 25.007 19.5414 25.0738C19.7062 25.1373 19.891 25.1689 20.096 25.1685C20.3916 25.1679 20.6434 25.1002 20.8515 24.9654C21.0595 24.8306 21.2136 24.6068 21.3138 24.2942L20.6838 24.2955C20.6605 24.3761 20.5968 24.4535 20.4928 24.5277C20.3888 24.5984 20.2645 24.634 20.1201 24.6342C19.9185 24.6346 19.7639 24.5829 19.6561 24.479C19.5484 24.375 19.4893 24.2072 19.4787 23.9754Z" fill="white"/>
<path d="M22.9872 23.1066L21.7106 23.1091C21.7057 23.4787 21.7736 23.7977 21.9141 24.0662C22.0546 24.3347 22.2426 24.5555 22.4782 24.7286C22.7193 24.9017 22.9939 25.0271 23.302 25.1049C23.6158 25.1883 23.9378 25.2296 24.2682 25.229C24.6769 25.2281 25.0352 25.1798 25.343 25.084C25.6563 24.9882 25.9164 24.8561 26.1233 24.6877C26.3357 24.5137 26.4949 24.309 26.6008 24.0736C26.7067 23.8382 26.7594 23.5833 26.7588 23.309C26.7582 22.973 26.6848 22.6988 26.5388 22.4863C26.3984 22.2682 26.2301 22.095 26.0338 21.9666C25.8376 21.8382 25.6386 21.7462 25.4369 21.6906C25.2408 21.6294 25.0868 21.5877 24.9747 21.5655C24.5994 21.4711 24.2941 21.3933 24.0588 21.3322C23.8291 21.2711 23.647 21.2098 23.5125 21.1485C23.3835 21.0872 23.2966 21.0202 23.2517 20.9475C23.2067 20.8748 23.1842 20.7796 23.1839 20.662C23.1837 20.5332 23.2114 20.4268 23.2673 20.3427C23.3231 20.2586 23.3929 20.1885 23.4768 20.1323C23.5663 20.0761 23.6642 20.0367 23.7706 20.0141C23.8769 19.9915 23.9833 19.9801 24.0896 19.9799C24.252 19.9796 24.4004 19.9933 24.5349 20.021C24.6749 20.0487 24.7982 20.0961 24.9047 20.163C25.0112 20.23 25.0954 20.3222 25.1573 20.4397C25.2247 20.5571 25.2642 20.7055 25.2757 20.8846L26.5524 20.882C26.5517 20.5349 26.4839 20.2411 26.349 20.0005C26.2198 19.7544 26.043 19.5532 25.8187 19.3969C25.5944 19.2405 25.3366 19.1291 25.0453 19.0625C24.7596 18.9903 24.4599 18.9545 24.1464 18.9551C23.8776 18.9556 23.6089 18.9926 23.3403 19.0659C23.0717 19.1392 22.8311 19.2517 22.6186 19.4033C22.4062 19.5549 22.233 19.7456 22.0991 19.9755C21.9707 20.1997 21.9069 20.4658 21.9075 20.7738C21.908 21.0482 21.9589 21.2832 22.0601 21.479C22.1668 21.6692 22.3044 21.8285 22.4726 21.9569C22.6408 22.0854 22.8314 22.1914 23.0444 22.2749C23.2573 22.3529 23.4758 22.4197 23.6999 22.4752C23.9184 22.5364 24.1341 22.5919 24.347 22.6419C24.5598 22.6919 24.7503 22.7503 24.9185 22.8171C25.0866 22.884 25.2211 22.9677 25.3221 23.0683C25.4287 23.1689 25.4822 23.3003 25.4825 23.4627C25.4828 23.6139 25.4439 23.74 25.3657 23.8409C25.2875 23.9363 25.1896 24.012 25.0722 24.0683C24.9547 24.1245 24.8288 24.164 24.6944 24.1866C24.5601 24.2037 24.4341 24.2123 24.3165 24.2126C24.1429 24.2129 23.9749 24.1937 23.8125 24.1548C23.65 24.1103 23.5071 24.0462 23.3837 23.9625C23.266 23.8731 23.1705 23.7585 23.0975 23.6187C23.0244 23.4789 22.9877 23.3081 22.9872 23.1066Z" fill="white"/>
<path d="M27.535 19.0911L27.547 25.088L28.8657 25.0853L28.8536 19.0884L27.535 19.0911Z" fill="white"/>
<path d="M30.012 19.0861L30.0241 25.083L31.2587 25.0805L31.2503 20.8726L31.2671 20.8726L32.7454 25.0775L33.7617 25.0755L35.223 20.8226L35.2398 20.8226L35.2483 25.0725L36.483 25.07L36.4709 19.0731L34.6147 19.0768L33.2959 23.2034L33.2792 23.2035L31.8682 19.0824L30.012 19.0861Z" fill="white"/>
<g filter="url(#filter4_d_517_77878)">
<path d="M29.1851 26.8465L29.1837 26.1832L29.5619 26.1824C29.6177 26.1823 29.6715 26.1863 29.7232 26.1945C29.7748 26.2026 29.8203 26.2191 29.8596 26.2438C29.899 26.2665 29.93 26.2995 29.9528 26.3428C29.9777 26.3862 29.9902 26.443 29.9904 26.5132C29.9905 26.5835 29.9782 26.6403 29.9535 26.6838C29.9309 26.7272 29.9 26.7614 29.8607 26.7863C29.8215 26.8091 29.7761 26.8247 29.7244 26.8331C29.6728 26.8414 29.6191 26.8457 29.5633 26.8458L29.1851 26.8465ZM28.6963 25.806L28.7008 28.0193L29.1874 28.0183L29.1858 27.2247L29.6973 27.2237C29.8358 27.2234 29.9535 27.2035 30.0506 27.1641C30.1476 27.1226 30.2261 27.0687 30.2859 27.0024C30.3477 26.9362 30.392 26.8606 30.4187 26.7759C30.4475 26.689 30.4617 26.6011 30.4616 26.5123C30.4614 26.4214 30.4467 26.3336 30.4176 26.2489C30.3906 26.1642 30.346 26.0889 30.2839 26.0229C30.2238 25.9568 30.1452 25.9043 30.048 25.8652C29.9508 25.8241 29.8329 25.8037 29.6945 25.8039L28.6963 25.806Z" fill="#54C7FC"/>
<path d="M30.7639 25.8018L30.7684 28.0151L32.3338 28.012L32.333 27.6028L31.2542 27.605L31.2506 25.8008L30.7639 25.8018Z" fill="#54C7FC"/>
<path d="M34.4827 27.1707L34.48 25.7943L33.9933 25.7953L33.9961 27.1717C33.9964 27.337 33.9636 27.459 33.8976 27.5376C33.8316 27.6142 33.7118 27.6527 33.5382 27.6531C33.439 27.6533 33.3594 27.64 33.2995 27.6132C33.2415 27.5844 33.196 27.5484 33.1628 27.505C33.1297 27.4596 33.1079 27.408 33.0974 27.3502C33.087 27.2923 33.0817 27.2334 33.0816 27.1735L33.0788 25.7971L32.5921 25.7981L32.5949 27.1745C32.5955 27.4762 32.6776 27.6992 32.8411 27.8436C33.0068 27.9879 33.2394 28.0598 33.539 28.0591C33.8346 28.0586 34.0659 27.9858 34.233 27.8408C34.4001 27.6937 34.4833 27.4703 34.4827 27.1707Z" fill="#54C7FC"/>
<path d="M35.2338 27.2715L34.7626 27.2724C34.7608 27.4088 34.7858 27.5266 34.8377 27.6257C34.8896 27.7247 34.9589 27.8062 35.0459 27.8701C35.1349 27.934 35.2362 27.9803 35.3499 28.009C35.4657 28.0398 35.5846 28.055 35.7065 28.0548C35.8574 28.0545 35.9896 28.0367 36.1032 28.0013C36.2189 27.9659 36.3149 27.9172 36.3912 27.855C36.4696 27.7908 36.5283 27.7153 36.5674 27.6284C36.6065 27.5415 36.626 27.4474 36.6258 27.3462C36.6255 27.2222 36.5985 27.121 36.5446 27.0425C36.4927 26.9621 36.4306 26.8981 36.3582 26.8507C36.2858 26.8033 36.2123 26.7694 36.1379 26.7489C36.0655 26.7263 36.0086 26.7109 35.9673 26.7027C35.8288 26.6679 35.7161 26.6392 35.6292 26.6166C35.5445 26.594 35.4773 26.5714 35.4276 26.5488C35.38 26.5262 35.3479 26.5014 35.3314 26.4746C35.3148 26.4478 35.3064 26.4127 35.3064 26.3693C35.3063 26.3217 35.3165 26.2824 35.3371 26.2514C35.3577 26.2204 35.3835 26.1945 35.4145 26.1737C35.4475 26.153 35.4836 26.1385 35.5229 26.1301C35.5621 26.1218 35.6014 26.1176 35.6406 26.1175C35.7006 26.1174 35.7553 26.1224 35.805 26.1327C35.8566 26.1429 35.9021 26.1604 35.9415 26.1851C35.9808 26.2098 36.0118 26.2438 36.0347 26.2872C36.0595 26.3305 36.0741 26.3853 36.0784 26.4514L36.5496 26.4505C36.5493 26.3223 36.5243 26.2139 36.4745 26.1251C36.4268 26.0343 36.3616 25.96 36.2788 25.9023C36.196 25.8446 36.1009 25.8035 35.9933 25.7789C35.8879 25.7522 35.7773 25.739 35.6616 25.7393C35.5624 25.7395 35.4632 25.7531 35.3641 25.7802C35.2649 25.8072 35.1761 25.8487 35.0977 25.9047C35.0193 25.9606 34.9554 26.031 34.906 26.1159C34.8586 26.1986 34.835 26.2968 34.8352 26.4105C34.8355 26.5118 34.8542 26.5985 34.8916 26.6708C34.931 26.741 34.9817 26.7998 35.0438 26.8472C35.1059 26.8946 35.1763 26.9337 35.2548 26.9645C35.3334 26.9933 35.4141 27.018 35.4968 27.0385C35.5774 27.061 35.657 27.0815 35.7356 27.1C35.8142 27.1184 35.8845 27.14 35.9465 27.1646C36.0086 27.1893 36.0582 27.2202 36.0955 27.2573C36.1348 27.2945 36.1546 27.343 36.1547 27.4029C36.1548 27.4587 36.1404 27.5052 36.1116 27.5425C36.0827 27.5777 36.0466 27.6057 36.0033 27.6264C35.9599 27.6472 35.9134 27.6617 35.8638 27.6701C35.8143 27.6764 35.7678 27.6796 35.7244 27.6797C35.6603 27.6798 35.5983 27.6727 35.5383 27.6583C35.4784 27.6419 35.4256 27.6183 35.3801 27.5874C35.3366 27.5544 35.3014 27.5121 35.2744 27.4605C35.2475 27.4089 35.2339 27.3459 35.2338 27.2715Z" fill="#54C7FC"/>
</g>
<path d="M66.22 32.7756C62.1645 32.7756 59.7101 30.0063 59.7101 25.6489V25.6358C59.7101 21.3177 62.2038 18.4303 66.0756 18.4303C69.9474 18.4303 72.323 21.2127 72.323 25.3602V26.3183H62.5451C62.5976 28.9301 64.0282 30.4525 66.2856 30.4525C67.9656 30.4525 69.0812 29.5863 69.4355 28.5495L69.4749 28.4445H72.1655L72.1392 28.5888C71.693 30.7807 69.5668 32.7756 66.22 32.7756ZM66.0887 20.7534C64.2513 20.7534 62.8338 22.0002 62.5844 24.3102H69.5143C69.278 21.9215 67.9393 20.7534 66.0887 20.7534ZM81.3265 32.815C77.0741 32.815 74.2654 30.7938 74.0292 27.4601L74.0161 27.2632H76.8773L76.9035 27.4339C77.166 29.1794 78.9116 30.2688 81.4447 30.2688C83.9777 30.2688 85.5789 29.1269 85.5789 27.3551V27.342C85.5789 25.8195 84.5421 24.9927 82.0353 24.4414L79.9747 24.0083C76.2604 23.2208 74.4623 21.5146 74.4623 18.7059V18.6928C74.4754 15.4641 77.3235 13.246 81.3265 13.246C85.2771 13.246 87.9808 15.3985 88.1776 18.5747L88.1908 18.7978H85.3296L85.3165 18.6141C85.054 16.8553 83.5315 15.7922 81.2872 15.7922C78.9378 15.8054 77.4416 16.921 77.4416 18.5747V18.5878C77.4416 20.0053 78.5178 20.8715 80.8803 21.3834L82.954 21.8165C86.8652 22.6433 88.5451 24.2314 88.5451 27.1582V27.1714C88.5451 30.6232 85.8152 32.815 81.3265 32.815ZM91.1963 32.5V13.561H94.1363V32.5H91.1963ZM97.6274 32.5V13.561H101.027L107.156 28.6807H107.235L113.377 13.561H116.763V32.5H114.086V18.5222H113.994L108.285 32.5H106.106L100.397 18.5222H100.305V32.5H97.6274ZM125.649 32.5V13.561H131.686C135.374 13.561 137.776 15.766 137.776 19.1915V19.2178C137.776 22.6433 135.374 24.8614 131.686 24.8614H126.686V32.5H125.649ZM131.529 14.506H126.686V23.9164H131.529C134.718 23.9164 136.726 22.1315 136.726 19.2178V19.1915C136.726 16.2779 134.718 14.506 131.529 14.506ZM140.138 32.5V13.561H141.162V32.5H140.138ZM149.155 32.71C146.084 32.71 144.22 30.7675 144.22 27.4339V18.8503H145.231V27.3157C145.231 30.2425 146.793 31.7913 149.391 31.7913C152.082 31.7913 153.893 29.8357 153.893 27.0007V18.8503H154.917V32.5H153.893V29.6651H153.854C153.224 31.4106 151.531 32.71 149.155 32.71ZM162.437 32.7231C159.497 32.7231 157.463 31.0563 157.201 28.6807L157.187 28.5626H158.198L158.224 28.6807C158.487 30.5313 160.114 31.8306 162.424 31.8306C164.773 31.8306 166.375 30.6625 166.375 28.9695V28.9563C166.375 27.4995 165.522 26.7514 163.33 26.2395L161.427 25.7933C158.828 25.1895 157.634 24.1264 157.634 22.3415V22.3283C157.634 20.1628 159.576 18.6272 162.28 18.6272C165.075 18.6272 166.9 20.2415 167.175 22.6696L167.188 22.7877H166.204L166.191 22.6958C165.928 20.7796 164.458 19.5197 162.28 19.5197C160.154 19.5197 158.657 20.6878 158.657 22.3152V22.3283C158.657 23.6277 159.537 24.3889 161.729 24.9008L163.632 25.347C166.309 25.977 167.412 27.0139 167.412 28.9038V28.917C167.412 31.1613 165.338 32.7231 162.437 32.7231Z" fill="white"/>
<defs>
<filter id="filter0_b_517_77878" x="14.5067" y="-2.82546" width="27.047" height="51.4332" filterUnits="userSpaceOnUse" color-interpolation-filters="sRGB">
<feFlood flood-opacity="0" result="BackgroundImageFix"/>
<feGaussianBlur in="BackgroundImageFix" stdDeviation="1.77357"/>
<feComposite in2="SourceAlpha" operator="in" result="effect1_backgroundBlur_517_77878"/>
<feBlend mode="normal" in="SourceGraphic" in2="effect1_backgroundBlur_517_77878" result="shape"/>
</filter>
<filter id="filter1_bd_517_77878" x="4.57276" y="1.8307" width="46.6877" height="44.2157" filterUnits="userSpaceOnUse" color-interpolation-filters="sRGB">
<feFlood flood-opacity="0" result="BackgroundImageFix"/>
<feGaussianBlur in="BackgroundImageFix" stdDeviation="1.77357"/>
<feComposite in2="SourceAlpha" operator="in" result="effect1_backgroundBlur_517_77878"/>
<feColorMatrix in="SourceAlpha" type="matrix" values="0 0 0 0 0 0 0 0 0 0 0 0 0 0 0 0 0 0 127 0" result="hardAlpha"/>
<feOffset dy="0.886785"/>
<feGaussianBlur stdDeviation="2.7712"/>
<feComposite in2="hardAlpha" operator="out"/>
<feColorMatrix type="matrix" values="0 0 0 0 0 0 0 0 0 0 0 0 0 0 0 0 0 0 0.25 0"/>
<feBlend mode="normal" in2="effect1_backgroundBlur_517_77878" result="effect2_dropShadow_517_77878"/>
<feBlend mode="normal" in="SourceGraphic" in2="effect2_dropShadow_517_77878" result="shape"/>
</filter>
<filter id="filter2_bd_517_77878" x="0.318156" y="8.25942" width="55.4241" height="31.0379" filterUnits="userSpaceOnUse" color-interpolation-filters="sRGB">
<feFlood flood-opacity="0" result="BackgroundImageFix"/>
<feGaussianBlur in="BackgroundImageFix" stdDeviation="1.77357"/>
<feComposite in2="SourceAlpha" operator="in" result="effect1_backgroundBlur_517_77878"/>
<feColorMatrix in="SourceAlpha" type="matrix" values="0 0 0 0 0 0 0 0 0 0 0 0 0 0 0 0 0 0 127 0" result="hardAlpha"/>
<feOffset dy="0.886785"/>
<feGaussianBlur stdDeviation="2.7712"/>
<feComposite in2="hardAlpha" operator="out"/>
<feColorMatrix type="matrix" values="0 0 0 0 0 0 0 0 0 0 0 0 0 0 0 0 0 0 0.25 0"/>
<feBlend mode="normal" in2="effect1_backgroundBlur_517_77878" result="effect2_dropShadow_517_77878"/>
<feBlend mode="normal" in="SourceGraphic" in2="effect2_dropShadow_517_77878" result="shape"/>
</filter>
<filter id="filter3_bd_517_77878" x="4.8964" y="1.44692" width="46.0592" height="44.8797" filterUnits="userSpaceOnUse" color-interpolation-filters="sRGB">
<feFlood flood-opacity="0" result="BackgroundImageFix"/>
<feGaussianBlur in="BackgroundImageFix" stdDeviation="1.77357"/>
<feComposite in2="SourceAlpha" operator="in" result="effect1_backgroundBlur_517_77878"/>
<feColorMatrix in="SourceAlpha" type="matrix" values="0 0 0 0 0 0 0 0 0 0 0 0 0 0 0 0 0 0 127 0" result="hardAlpha"/>
<feOffset dy="0.886785"/>
<feGaussianBlur stdDeviation="2.7712"/>
<feComposite in2="hardAlpha" operator="out"/>
<feColorMatrix type="matrix" values="0 0 0 0 0 0 0 0 0 0 0 0 0 0 0 0 0 0 0.25 0"/>
<feBlend mode="normal" in2="effect1_backgroundBlur_517_77878" result="effect2_dropShadow_517_77878"/>
<feBlend mode="normal" in="SourceGraphic" in2="effect2_dropShadow_517_77878" result="shape"/>
</filter>
<filter id="filter4_d_517_77878" x="27.3661" y="24.6308" width="10.5898" height="4.98067" filterUnits="userSpaceOnUse" color-interpolation-filters="sRGB">
<feFlood flood-opacity="0" result="BackgroundImageFix"/>
<feColorMatrix in="SourceAlpha" type="matrix" values="0 0 0 0 0 0 0 0 0 0 0 0 0 0 0 0 0 0 127 0" result="hardAlpha"/>
<feOffset dy="0.221696"/>
<feGaussianBlur stdDeviation="0.665089"/>
<feComposite in2="hardAlpha" operator="out"/>
<feColorMatrix type="matrix" values="0 0 0 0 0 0 0 0 0 0 0 0 0 0 0 0 0 0 0.25 0"/>
<feBlend mode="normal" in2="BackgroundImageFix" result="effect1_dropShadow_517_77878"/>
<feBlend mode="normal" in="SourceGraphic" in2="effect1_dropShadow_517_77878" result="shape"/>
</filter>
<linearGradient id="paint0_linear_517_77878" x1="5.41585" y1="32.4056" x2="50.1998" y2="32.378" gradientUnits="userSpaceOnUse">
<stop stop-color="#1C88EB" stop-opacity="0.65"/>
<stop offset="1" stop-color="#0057FF" stop-opacity="0.65"/>
</linearGradient>
<linearGradient id="paint1_linear_517_77878" x1="37.5449" y1="45.5052" x2="38.4125" y2="1.67579" gradientUnits="userSpaceOnUse">
<stop stop-color="white" stop-opacity="0"/>
<stop offset="1" stop-color="white"/>
</linearGradient>
<linearGradient id="paint2_linear_517_77878" x1="5.30233" y1="32.5662" x2="50.0863" y2="32.5385" gradientUnits="userSpaceOnUse">
<stop stop-color="#1C25EB" stop-opacity="0.65"/>
<stop offset="1" stop-color="#00D1FF" stop-opacity="0.65"/>
</linearGradient>
<linearGradient id="paint3_linear_517_77878" x1="17.4361" y1="45.2346" x2="50.6417" y2="16.6138" gradientUnits="userSpaceOnUse">
<stop stop-color="white" stop-opacity="0"/>
<stop offset="1" stop-color="white"/>
</linearGradient>
<linearGradient id="paint4_linear_517_77878" x1="5.41591" y1="32.4061" x2="50.1999" y2="32.3784" gradientUnits="userSpaceOnUse">
<stop stop-color="#771CEB" stop-opacity="0.65"/>
<stop offset="1" stop-color="#00FFA3" stop-opacity="0.65"/>
</linearGradient>
<linearGradient id="paint5_linear_517_77878" x1="5.41591" y1="32.4061" x2="49.2453" y2="33.2737" gradientUnits="userSpaceOnUse">
<stop stop-color="white"/>
<stop offset="1" stop-color="white" stop-opacity="0"/>
</linearGradient>
<linearGradient id="paint6_linear_517_77878" x1="5.31174" y1="32.5147" x2="49.1411" y2="33.3823" gradientUnits="userSpaceOnUse">
<stop stop-color="#00FFF0" stop-opacity="0.65"/>
<stop offset="1" stop-color="#0704B5" stop-opacity="0.65"/>
</linearGradient>
<linearGradient id="paint7_linear_517_77878" x1="4.97539" y1="14.328" x2="36.1613" y2="45.1372" gradientUnits="userSpaceOnUse">
<stop stop-color="white"/>
<stop offset="1" stop-color="white" stop-opacity="0"/>
</linearGradient>
</defs>
</svg>
