<svg width="169" height="47" viewBox="0 0 169 47" fill="none" xmlns="http://www.w3.org/2000/svg">
<g filter="url(#filter0_b_517_20239)">
<ellipse cx="28.0301" cy="22.8913" rx="22.1696" ry="9.97634" transform="rotate(-90 28.0301 22.8913)" fill="url(#paint0_linear_517_20239)"/>
<path d="M28.0301 0.832519C30.7142 0.832519 33.1811 3.25552 34.9834 7.2605C36.7809 11.2551 37.8956 16.7813 37.8956 22.8913C37.8956 29.0013 36.7809 34.5275 34.9834 38.5221C33.1811 42.5271 30.7142 44.9501 28.0301 44.9501C25.346 44.9501 22.8791 42.5271 21.0769 38.5221C19.2793 34.5275 18.1646 29.0013 18.1646 22.8913C18.1646 16.7813 19.2793 11.2551 21.0769 7.2605C22.8791 3.25552 25.346 0.832519 28.0301 0.832519Z" stroke="url(#paint1_linear_517_20239)" stroke-opacity="0.25" stroke-width="0.221696"/>
</g>
<g filter="url(#filter1_bd_517_20239)">
<ellipse cx="27.9166" cy="23.0517" rx="22.1696" ry="9.97634" transform="rotate(-41.893 27.9166 23.0517)" fill="url(#paint2_linear_517_20239)" shape-rendering="crispEdges"/>
<path d="M44.337 8.32215C46.1293 10.3202 45.9729 13.7745 44.1951 17.7903C42.4218 21.7958 39.0525 26.3156 34.5042 30.3955C29.956 34.4754 25.098 37.3358 20.9241 38.665C16.7394 39.9977 13.2885 39.7793 11.4962 37.7813C9.70392 35.7833 9.86032 32.329 11.6382 28.3131C13.4114 24.3077 16.7808 19.7878 21.329 15.7079C25.8773 11.628 30.7353 8.76768 34.9091 7.43843C39.0938 6.10571 42.5447 6.32413 44.337 8.32215Z" stroke="url(#paint3_linear_517_20239)" stroke-opacity="0.25" stroke-width="0.221696" shape-rendering="crispEdges"/>
</g>
<g filter="url(#filter2_bd_517_20239)">
<ellipse cx="28.0302" cy="22.8913" rx="22.1696" ry="9.97634" fill="url(#paint4_linear_517_20239)" shape-rendering="crispEdges"/>
<path d="M50.089 22.8913C50.089 25.5754 47.666 28.0423 43.661 29.8445C39.6664 31.6421 34.1402 32.7568 28.0302 32.7568C21.9202 32.7568 16.394 31.6421 12.3994 29.8445C8.39441 28.0423 5.97141 25.5754 5.97141 22.8913C5.97141 20.2072 8.39441 17.7403 12.3994 15.938C16.394 14.1405 21.9202 13.0258 28.0302 13.0258C34.1402 13.0258 39.6664 14.1405 43.661 15.938C47.666 17.7403 50.089 20.2072 50.089 22.8913Z" stroke="url(#paint5_linear_517_20239)" stroke-opacity="0.25" stroke-width="0.221696" shape-rendering="crispEdges"/>
</g>
<g filter="url(#filter3_bd_517_20239)">
<ellipse cx="27.926" cy="23" rx="22.1696" ry="9.97634" transform="rotate(43.5178 27.926 23)" fill="url(#paint6_linear_517_20239)" shape-rendering="crispEdges"/>
<path d="M43.9222 38.1892C42.074 40.1356 38.6183 40.2561 34.473 38.8053C30.3385 37.3582 25.5636 34.3613 21.1329 30.1541C16.7021 25.9468 13.4622 21.3333 11.8033 17.2792C10.14 13.2145 10.0816 9.75717 11.9298 7.81076C13.7781 5.86436 17.2338 5.74388 21.379 7.19471C25.5135 8.64177 30.2884 11.6387 34.7192 15.8459C39.1499 20.0531 42.3898 24.6667 44.0487 28.7208C45.712 32.7855 45.7704 36.2428 43.9222 38.1892Z" stroke="url(#paint7_linear_517_20239)" stroke-opacity="0.25" stroke-width="0.221696" shape-rendering="crispEdges"/>
</g>
<path d="M20.6419 23.5195L19.4778 23.5219C19.4811 23.4715 19.4911 23.4144 19.5077 23.3505C19.5278 23.2866 19.5596 23.2261 19.6031 23.1689C19.65 23.1117 19.7104 23.0645 19.7843 23.0274C19.8614 22.9869 19.9572 22.9666 20.0714 22.9664C20.2461 22.966 20.3755 23.0128 20.4597 23.1067C20.5472 23.2006 20.608 23.3382 20.6419 23.5195ZM19.4787 23.9754L21.3585 23.9717C21.3715 23.7701 21.3543 23.5769 21.3069 23.3922C21.2595 23.2075 21.1819 23.0431 21.0741 22.8988C20.9697 22.7546 20.835 22.6406 20.6703 22.557C20.5055 22.4699 20.3122 22.4267 20.0905 22.4271C19.8922 22.4275 19.7109 22.4631 19.5464 22.534C19.3853 22.6049 19.2461 22.7026 19.1287 22.8271C19.0114 22.9483 18.921 23.093 18.8575 23.2611C18.794 23.4292 18.7624 23.6107 18.7628 23.8055C18.7632 24.0071 18.7938 24.1918 18.8546 24.3597C18.9188 24.5275 19.0081 24.6718 19.1226 24.7925C19.2371 24.9133 19.3767 25.0071 19.5414 25.0739C19.7062 25.1374 19.891 25.169 20.096 25.1685C20.3916 25.168 20.6434 25.1003 20.8515 24.9655C21.0595 24.8306 21.2136 24.6069 21.3138 24.2943L20.6838 24.2955C20.6605 24.3762 20.5968 24.4536 20.4928 24.5277C20.3888 24.5985 20.2645 24.634 20.1201 24.6343C19.9185 24.6347 19.7639 24.583 19.6561 24.479C19.5484 24.3751 19.4893 24.2072 19.4787 23.9754Z" fill="white"/>
<path d="M22.9872 23.1066L21.7106 23.1092C21.7057 23.4788 21.7736 23.7978 21.9141 24.0663C22.0546 24.3348 22.2426 24.5556 22.4782 24.7287C22.7193 24.9018 22.9939 25.0272 23.302 25.105C23.6158 25.1884 23.9378 25.2297 24.2682 25.229C24.6769 25.2282 25.0352 25.1799 25.343 25.0841C25.6563 24.9883 25.9164 24.8562 26.1233 24.6878C26.3357 24.5138 26.4949 24.3091 26.6008 24.0737C26.7067 23.8383 26.7594 23.5834 26.7588 23.309C26.7582 22.9731 26.6848 22.6989 26.5388 22.4864C26.3984 22.2683 26.2301 22.095 26.0338 21.9666C25.8376 21.8383 25.6386 21.7463 25.4369 21.6907C25.2408 21.6295 25.0868 21.5878 24.9747 21.5656C24.5994 21.4712 24.2941 21.3934 24.0588 21.3323C23.8291 21.2711 23.647 21.2099 23.5125 21.1486C23.3835 21.0873 23.2966 21.0202 23.2517 20.9475C23.2067 20.8748 23.1842 20.7797 23.1839 20.6621C23.1837 20.5333 23.2114 20.4269 23.2673 20.3428C23.3231 20.2587 23.3929 20.1885 23.4768 20.1324C23.5663 20.0762 23.6642 20.0368 23.7706 20.0142C23.8769 19.9916 23.9833 19.9802 24.0896 19.98C24.252 19.9796 24.4004 19.9933 24.5349 20.0211C24.6749 20.0488 24.7982 20.0961 24.9047 20.1631C25.0112 20.2301 25.0954 20.3223 25.1573 20.4398C25.2247 20.5572 25.2642 20.7055 25.2757 20.8847L26.5524 20.8821C26.5517 20.535 26.4839 20.2411 26.349 20.0006C26.2198 19.7545 26.043 19.5533 25.8187 19.397C25.5944 19.2406 25.3366 19.1292 25.0453 19.0625C24.7596 18.9903 24.4599 18.9545 24.1464 18.9552C23.8776 18.9557 23.6089 18.9926 23.3403 19.066C23.0717 19.1393 22.8311 19.2518 22.6186 19.4034C22.4062 19.555 22.233 19.7457 22.0991 19.9756C21.9707 20.1998 21.9069 20.4659 21.9075 20.7739C21.908 21.0482 21.9589 21.2833 22.0601 21.4791C22.1668 21.6692 22.3044 21.8286 22.4726 21.957C22.6408 22.0854 22.8314 22.1915 23.0444 22.275C23.2573 22.353 23.4758 22.4197 23.6999 22.4753C23.9184 22.5364 24.1341 22.592 24.347 22.642C24.5598 22.6919 24.7503 22.7503 24.9185 22.8172C25.0866 22.884 25.2211 22.9678 25.3221 23.0684C25.4287 23.1689 25.4822 23.3004 25.4825 23.4628C25.4828 23.614 25.4439 23.74 25.3657 23.841C25.2875 23.9363 25.1896 24.0121 25.0722 24.0684C24.9547 24.1246 24.8288 24.164 24.6944 24.1867C24.5601 24.2038 24.4341 24.2124 24.3165 24.2127C24.1429 24.213 23.9749 24.1937 23.8125 24.1549C23.65 24.1104 23.5071 24.0463 23.3837 23.9626C23.266 23.8732 23.1705 23.7586 23.0975 23.6188C23.0244 23.4789 22.9877 23.3082 22.9872 23.1066Z" fill="white"/>
<path d="M27.535 19.0911L27.547 25.0881L28.8657 25.0854L28.8536 19.0885L27.535 19.0911Z" fill="white"/>
<path d="M30.012 19.0862L30.0241 25.0831L31.2587 25.0806L31.2503 20.8727L31.2671 20.8727L32.7454 25.0776L33.7617 25.0756L35.223 20.8227L35.2398 20.8227L35.2483 25.0726L36.483 25.0701L36.4709 19.0732L34.6147 19.0769L33.2959 23.2035L33.2792 23.2036L31.8682 19.0824L30.012 19.0862Z" fill="white"/>
<g filter="url(#filter4_d_517_20239)">
<path d="M29.1851 26.8468L29.1837 26.1834L29.5619 26.1827C29.6177 26.1826 29.6715 26.1866 29.7232 26.1947C29.7748 26.2029 29.8203 26.2194 29.8596 26.2441C29.899 26.2667 29.93 26.2997 29.9528 26.3431C29.9777 26.3864 29.9902 26.4432 29.9904 26.5135C29.9905 26.5838 29.9782 26.6406 29.9535 26.6841C29.9309 26.7275 29.9 26.7617 29.8607 26.7866C29.8215 26.8094 29.7761 26.825 29.7244 26.8333C29.6728 26.8417 29.6191 26.8459 29.5633 26.8461L29.1851 26.8468ZM28.6963 25.8062L28.7008 28.0195L29.1874 28.0186L29.1858 27.225L29.6973 27.224C29.8358 27.2237 29.9535 27.2038 30.0506 27.1644C30.1476 27.1228 30.2261 27.0689 30.2859 27.0027C30.3477 26.9364 30.392 26.8609 30.4187 26.7761C30.4475 26.6893 30.4617 26.6014 30.4616 26.5126C30.4614 26.4216 30.4467 26.3338 30.4176 26.2492C30.3906 26.1645 30.346 26.0891 30.2839 26.0231C30.2238 25.9571 30.1452 25.9046 30.048 25.8655C29.9508 25.8244 29.8329 25.8039 29.6945 25.8042L28.6963 25.8062Z" fill="#54C7FC"/>
<path d="M30.7639 25.8021L30.7684 28.0154L32.3338 28.0122L32.333 27.6031L31.2542 27.6052L31.2506 25.8011L30.7639 25.8021Z" fill="#54C7FC"/>
<path d="M34.4827 27.171L34.48 25.7946L33.9933 25.7956L33.9961 27.1719C33.9964 27.3373 33.9636 27.4593 33.8976 27.5379C33.8316 27.6145 33.7118 27.653 33.5382 27.6533C33.439 27.6535 33.3594 27.6403 33.2995 27.6135C33.2415 27.5847 33.196 27.5486 33.1628 27.5053C33.1297 27.4599 33.1079 27.4083 33.0974 27.3504C33.087 27.2926 33.0817 27.2337 33.0816 27.1738L33.0788 25.7974L32.5921 25.7984L32.5949 27.1747C32.5955 27.4765 32.6776 27.6995 32.8411 27.8438C33.0068 27.9882 33.2394 28.06 33.539 28.0594C33.8346 28.0588 34.0659 27.986 34.233 27.841C34.4001 27.694 34.4833 27.4706 34.4827 27.171Z" fill="#54C7FC"/>
<path d="M35.2338 27.2717L34.7626 27.2727C34.7608 27.4091 34.7858 27.5268 34.8377 27.6259C34.8896 27.725 34.9589 27.8065 35.0459 27.8704C35.1349 27.9343 35.2362 27.9806 35.3499 28.0093C35.4657 28.0401 35.5846 28.0553 35.7065 28.0551C35.8574 28.0548 35.9896 28.0369 36.1032 28.0016C36.2189 27.9662 36.3149 27.9175 36.3912 27.8553C36.4696 27.7911 36.5283 27.7155 36.5674 27.6287C36.6065 27.5418 36.626 27.4477 36.6258 27.3464C36.6255 27.2225 36.5985 27.1212 36.5446 27.0428C36.4927 26.9623 36.4306 26.8984 36.3582 26.851C36.2858 26.8036 36.2123 26.7697 36.1379 26.7491C36.0655 26.7266 36.0086 26.7112 35.9673 26.703C35.8288 26.6681 35.7161 26.6394 35.6292 26.6169C35.5445 26.5943 35.4773 26.5717 35.4276 26.5491C35.38 26.5264 35.3479 26.5017 35.3314 26.4749C35.3148 26.448 35.3064 26.4129 35.3064 26.3695C35.3063 26.322 35.3165 26.2827 35.3371 26.2517C35.3577 26.2206 35.3835 26.1947 35.4145 26.174C35.4475 26.1533 35.4836 26.1387 35.5229 26.1304C35.5621 26.1221 35.6014 26.1178 35.6406 26.1178C35.7006 26.1176 35.7553 26.1227 35.805 26.1329C35.8566 26.1432 35.9021 26.1606 35.9415 26.1854C35.9808 26.2101 36.0118 26.2441 36.0347 26.2875C36.0595 26.3308 36.0741 26.3856 36.0784 26.4517L36.5496 26.4507C36.5493 26.3226 36.5243 26.2142 36.4745 26.1254C36.4268 26.0346 36.3616 25.9603 36.2788 25.9026C36.196 25.8449 36.1009 25.8038 35.9933 25.7792C35.8879 25.7525 35.7773 25.7393 35.6616 25.7395C35.5624 25.7397 35.4632 25.7534 35.3641 25.7804C35.2649 25.8075 35.1761 25.849 35.0977 25.905C35.0193 25.9609 34.9554 26.0313 34.906 26.1161C34.8586 26.1989 34.835 26.2971 34.8352 26.4108C34.8355 26.512 34.8542 26.5988 34.8916 26.6711C34.931 26.7412 34.9817 26.8 35.0438 26.8474C35.1059 26.8948 35.1763 26.934 35.2548 26.9648C35.3334 26.9936 35.4141 27.0182 35.4968 27.0387C35.5774 27.0613 35.657 27.0818 35.7356 27.1002C35.8142 27.1187 35.8845 27.1402 35.9465 27.1649C36.0086 27.1896 36.0582 27.2205 36.0955 27.2576C36.1348 27.2947 36.1546 27.3433 36.1547 27.4032C36.1548 27.459 36.1404 27.5055 36.1116 27.5428C36.0827 27.578 36.0466 27.6059 36.0033 27.6267C35.9599 27.6474 35.9134 27.662 35.8638 27.6704C35.8143 27.6767 35.7678 27.6799 35.7244 27.6799C35.6603 27.6801 35.5983 27.673 35.5383 27.6586C35.4784 27.6422 35.4256 27.6185 35.3801 27.5876C35.3366 27.5547 35.3014 27.5124 35.2744 27.4608C35.2475 27.4091 35.2339 27.3461 35.2338 27.2717Z" fill="#54C7FC"/>
</g>
<path d="M66.22 32.7756C62.1645 32.7756 59.7101 30.0063 59.7101 25.6489V25.6358C59.7101 21.3177 62.2038 18.4303 66.0756 18.4303C69.9474 18.4303 72.323 21.2127 72.323 25.3602V26.3183H62.5451C62.5976 28.9301 64.0282 30.4525 66.2856 30.4525C67.9656 30.4525 69.0812 29.5863 69.4355 28.5495L69.4749 28.4445H72.1655L72.1392 28.5888C71.693 30.7807 69.5668 32.7756 66.22 32.7756ZM66.0887 20.7534C64.2513 20.7534 62.8338 22.0002 62.5844 24.3102H69.5143C69.278 21.9215 67.9393 20.7534 66.0887 20.7534ZM81.3265 32.815C77.0741 32.815 74.2654 30.7938 74.0292 27.4601L74.0161 27.2632H76.8773L76.9035 27.4339C77.166 29.1794 78.9116 30.2688 81.4447 30.2688C83.9777 30.2688 85.5789 29.1269 85.5789 27.3551V27.342C85.5789 25.8195 84.5421 24.9927 82.0353 24.4414L79.9747 24.0083C76.2604 23.2208 74.4623 21.5146 74.4623 18.7059V18.6928C74.4754 15.4641 77.3235 13.246 81.3265 13.246C85.2771 13.246 87.9808 15.3985 88.1776 18.5747L88.1908 18.7978H85.3296L85.3165 18.6141C85.054 16.8553 83.5315 15.7922 81.2872 15.7922C78.9378 15.8054 77.4416 16.921 77.4416 18.5747V18.5878C77.4416 20.0053 78.5178 20.8715 80.8803 21.3834L82.954 21.8165C86.8652 22.6433 88.5451 24.2314 88.5451 27.1582V27.1714C88.5451 30.6232 85.8152 32.815 81.3265 32.815ZM91.1963 32.5V13.561H94.1363V32.5H91.1963ZM97.6274 32.5V13.561H101.027L107.156 28.6807H107.235L113.377 13.561H116.763V32.5H114.086V18.5222H113.994L108.285 32.5H106.106L100.397 18.5222H100.305V32.5H97.6274ZM125.649 32.5V13.561H131.686C135.374 13.561 137.776 15.766 137.776 19.1915V19.2178C137.776 22.6433 135.374 24.8614 131.686 24.8614H126.686V32.5H125.649ZM131.529 14.506H126.686V23.9164H131.529C134.718 23.9164 136.726 22.1315 136.726 19.2178V19.1915C136.726 16.2779 134.718 14.506 131.529 14.506ZM140.138 32.5V13.561H141.162V32.5H140.138ZM149.155 32.71C146.084 32.71 144.22 30.7675 144.22 27.4339V18.8503H145.231V27.3157C145.231 30.2425 146.793 31.7913 149.391 31.7913C152.082 31.7913 153.893 29.8357 153.893 27.0007V18.8503H154.917V32.5H153.893V29.6651H153.854C153.224 31.4106 151.531 32.71 149.155 32.71ZM162.437 32.7231C159.497 32.7231 157.463 31.0563 157.201 28.6807L157.187 28.5626H158.198L158.224 28.6807C158.487 30.5313 160.114 31.8306 162.424 31.8306C164.773 31.8306 166.375 30.6625 166.375 28.9695V28.9563C166.375 27.4995 165.522 26.7514 163.33 26.2395L161.427 25.7933C158.828 25.1895 157.634 24.1264 157.634 22.3415V22.3283C157.634 20.1628 159.576 18.6272 162.28 18.6272C165.075 18.6272 166.9 20.2415 167.175 22.6696L167.188 22.7877H166.204L166.191 22.6958C165.928 20.7796 164.458 19.5197 162.28 19.5197C160.154 19.5197 158.657 20.6878 158.657 22.3152V22.3283C158.657 23.6277 159.537 24.3889 161.729 24.9008L163.632 25.347C166.309 25.977 167.412 27.0139 167.412 28.9038V28.917C167.412 31.1613 165.338 32.7231 162.437 32.7231Z" fill="black"/>
<defs>
<filter id="filter0_b_517_20239" x="14.5067" y="-2.82547" width="27.047" height="51.4336" filterUnits="userSpaceOnUse" color-interpolation-filters="sRGB">
<feFlood flood-opacity="0" result="BackgroundImageFix"/>
<feGaussianBlur in="BackgroundImageFix" stdDeviation="1.77357"/>
<feComposite in2="SourceAlpha" operator="in" result="effect1_backgroundBlur_517_20239"/>
<feBlend mode="normal" in="SourceGraphic" in2="effect1_backgroundBlur_517_20239" result="shape"/>
</filter>
<filter id="filter1_bd_517_20239" x="4.57276" y="1.83059" width="46.6877" height="44.2158" filterUnits="userSpaceOnUse" color-interpolation-filters="sRGB">
<feFlood flood-opacity="0" result="BackgroundImageFix"/>
<feGaussianBlur in="BackgroundImageFix" stdDeviation="1.77357"/>
<feComposite in2="SourceAlpha" operator="in" result="effect1_backgroundBlur_517_20239"/>
<feColorMatrix in="SourceAlpha" type="matrix" values="0 0 0 0 0 0 0 0 0 0 0 0 0 0 0 0 0 0 127 0" result="hardAlpha"/>
<feOffset dy="0.886785"/>
<feGaussianBlur stdDeviation="2.7712"/>
<feComposite in2="hardAlpha" operator="out"/>
<feColorMatrix type="matrix" values="0 0 0 0 0 0 0 0 0 0 0 0 0 0 0 0 0 0 0.25 0"/>
<feBlend mode="normal" in2="effect1_backgroundBlur_517_20239" result="effect2_dropShadow_517_20239"/>
<feBlend mode="normal" in="SourceGraphic" in2="effect2_dropShadow_517_20239" result="shape"/>
</filter>
<filter id="filter2_bd_517_20239" x="0.318156" y="8.25934" width="55.4241" height="31.0375" filterUnits="userSpaceOnUse" color-interpolation-filters="sRGB">
<feFlood flood-opacity="0" result="BackgroundImageFix"/>
<feGaussianBlur in="BackgroundImageFix" stdDeviation="1.77357"/>
<feComposite in2="SourceAlpha" operator="in" result="effect1_backgroundBlur_517_20239"/>
<feColorMatrix in="SourceAlpha" type="matrix" values="0 0 0 0 0 0 0 0 0 0 0 0 0 0 0 0 0 0 127 0" result="hardAlpha"/>
<feOffset dy="0.886785"/>
<feGaussianBlur stdDeviation="2.7712"/>
<feComposite in2="hardAlpha" operator="out"/>
<feColorMatrix type="matrix" values="0 0 0 0 0 0 0 0 0 0 0 0 0 0 0 0 0 0 0.25 0"/>
<feBlend mode="normal" in2="effect1_backgroundBlur_517_20239" result="effect2_dropShadow_517_20239"/>
<feBlend mode="normal" in="SourceGraphic" in2="effect2_dropShadow_517_20239" result="shape"/>
</filter>
<filter id="filter3_bd_517_20239" x="4.8964" y="1.44737" width="46.0592" height="44.8788" filterUnits="userSpaceOnUse" color-interpolation-filters="sRGB">
<feFlood flood-opacity="0" result="BackgroundImageFix"/>
<feGaussianBlur in="BackgroundImageFix" stdDeviation="1.77357"/>
<feComposite in2="SourceAlpha" operator="in" result="effect1_backgroundBlur_517_20239"/>
<feColorMatrix in="SourceAlpha" type="matrix" values="0 0 0 0 0 0 0 0 0 0 0 0 0 0 0 0 0 0 127 0" result="hardAlpha"/>
<feOffset dy="0.886785"/>
<feGaussianBlur stdDeviation="2.7712"/>
<feComposite in2="hardAlpha" operator="out"/>
<feColorMatrix type="matrix" values="0 0 0 0 0 0 0 0 0 0 0 0 0 0 0 0 0 0 0.25 0"/>
<feBlend mode="normal" in2="effect1_backgroundBlur_517_20239" result="effect2_dropShadow_517_20239"/>
<feBlend mode="normal" in="SourceGraphic" in2="effect2_dropShadow_517_20239" result="shape"/>
</filter>
<filter id="filter4_d_517_20239" x="27.3661" y="24.6311" width="10.5898" height="4.98026" filterUnits="userSpaceOnUse" color-interpolation-filters="sRGB">
<feFlood flood-opacity="0" result="BackgroundImageFix"/>
<feColorMatrix in="SourceAlpha" type="matrix" values="0 0 0 0 0 0 0 0 0 0 0 0 0 0 0 0 0 0 127 0" result="hardAlpha"/>
<feOffset dy="0.221696"/>
<feGaussianBlur stdDeviation="0.665089"/>
<feComposite in2="hardAlpha" operator="out"/>
<feColorMatrix type="matrix" values="0 0 0 0 0 0 0 0 0 0 0 0 0 0 0 0 0 0 0.25 0"/>
<feBlend mode="normal" in2="BackgroundImageFix" result="effect1_dropShadow_517_20239"/>
<feBlend mode="normal" in="SourceGraphic" in2="effect1_dropShadow_517_20239" result="shape"/>
</filter>
<linearGradient id="paint0_linear_517_20239" x1="5.41585" y1="32.406" x2="50.1998" y2="32.3784" gradientUnits="userSpaceOnUse">
<stop stop-color="#1C88EB" stop-opacity="0.65"/>
<stop offset="1" stop-color="#0057FF" stop-opacity="0.65"/>
</linearGradient>
<linearGradient id="paint1_linear_517_20239" x1="37.5449" y1="45.5056" x2="38.4125" y2="1.67619" gradientUnits="userSpaceOnUse">
<stop stop-color="white" stop-opacity="0"/>
<stop offset="1" stop-color="white"/>
</linearGradient>
<linearGradient id="paint2_linear_517_20239" x1="5.30233" y1="32.5664" x2="50.0863" y2="32.5388" gradientUnits="userSpaceOnUse">
<stop stop-color="#1C25EB" stop-opacity="0.65"/>
<stop offset="1" stop-color="#00D1FF" stop-opacity="0.65"/>
</linearGradient>
<linearGradient id="paint3_linear_517_20239" x1="17.4361" y1="45.2349" x2="50.6417" y2="16.614" gradientUnits="userSpaceOnUse">
<stop stop-color="white" stop-opacity="0"/>
<stop offset="1" stop-color="white"/>
</linearGradient>
<linearGradient id="paint4_linear_517_20239" x1="5.41591" y1="32.406" x2="50.1999" y2="32.3784" gradientUnits="userSpaceOnUse">
<stop stop-color="#771CEB" stop-opacity="0.65"/>
<stop offset="1" stop-color="#00FFA3" stop-opacity="0.65"/>
</linearGradient>
<linearGradient id="paint5_linear_517_20239" x1="5.41591" y1="32.406" x2="49.2453" y2="33.2736" gradientUnits="userSpaceOnUse">
<stop stop-color="white"/>
<stop offset="1" stop-color="white" stop-opacity="0"/>
</linearGradient>
<linearGradient id="paint6_linear_517_20239" x1="5.31174" y1="32.5147" x2="49.1411" y2="33.3823" gradientUnits="userSpaceOnUse">
<stop stop-color="#00FFF0" stop-opacity="0.65"/>
<stop offset="1" stop-color="#0704B5" stop-opacity="0.65"/>
</linearGradient>
<linearGradient id="paint7_linear_517_20239" x1="4.97539" y1="14.328" x2="36.1613" y2="45.1371" gradientUnits="userSpaceOnUse">
<stop stop-color="white"/>
<stop offset="1" stop-color="white" stop-opacity="0"/>
</linearGradient>
</defs>
</svg>
