<svg width="0" height="0" class="hidden">
  <symbol fill="none" xmlns="http://www.w3.org/2000/svg" viewBox="0 0 24 25" id="ic_access">
    <path fill-rule="evenodd" clip-rule="evenodd" d="M1.25 5.77417C1.25 3.7031 2.92893 2.02417 5 2.02417H19C21.0711 2.02417 22.75 3.7031 22.75 5.77417C22.75 7.00087 22.161 8.09 21.2504 8.77417C22.161 9.45834 22.75 10.5475 22.75 11.7742C22.75 13.8452 21.0711 15.5242 19 15.5242H12.75V17.1277C13.6658 17.3867 14.3875 18.1083 14.6465 19.0242H22C22.4142 19.0242 22.75 19.36 22.75 19.7742C22.75 20.1884 22.4142 20.5242 22 20.5242H14.6465C14.32 21.6784 13.2588 22.5242 12 22.5242C10.7412 22.5242 9.67998 21.6784 9.35352 20.5242H2C1.58579 20.5242 1.25 20.1884 1.25 19.7742C1.25 19.36 1.58579 19.0242 2 19.0242H9.35352C9.61255 18.1083 10.3342 17.3867 11.25 17.1277V15.5242H5C2.92893 15.5242 1.25 13.8452 1.25 11.7742C1.25 10.5475 1.83901 9.45834 2.74963 8.77417C1.83901 8.09 1.25 7.00087 1.25 5.77417ZM5 8.02417C3.75736 8.02417 2.75 7.01681 2.75 5.77417C2.75 4.53153 3.75736 3.52417 5 3.52417H19C20.2426 3.52417 21.25 4.53153 21.25 5.77417C21.25 7.01681 20.2426 8.02417 19 8.02417H5ZM19 9.52417H5C3.75736 9.52417 2.75 10.5315 2.75 11.7742C2.75 13.0168 3.75736 14.0242 5 14.0242H19C20.2426 14.0242 21.25 13.0168 21.25 11.7742C21.25 10.5315 20.2426 9.52417 19 9.52417ZM12.25 5.77417C12.25 5.35996 12.5858 5.02417 13 5.02417H19C19.4142 5.02417 19.75 5.35996 19.75 5.77417C19.75 6.18838 19.4142 6.52417 19 6.52417H13C12.5858 6.52417 12.25 6.18838 12.25 5.77417ZM12.25 11.7742C12.25 11.36 12.5858 11.0242 13 11.0242H19C19.4142 11.0242 19.75 11.36 19.75 11.7742C19.75 12.1884 19.4142 12.5242 19 12.5242H13C12.5858 12.5242 12.25 12.1884 12.25 11.7742ZM12 18.5242C11.3096 18.5242 10.75 19.0838 10.75 19.7742C10.75 20.4645 11.3096 21.0242 12 21.0242C12.6904 21.0242 13.25 20.4645 13.25 19.7742C13.25 19.0838 12.6904 18.5242 12 18.5242Z" fill="currentColor"></path>
    <path d="M7 5.77417C7 6.32645 6.55228 6.77417 6 6.77417C5.44772 6.77417 5 6.32645 5 5.77417C5 5.22189 5.44772 4.77417 6 4.77417C6.55228 4.77417 7 5.22189 7 5.77417Z" fill="currentColor"></path>
    <path d="M7 11.7742C7 12.3265 6.55228 12.7742 6 12.7742C5.44772 12.7742 5 12.3265 5 11.7742C5 11.2219 5.44772 10.7742 6 10.7742C6.55228 10.7742 7 11.2219 7 11.7742Z" fill="currentColor"></path>
  </symbol>
  <symbol fill="none" xmlns="http://www.w3.org/2000/svg" viewBox="0 0 24 25" id="ic_affordable">
    <path fill-rule="evenodd" clip-rule="evenodd" d="M19.9226 4.51238C19.4876 4.35201 19.0104 4.2474 18.4891 4.17731C17.3498 4.02414 15.8942 4.02415 14.0565 4.02417H14.0564H9.94361H9.9436C8.10585 4.02415 6.65022 4.02414 5.51101 4.17731C4.33859 4.33493 3.38964 4.66705 2.64127 5.41541C1.89291 6.16378 1.56079 7.11273 1.40317 8.28515C1.3127 8.95802 1.27567 9.74128 1.26052 10.6485C1.25362 10.6893 1.25003 10.7313 1.25003 10.7742C1.25003 10.8094 1.25246 10.8441 1.25717 10.878C1.25002 11.4438 1.25003 12.056 1.25003 12.7177V12.7178V12.8306V12.8306C1.25002 14.6684 1.25 16.124 1.40317 17.2632C1.56079 18.4356 1.89291 19.3846 2.64127 20.1329C2.93335 20.425 3.25597 20.6537 3.61051 20.8333L4.75906 19.6841C4.29893 19.5392 3.96923 19.3396 3.70193 19.0723C3.27872 18.6491 3.02506 18.0694 2.88979 17.0633C2.75162 16.0357 2.75003 14.681 2.75003 12.7742C2.75003 12.3283 2.75012 11.9126 2.75202 11.5242H12.9146L14.4138 10.0242H2.77611C2.79567 9.43744 2.8299 8.93051 2.88979 8.48502C3.02506 7.47893 3.27872 6.89928 3.70193 6.47607C4.12514 6.05286 4.70479 5.79919 5.71088 5.66393C6.73854 5.52576 8.09321 5.52417 10 5.52417H14C15.9069 5.52417 17.2615 5.52576 18.2892 5.66393C18.4365 5.68373 18.5747 5.70608 18.7045 5.73112L19.9226 4.51238ZM20.2109 6.39328L21.2724 5.33173C21.3015 5.35903 21.3303 5.38692 21.3588 5.41541C22.1072 6.16378 22.4393 7.11273 22.5969 8.28515C22.6874 8.95802 22.7244 9.74127 22.7395 10.6484C22.7464 10.6893 22.75 10.7313 22.75 10.7742C22.75 10.8094 22.7476 10.8441 22.7429 10.8781C22.75 11.4438 22.75 12.0559 22.75 12.7176V12.7178V12.8306V12.8306C22.75 14.6684 22.7501 16.124 22.5969 17.2632C22.4393 18.4356 22.1072 19.3846 21.3588 20.1329C20.6104 20.8813 19.6615 21.2134 18.4891 21.371C17.3498 21.5242 15.8942 21.5242 14.0565 21.5242H14.0564H9.94362H9.94357C8.10583 21.5242 6.65021 21.5242 5.51101 21.371C5.42918 21.36 5.34843 21.3482 5.26877 21.3354L6.63415 19.97C7.52256 20.0233 8.61581 20.0242 10 20.0242H14C15.9069 20.0242 17.2615 20.0226 18.2892 19.8844C19.2953 19.7491 19.8749 19.4955 20.2981 19.0723C20.7213 18.6491 20.975 18.0694 21.1103 17.0633C21.2484 16.0357 21.25 14.681 21.25 12.7742C21.25 12.3283 21.2499 11.9126 21.248 11.5242H15.08L16.58 10.0242H21.224C21.2044 9.43744 21.1702 8.93051 21.1103 8.48502C20.975 7.47893 20.7213 6.89928 20.2981 6.47607C20.2698 6.44772 20.2407 6.42013 20.2109 6.39328ZM8.41705 16.0242H6.00003C5.58582 16.0242 5.25003 16.36 5.25003 16.7742C5.25003 17.1884 5.58582 17.5242 6.00003 17.5242H6.91786L8.41705 16.0242ZM9.07999 17.5242L10.4385 16.1656C10.6272 16.3019 10.75 16.5237 10.75 16.7742C10.75 17.1884 10.4142 17.5242 10 17.5242H9.07999ZM12.5 16.0242C12.0858 16.0242 11.75 16.36 11.75 16.7742C11.75 17.1884 12.0858 17.5242 12.5 17.5242H14C14.4142 17.5242 14.75 17.1884 14.75 16.7742C14.75 16.36 14.4142 16.0242 14 16.0242H12.5Z" fill="currentColor"></path>
    <path d="M21.77 4.08423L20.61 5.24423L16.33 9.52423L3.31 22.5442C3.16 22.6942 2.97 22.7742 2.77 22.7742C2.57 22.7742 2.38 22.6942 2.23 22.5442C1.92 22.2442 1.92 21.7642 2.23 21.4642L3.38 20.3142L5.73 17.9642L19.27 4.42423L20.69 3.00423C20.99 2.69423 21.47 2.69423 21.77 3.00423C22.08 3.30423 22.08 3.78423 21.77 4.08423Z" fill="currentColor"></path>
  </symbol>
  <symbol fill="none" xmlns="http://www.w3.org/2000/svg" viewBox="0 0 20 20" id="ic_arr_ver">
    <path fill-rule="evenodd" clip-rule="evenodd" d="M3.69198 12.9067C3.46734 12.6447 3.49769 12.2501 3.75977 12.0255L9.5931 7.02545C9.82716 6.82483 10.1725 6.82483 10.4066 7.02545L16.2399 12.0255C16.502 12.2501 16.5324 12.6447 16.3077 12.9067C16.0831 13.1688 15.6885 13.1992 15.4264 12.9745L9.99985 8.32316L4.57326 12.9745C4.31118 13.1992 3.91662 13.1688 3.69198 12.9067Z" fill="currentColor"></path>
  </symbol>
  <symbol fill="none" xmlns="http://www.w3.org/2000/svg" viewBox="0 0 24 24" id="ic_arrow_hor">
    <path fill-rule="evenodd" clip-rule="evenodd" d="M10.5303 5.46967C10.8232 5.76256 10.8232 6.23744 10.5303 6.53033L5.81066 11.25H20C20.4142 11.25 20.75 11.5858 20.75 12C20.75 12.4142 20.4142 12.75 20 12.75H5.81066L10.5303 17.4697C10.8232 17.7626 10.8232 18.2374 10.5303 18.5303C10.2374 18.8232 9.76256 18.8232 9.46967 18.5303L3.46967 12.5303C3.17678 12.2374 3.17678 11.7626 3.46967 11.4697L9.46967 5.46967C9.76256 5.17678 10.2374 5.17678 10.5303 5.46967Z" fill="currentColor"></path>
  </symbol>
  <symbol fill="none" xmlns="http://www.w3.org/2000/svg" viewBox="0 0 20 20" id="ic_arrow_link">
    <path d="M5 15L15 5M15 5H7.5M15 5V12.5" stroke="currentColor" stroke-width="1.5" stroke-linecap="round" stroke-linejoin="round"></path>
  </symbol>
  <symbol fill="none" xmlns="http://www.w3.org/2000/svg" viewBox="0 0 20 20" id="ic_arrow_ver">
    <path d="M10 16.6666L10 3.33325M10 3.33325L15 8.33325M10 3.33325L5 8.33325" stroke="currentColor" stroke-width="1.5" stroke-linecap="round" stroke-linejoin="round"></path>
  </symbol>
  <symbol fill="none" xmlns="http://www.w3.org/2000/svg" viewBox="0 0 24 25" id="ic_day_night">
    <path d="M12 23.5242C11.3 23.5242 10.59 23.2541 10.06 22.7241L8.35001 21.0342C7.92001 20.6142 7.35999 20.3842 6.75999 20.3842H6C3.93 20.3842 2.25 18.7142 2.25 16.6642V5.75415C2.25 3.70415 3.93 2.03418 6 2.03418H18C20.07 2.03418 21.75 3.70415 21.75 5.75415V16.6642C21.75 18.7142 20.07 20.3842 18 20.3842H17.24C16.64 20.3842 16.07 20.6142 15.65 21.0342L13.94 22.7241C13.41 23.2541 12.7 23.5242 12 23.5242ZM6 3.52417C4.76 3.52417 3.75 4.52414 3.75 5.74414V16.6542C3.75 17.8842 4.76 18.8741 6 18.8741H6.75999C7.75999 18.8741 8.7 19.2641 9.41 19.9641L11.12 21.6542C11.61 22.1342 12.4 22.1342 12.89 21.6542L14.6 19.9641C15.31 19.2641 16.25 18.8741 17.25 18.8741H18C19.24 18.8741 20.25 17.8742 20.25 16.6542V5.74414C20.25 4.51414 19.24 3.52417 18 3.52417H6Z" fill="currentColor"></path>
    <path d="M10.3802 15.2842H7.70023C7.26023 15.2842 6.85023 15.0741 6.59023 14.7141C6.34023 14.3741 6.28022 13.9542 6.40022 13.5542C6.75022 12.4842 7.61022 11.9042 8.37022 11.3842C9.17022 10.8442 9.62022 10.5042 9.62022 9.92419C9.62022 9.40419 9.20022 8.98413 8.68022 8.98413C8.16022 8.98413 7.74023 9.40419 7.74023 9.92419C7.74023 10.3342 7.40023 10.6742 6.99023 10.6742C6.58023 10.6742 6.24023 10.3342 6.24023 9.92419C6.24023 8.58419 7.33022 7.48413 8.68022 7.48413C10.0302 7.48413 11.1202 8.57419 11.1202 9.92419C11.1202 11.3342 10.0602 12.0542 9.21024 12.6342C8.68024 12.9942 8.18022 13.3342 7.93022 13.7842H10.3702C10.7802 13.7842 11.1202 14.1242 11.1202 14.5342C11.1202 14.9442 10.7902 15.2842 10.3802 15.2842Z" fill="currentColor"></path>
    <path d="M16.0399 15.2844C15.6299 15.2844 15.2899 14.9444 15.2899 14.5344V13.8443H13.3299C13.3299 13.8443 13.3299 13.8443 13.3199 13.8443C12.8299 13.8443 12.3799 13.5844 12.1299 13.1644C11.8799 12.7344 11.8799 12.2044 12.1299 11.7844C12.8099 10.6144 13.5999 9.28433 14.3199 8.12433C14.6399 7.61433 15.2499 7.38437 15.8199 7.54437C16.3899 7.71437 16.7899 8.23441 16.7799 8.83441V12.3543H16.9999C17.4099 12.3543 17.7499 12.6943 17.7499 13.1043C17.7499 13.5143 17.4099 13.8543 16.9999 13.8543H16.7899V14.5444C16.7899 14.9544 16.4599 15.2844 16.0399 15.2844ZM15.2899 9.41436C14.6999 10.3744 14.0899 11.4043 13.5399 12.3443H15.2899V9.41436Z" fill="currentColor"></path>
  </symbol>
  <symbol fill="none" xmlns="http://www.w3.org/2000/svg" viewBox="0 0 24 25" id="ic_email">
    <path fill-rule="evenodd" clip-rule="evenodd" d="M9.94358 3.35474H14.0564C15.8942 3.35472 17.3498 3.35471 18.489 3.51281C19.6614 3.67552 20.6104 4.01835 21.3588 4.79086C22.1071 5.56336 22.4392 6.54292 22.5969 7.75316C22.75 8.92913 22.75 10.4317 22.75 12.3288V12.4452C22.75 14.3423 22.75 15.8449 22.5969 17.0208C22.4392 18.2311 22.1071 19.2106 21.3588 19.9831C20.6104 20.7556 19.6614 21.0985 18.489 21.2612C17.3498 21.4193 15.8942 21.4193 14.0564 21.4193H9.94359C8.10583 21.4193 6.65019 21.4193 5.51098 21.2612C4.33856 21.0985 3.38961 20.7556 2.64124 19.9831C1.89288 19.2106 1.56076 18.2311 1.40314 17.0208C1.24997 15.8449 1.24998 14.3423 1.25 12.4452V12.3288C1.24998 10.4317 1.24997 8.92913 1.40314 7.75316C1.56076 6.54292 1.89288 5.56336 2.64124 4.79086C3.38961 4.01835 4.33856 3.67552 5.51098 3.51281C6.65019 3.35471 8.10582 3.35472 9.94358 3.35474ZM5.71085 5.04739C4.70476 5.18702 4.12511 5.44887 3.7019 5.88573C3.27869 6.3226 3.02502 6.92094 2.88976 7.95948C2.75159 9.0203 2.75 10.4187 2.75 12.387C2.75 14.3553 2.75159 15.7537 2.88976 16.8145C3.02502 17.8531 3.27869 18.4514 3.7019 18.8883C4.12511 19.3251 4.70476 19.587 5.71085 19.7266C6.73851 19.8692 8.09318 19.8709 10 19.8709H14C15.9068 19.8709 17.2615 19.8692 18.2892 19.7266C19.2952 19.587 19.8749 19.3251 20.2981 18.8883C20.7213 18.4514 20.975 17.853 21.1102 16.8145C21.2484 15.7537 21.25 14.3553 21.25 12.387C21.25 10.4187 21.2484 9.0203 21.1102 7.95948C20.975 6.92094 20.7213 6.3226 20.2981 5.88573C19.8749 5.44887 19.2952 5.18702 18.2892 5.04739C17.2615 4.90477 15.9068 4.90312 14 4.90312H10C8.09318 4.90312 6.73851 4.90477 5.71085 5.04739ZM5.42383 7.76234C5.68901 7.43386 6.16193 7.38948 6.48014 7.66321L8.63903 9.52033C9.57199 10.3229 10.2197 10.8783 10.7666 11.2413C11.2959 11.5928 11.6549 11.7107 12 11.7107C12.3451 11.7107 12.7041 11.5928 13.2334 11.2413C13.7803 10.8783 14.428 10.3229 15.361 9.52032L17.5199 7.66321C17.8381 7.38948 18.311 7.43386 18.5762 7.76234C18.8413 8.09081 18.7983 8.57899 18.4801 8.85271L16.2836 10.7422C15.3973 11.5047 14.6789 12.1227 14.0448 12.5436C13.3843 12.9821 12.7411 13.2591 12 13.2591C11.2589 13.2591 10.6157 12.9821 9.95518 12.5436C9.32112 12.1227 8.60272 11.5047 7.71636 10.7422L5.51986 8.85271C5.20165 8.57899 5.15866 8.09081 5.42383 7.76234Z" fill="currentColor"></path>
  </symbol>
  <symbol fill="none" xmlns="http://www.w3.org/2000/svg" viewBox="0 0 32 32" id="ic_fb">
    <path fill-rule="evenodd" clip-rule="evenodd" d="M17.5161 24.8889V15.9989H19.9701L20.2953 12.9354H17.5161L17.5203 11.4021C17.5203 10.6031 17.5962 10.1749 18.7438 10.1749H20.2779V7.11108H17.8236C14.8755 7.11108 13.8379 8.59722 13.8379 11.0964V12.9358H12.0002V15.9993H13.8379V24.8889H17.5161Z" fill="currentColor"></path>
  </symbol>
  <symbol fill="none" xmlns="http://www.w3.org/2000/svg" viewBox="0 0 32 32" id="ic_linkedin">
    <path fill-rule="evenodd" clip-rule="evenodd" d="M7.11111 9.25237C7.11111 10.4891 8.0472 11.3928 9.2019 11.3928C10.3568 11.3928 11.2929 10.4891 11.2929 9.25237C11.2929 8.01586 10.3568 7.11108 9.2019 7.11108C8.0472 7.11108 7.11111 8.01586 7.11111 9.25237ZM11.0151 13.0341V24.8797H7.38869V13.0341H11.0151Z" fill="currentColor"></path>
    <path d="M24.3852 24.8889H20.7586V18.419C20.7586 16.5101 19.9693 15.9213 18.9514 15.9213C17.8753 15.9213 16.8204 16.7541 16.8204 18.4665V24.8889H13.1939V13.0432H16.6816V14.6845C17.0325 13.9552 18.3036 12.7103 20.1748 12.7103C22.1984 12.7103 24.3852 13.9444 24.3852 17.5626V24.8889Z" fill="currentColor"></path>
  </symbol>
  <symbol fill="none" xmlns="http://www.w3.org/2000/svg" viewBox="0 0 20 20" id="ic_menu">
    <path d="M17.5 6.45833H2.5C2.15833 6.45833 1.875 6.17499 1.875 5.83333C1.875 5.49166 2.15833 5.20833 2.5 5.20833H17.5C17.8417 5.20833 18.125 5.49166 18.125 5.83333C18.125 6.17499 17.8417 6.45833 17.5 6.45833Z" fill="currentColor"></path>
    <path d="M17.5 10.625H2.5C2.15833 10.625 1.875 10.3417 1.875 10C1.875 9.65833 2.15833 9.375 2.5 9.375H17.5C17.8417 9.375 18.125 9.65833 18.125 10C18.125 10.3417 17.8417 10.625 17.5 10.625Z" fill="currentColor"></path>
    <path d="M17.5 14.7917H2.5C2.15833 14.7917 1.875 14.5083 1.875 14.1667C1.875 13.825 2.15833 13.5417 2.5 13.5417H17.5C17.8417 13.5417 18.125 13.825 18.125 14.1667C18.125 14.5083 17.8417 14.7917 17.5 14.7917Z" fill="currentColor"></path>
  </symbol>
  <symbol fill="none" xmlns="http://www.w3.org/2000/svg" viewBox="0 0 24 24" id="ic_phone">
    <path d="M13.2596 1.88008C13.3258 1.47119 13.7124 1.19381 14.1213 1.26001C14.1466 1.26485 14.228 1.28007 14.2707 1.28958C14.356 1.30858 14.475 1.33784 14.6234 1.38106C14.9202 1.46751 15.3348 1.60991 15.8324 1.83805C16.8287 2.2948 18.1545 3.09381 19.5303 4.46961C20.9061 5.84541 21.7051 7.17122 22.1619 8.1675C22.39 8.66511 22.5324 9.07972 22.6189 9.3765C22.6621 9.5249 22.6914 9.64393 22.7104 9.72926C22.7199 9.77193 22.7268 9.80619 22.7317 9.8315L22.7374 9.86269C22.8036 10.2716 22.5288 10.6741 22.1199 10.7403C21.7121 10.8063 21.328 10.5303 21.2602 10.1233C21.2581 10.1124 21.2524 10.083 21.2462 10.0553C21.2339 9.99994 21.2126 9.91212 21.1787 9.79597C21.1111 9.56363 20.9935 9.2183 20.7984 8.79262C20.4085 7.94232 19.7075 6.76813 18.4697 5.53027C17.2318 4.2924 16.0576 3.59141 15.2073 3.20158C14.7816 3.00642 14.4363 2.88889 14.204 2.82122C14.0878 2.78739 13.9418 2.75387 13.8864 2.74154C13.4795 2.67372 13.1936 2.2878 13.2596 1.88008Z" fill="currentColor"></path>
    <path fill-rule="evenodd" clip-rule="evenodd" d="M13.4859 5.32954C13.5997 4.93126 14.0148 4.70065 14.4131 4.81444L14.207 5.53558C14.4131 4.81444 14.4131 4.81444 14.4131 4.81444L14.4145 4.81485L14.416 4.81529L14.4194 4.81627L14.4271 4.81858L14.4469 4.82475C14.462 4.82957 14.4808 4.83585 14.5033 4.84381C14.5482 4.85975 14.6076 4.88242 14.6804 4.91362C14.826 4.97605 15.0251 5.07248 15.2696 5.21719C15.7591 5.50687 16.4273 5.98805 17.2122 6.77302C17.9972 7.55799 18.4784 8.22618 18.7681 8.71564C18.9128 8.96015 19.0092 9.15922 19.0716 9.3049C19.1028 9.37771 19.1255 9.43707 19.1414 9.48198C19.1494 9.50443 19.1557 9.52326 19.1605 9.53834L19.1667 9.55812L19.169 9.56587L19.17 9.56921L19.1704 9.57074C19.1704 9.57074 19.1708 9.57218 18.4497 9.77822L19.1708 9.57218C19.2846 9.97046 19.054 10.3856 18.6557 10.4994C18.2608 10.6122 17.8494 10.3864 17.7315 9.99437L17.7278 9.98359C17.7225 9.96856 17.7114 9.93898 17.6929 9.89578C17.6559 9.80944 17.5888 9.66821 17.4772 9.47962C17.2542 9.10288 16.8515 8.53363 16.1516 7.83368C15.4516 7.13373 14.8824 6.73102 14.5056 6.50805C14.317 6.39644 14.1758 6.32934 14.0895 6.29234C14.0463 6.27382 14.0167 6.26279 14.0017 6.25746L13.9909 6.25376C13.5988 6.13588 13.3731 5.72443 13.4859 5.32954Z" fill="currentColor"></path>
    <path fill-rule="evenodd" clip-rule="evenodd" d="M5.00748 4.40684C6.68755 2.72677 9.52269 2.85449 10.6925 4.95061L11.3415 6.11354C12.1054 7.48236 11.7799 9.20944 10.6616 10.3414C10.6467 10.3618 10.5678 10.4767 10.5579 10.6776C10.5454 10.9339 10.6364 11.5267 11.5548 12.4451C12.473 13.3632 13.0657 13.4545 13.3221 13.442C13.5231 13.4322 13.6381 13.3532 13.6585 13.3383C14.7905 12.22 16.5176 11.8945 17.8864 12.6584L19.0493 13.3074C21.1455 14.4772 21.2732 17.3124 19.5931 18.9925C18.6944 19.8911 17.4995 20.6896 16.0953 20.7428C14.0144 20.8217 10.5592 20.2843 7.13738 16.8626C3.71559 13.4408 3.17821 9.98554 3.2571 7.90461C3.31033 6.50041 4.10882 5.3055 5.00748 4.40684ZM9.38268 5.68161C8.78366 4.60826 7.17397 4.36167 6.06814 5.4675C5.29279 6.24285 4.78873 7.09866 4.75602 7.96144C4.69023 9.69678 5.11867 12.7225 8.19804 15.8019C11.2774 18.8813 14.3032 19.3097 16.0385 19.2439C16.9013 19.2112 17.7571 18.7071 18.5324 17.9318C19.6383 16.826 19.3917 15.2163 18.3183 14.6173L17.1554 13.9682C16.432 13.5645 15.4159 13.7022 14.7026 14.4155C14.6325 14.4856 14.1865 14.9017 13.395 14.9402C12.5848 14.9796 11.604 14.6156 10.4942 13.5058C9.38398 12.3955 9.02006 11.4145 9.05973 10.6042C9.09849 9.81269 9.51471 9.36709 9.58435 9.29744C10.2977 8.58412 10.4354 7.56795 10.0317 6.84453L9.38268 5.68161Z" fill="currentColor"></path>
  </symbol>
  <symbol fill="none" xmlns="http://www.w3.org/2000/svg" viewBox="0 0 32 32" id="ic_telegram">
    <path d="M12.0039 13.5514C10.4453 14.2319 8.84404 14.9311 7.37975 15.7377C6.61515 16.2975 7.63135 16.6935 8.58474 17.0649L8.58709 17.0659C8.73785 17.1246 8.88697 17.1827 9.02724 17.2407C9.14457 17.2769 9.26385 17.3148 9.38475 17.3533C10.4451 17.6912 11.6274 18.0678 12.6568 17.5012C14.3478 16.5298 15.9436 15.4068 17.5382 14.2846C18.0606 13.9169 18.5829 13.5494 19.1084 13.1872C19.133 13.1715 19.1608 13.1535 19.1912 13.1338C19.6388 12.8436 20.6456 12.191 20.2732 13.0903C19.3934 14.0524 18.4511 14.9041 17.5037 15.7605L17.501 15.7629C16.8618 16.3406 16.2203 16.9204 15.5941 17.5375C15.0488 17.9807 14.4824 18.8718 15.0931 19.4924C16.498 20.4758 17.9248 21.4355 19.3508 22.3947L19.3561 22.3982C19.8207 22.7107 20.2853 23.0231 20.7489 23.3364C21.5347 23.9637 22.7628 23.4562 22.9356 22.4759C23.0099 22.0397 23.0845 21.6037 23.1591 21.1675L23.1667 21.123C23.593 18.6307 24.0194 16.1374 24.3961 13.637C24.4473 13.2447 24.5053 12.8526 24.5634 12.4602L24.5635 12.4594C24.7042 11.5086 24.8451 10.5567 24.8891 9.60075C24.7757 8.64653 23.6187 8.85636 22.9748 9.07093C19.6654 10.3302 16.389 11.6829 13.1256 13.0593C12.7559 13.2231 12.3811 13.3867 12.0039 13.5514Z" fill="currentColor"></path>
  </symbol>
  <symbol fill="none" xmlns="http://www.w3.org/2000/svg" viewBox="0 0 24 25" id="ic_web">
    <path fill-rule="evenodd" clip-rule="evenodd" d="M9.20646 3.95608C8.95433 4.03596 8.70533 4.12674 8.46018 4.22828C7.33792 4.69314 6.3182 5.37449 5.45926 6.23343C4.60032 7.09237 3.91897 8.11209 3.45411 9.23435C3.0852 10.125 2.85837 11.0664 2.78045 12.0242H7.26094C7.29294 10.9283 7.39498 9.84827 7.56457 8.82474C7.7725 7.56975 8.07972 6.41331 8.47522 5.42456C8.69114 4.88474 8.9351 4.39058 9.20646 3.95608ZM12 2.02417C10.5883 2.02417 9.1904 2.30223 7.88615 2.84246C6.5819 3.3827 5.39683 4.17454 4.3986 5.17277C3.40037 6.171 2.60853 7.35607 2.0683 8.66032C1.52806 9.96457 1.25 11.3625 1.25 12.7742C1.25 14.1859 1.52806 15.5838 2.06829 16.888C2.60853 18.1923 3.40037 19.3773 4.3986 20.3756C5.39683 21.3738 6.5819 22.1656 7.88615 22.7059C9.1904 23.2461 10.5883 23.5242 12 23.5242C13.4117 23.5242 14.8096 23.2461 16.1138 22.7059C17.4181 22.1656 18.6032 21.3738 19.6014 20.3756C20.5996 19.3773 21.3915 18.1923 21.9317 16.888C22.4719 15.5838 22.75 14.1859 22.75 12.7742C22.75 11.3625 22.4719 9.96457 21.9317 8.66032C21.3915 7.35607 20.5996 6.171 19.6014 5.17277C18.6032 4.17454 17.4181 3.3827 16.1138 2.84247C14.8096 2.30223 13.4117 2.02417 12 2.02417ZM12 3.52417C11.7387 3.52417 11.4012 3.64996 11.0088 4.05637C10.6134 4.46578 10.2176 5.10743 9.86793 5.98164C9.52056 6.85006 9.2385 7.89841 9.04439 9.06993C8.88866 10.0099 8.79316 11.0073 8.76162 12.0242L15.2384 12.0242C15.2068 11.0073 15.1113 10.0099 14.9556 9.06993C14.7615 7.89841 14.4794 6.85007 14.1321 5.98165C13.7824 5.10743 13.3866 4.46578 12.9912 4.05637C12.5988 3.64996 12.2613 3.52417 12 3.52417ZM16.7391 12.0242C16.7071 10.9283 16.605 9.84828 16.4354 8.82474C16.2275 7.56975 15.9203 6.41331 15.5248 5.42456C15.3089 4.88474 15.0649 4.39058 14.7935 3.95608C15.0457 4.03596 15.2947 4.12674 15.5398 4.22828C16.6621 4.69314 17.6818 5.37449 18.5407 6.23343C19.3997 7.09238 20.081 8.11209 20.5459 9.23435C20.9148 10.125 21.1416 11.0664 21.2195 12.0242H16.7391ZM15.2384 13.5242L8.76162 13.5242C8.79316 14.541 8.88866 15.5385 9.04439 16.4784C9.2385 17.6499 9.52056 18.6983 9.86793 19.5667C10.2176 20.4409 10.6134 21.0826 11.0088 21.492C11.4012 21.8984 11.7387 22.0242 12 22.0242C12.2613 22.0242 12.5988 21.8984 12.9912 21.492C13.3866 21.0826 13.7824 20.4409 14.1321 19.5667C14.4794 18.6983 14.7615 17.6499 14.9556 16.4784C15.1113 15.5385 15.2068 14.541 15.2384 13.5242ZM14.7935 21.5923C15.0649 21.1578 15.3089 20.6636 15.5248 20.1238C15.9203 19.135 16.2275 17.9786 16.4354 16.7236C16.605 15.7001 16.7071 14.6201 16.7391 13.5242H21.2195C21.1416 14.482 20.9148 15.4234 20.5459 16.314C20.081 17.4363 19.3997 18.456 18.5407 19.3149C17.6818 20.1738 16.6621 20.8552 15.5398 21.3201C15.2947 21.4216 15.0457 21.5124 14.7935 21.5923ZM9.20646 21.5923C8.9351 21.1578 8.69114 20.6636 8.47521 20.1238C8.07971 19.135 7.7725 17.9786 7.56457 16.7236C7.39498 15.7001 7.29294 14.6201 7.26094 13.5242H2.78045C2.85837 14.482 3.0852 15.4234 3.45411 16.314C3.91897 17.4363 4.60032 18.456 5.45926 19.3149C6.3182 20.1738 7.33792 20.8552 8.46018 21.3201C8.70533 21.4216 8.95433 21.5124 9.20646 21.5923Z" fill="currentColor"></path>
  </symbol>
  <symbol fill="none" xmlns="http://www.w3.org/2000/svg" viewBox="0 0 20 20" id="ic_x">
    <path d="M15.2023 1.87512H17.9589L11.9364 8.75846L19.0214 18.1251H13.4739L9.12895 12.4443L4.15728 18.1251H1.39895L7.84061 10.7626L1.04395 1.87512H6.73228L10.6598 7.06762L15.2023 1.87512ZM14.2348 16.4751H15.7623L5.90228 3.43846H4.26311L14.2348 16.4751Z" fill="currentColor"></path>
  </symbol>
</svg>